<?xml version="1.0" standalone="no"?>
<!DOCTYPE svg PUBLIC "-//W3C//DTD SVG 1.1//EN" "http://www.w3.org/Graphics/SVG/1.1/DTD/svg11.dtd" >
<svg xmlns="http://www.w3.org/2000/svg">
<metadata>
Created by FontPrep 20130207 at Mon Jun 15 09:16:11 2015
 By Tyler Finck
Copyright (c) 2015 by Tyler Finck. All rights reserved.
</metadata>
<defs>
<font id="db6e8861a7139e426c0237f7091ac25d" horiz-adv-x='1024' >
  <font-face 
    font-family="Didactic-Regular"
    font-weight="400"
    font-stretch="normal"
    units-per-em="1000"
    panose-1="0 0 5 0 0 0 0 0 0 0"
    ascent="750"
    descent="-250"
    x-height="523"
    cap-height="700"
    bbox="-402 -280 1007 995.902"
    underline-thickness="50"
    underline-position="-50"
    unicode-range="U+0020-FB02"
  />
<missing-glyph horiz-adv-x="267" 
 />
    <glyph glyph-name="fi" unicode="fi" horiz-adv-x="634" 
d="M575 33l1 -28q0 -5 -5 -5h-560q-5 0 -5 5v28q0 5 5 5l85 6v442h-95q-5 0 -5 5v27q0 5 5 5h95v52q0 103 71.5 152t175.5 24q4 -1 4 -5v-98q0 -5 -5 -5h-31q-4 0 -5 4l-15 62q-12 8 -30 2t-34.5 -18.5t-28.5 -45.5t-12 -79v-45h302q5 0 5 -5v-474l77 -6q5 0 5 -5zM448 655
q-22 0 -38 15.5t-16 38.5t16 38.5t38 15.5t38 -15.5t16 -38.5t-16 -38.5t-38 -15.5zM402 44v441l-88 1h-128v-442h216z" />
    <glyph glyph-name="fl" unicode="fl" horiz-adv-x="595" 
d="M7 32q0 5 5 5l77 6v443h-84q-5 0 -5 5v27q0 5 5 5h84v42q0 98 49 147.5t140 49.5h221q5 0 5 -5v-714l53 -6q5 0 5 -5v-27q0 -5 -5 -5h-194q-5 0 -5 5v27q0 5 5 5l52 5v685h-137q-99 0 -99 -159v-45h97q5 0 5 -5v-27q0 -5 -5 -5h-97v-442h7l61 -6q5 -2 5 -6v-27
q0 -5 -5 -5h-235q-5 0 -5 5v27z" />
    <glyph glyph-name="f_f" unicode="ff" horiz-adv-x="675" 
d="M-4 518q0 5 5 5h95v52q0 99 67 149.5t169 26.5q4 -1 4 -5v-98q0 -5 -5 -5h-30q-4 0 -5 4l-15 62q-12 8 -28.5 2t-31 -18.5t-25 -45.5t-10.5 -79v-45h209v52q0 99 67 149.5t169 26.5q4 -1 4 -5v-98q0 -5 -5 -5h-30q-4 0 -5 4l-15 62q-12 8 -28.5 2t-31 -18.5t-25 -45.5
t-10.5 -79v-45h120q5 0 5 -5v-27q0 -5 -5 -5h-120v-442l88 -7q5 0 5 -5v-27q0 -5 -5 -5h-562q-5 0 -5 5v27q0 5 5 5l85 6v443h-95q-5 0 -5 5v27zM186 43h209v443h-209v-443z" />
    <glyph glyph-name="f_f_i" unicode="ffi" horiz-adv-x="888" 
d="M868 5q0 -5 -5 -5h-852q-5 0 -5 5v27q0 5 5 5l85 6v443h-95q-5 0 -5 5v27q0 5 5 5h95v52q0 99 67 149.5t169 26.5q4 -1 4 -5v-98q0 -5 -5 -5h-30q-4 0 -5 4l-15 62q-12 8 -28.5 2t-31 -18.5t-25 -45.5t-10.5 -79v-45h209v52q0 99 67 149.5t169 26.5q4 -1 4 -5v-98
q0 -5 -5 -5h-30q-4 0 -5 4l-15 62q-12 8 -28.5 2t-31 -18.5t-25 -45.5t-10.5 -79v-45h295q5 0 5 -5v-475l78 -6q5 0 5 -5v-27zM686 709q0 23 16 38.5t38 15.5t38 -15.5t16 -38.5t-16 -38.5t-38 -15.5t-38 15.5t-16 38.5zM186 44h209v442h-209v-442zM485 44h209v442h-209
v-442z" />
    <glyph glyph-name="f_f_l" unicode="ffl" horiz-adv-x="893" 
d="M0 518q0 5 5 5h95v52q0 99 67 149.5t169 26.5q4 -1 4 -5v-98q0 -5 -5 -5h-30q-4 0 -5 4l-15 62q-12 8 -28.5 2t-31 -18.5t-25 -45.5t-10.5 -79v-45h210v42q0 98 49 147.5t140 49.5h221q5 0 5 -5v-714l53 -6q5 0 5 -5v-27q0 -5 -5 -5h-194q-5 0 -5 5v27q0 5 5 5l52 5v685
h-137q-99 0 -99 -159v-45h97q5 0 5 -5v-27q0 -5 -5 -5h-97v-442h7l61 -6q5 -2 5 -6v-27q0 -5 -5 -5h-543q-5 0 -5 5v27q0 5 5 5l85 6v443h-95q-5 0 -5 5v27zM190 44l210 -1v443h-210v-442z" />
    <glyph glyph-name=".notdef" horiz-adv-x="267" 
 />
    <glyph glyph-name=".null" 
 />
    <glyph glyph-name="nonmarkingreturn" horiz-adv-x="333" 
 />
    <glyph glyph-name="space" unicode=" " horiz-adv-x="240" 
 />
    <glyph glyph-name="exclam" unicode="!" horiz-adv-x="210" 
d="M23 656v39q0 5 5 5h79q5 0 5 -5v-39l-24 -450q0 -5 -5 -5h-32q-5 0 -5 5zM13 41q0 23 15.5 38.5t37.5 15.5t38 -15.5t16 -38.5q0 -22 -15.5 -37.5t-38.5 -15.5q-22 0 -37.5 15t-15.5 38z" />
    <glyph glyph-name="quotedbl" unicode="&#x22;" horiz-adv-x="246" 
d="M83 734q0 -20 -28 -136q-1 -4 -5 -4h-4q-5 0 -6 4q-26 120 -26 136q0 13 10.5 20.5t24.5 7.5q13 0 23.5 -7.5t10.5 -20.5zM162 594q-5 0 -6 4q-27 124 -27 136q0 13 10 20.5t25 7.5q13 0 23.5 -7.5t10.5 -20.5q0 -1 -27 -136q-1 -4 -6 -4h-3z" />
    <glyph glyph-name="numbersign" unicode="#" horiz-adv-x="650" 
d="M356 223h-160l-44 -219q-1 -4 -6 -4h-66q-7 0 -5 5l43 218h-99q-5 0 -5 5v30q0 5 5 5h107l39 199h-119q-5 0 -5 5v29q0 5 5 5h127l38 195q1 4 6 4h66q7 0 5 -5l-38 -194h161l39 195q1 4 6 4h65q7 0 5 -5l-39 -194h99q5 0 5 -5v-29q0 -5 -5 -5h-106l-40 -199h117q5 0 5 -5
v-30q0 -5 -5 -5h-124q-7 -36 -21.5 -109t-21.5 -110q-1 -4 -6 -4h-66q-7 0 -5 5zM203 263h160l40 199h-160z" />
    <glyph glyph-name="dollar" unicode="$" horiz-adv-x="585" 
d="M291 689q43 -3 76.5 -11.5t45.5 -15.5l12 -7l9 21q1 4 6 4h29q5 0 5 -5v-146q0 -5 -5 -5h-39q-4 0 -6 5q-8 48 -46 80.5t-87 39.5v-250q103 -55 139 -84q70 -60 70 -139q0 -83 -62 -124t-147 -43v-56q0 -5 -5 -5h-43q-5 0 -5 5v59q-44 4 -81.5 14t-52.5 18l-16 8l-18 -27
q-2 -3 -6 -3h-27q-5 0 -5 5v146q0 5 5 5h38q4 0 5 -4q15 -44 58 -75t100 -40v251q-44 25 -67.5 40.5t-54.5 42t-45 57.5t-14 68q0 80 52 123.5t129 47.5v58q0 5 5 5h43q5 0 5 -5v-58zM139 558q0 -71 99 -130v220q-99 -12 -99 -90zM397 143q0 41 -27.5 73t-78.5 63v-223
q106 4 106 87z" />
    <glyph glyph-name="percent" unicode="%" horiz-adv-x="696" 
d="M3 547q0 70 40 112.5t108 42.5q67 0 106.5 -40.5t39.5 -114.5q0 -73 -40.5 -115t-105.5 -42q-63 0 -105.5 43.5t-42.5 113.5zM517 697q1 3 6 3h49q7 0 3 -6l-427 -691q-2 -3 -6 -3h-48q-7 0 -3 6zM151 680q-69 0 -69 -135q0 -62 14 -96.5t55 -34.5q40 0 54 35t14 97
q0 63 -14 98.5t-54 35.5zM367 153q0 70 40 112t107 42q68 0 108 -40t40 -114q0 -73 -40.5 -115.5t-107.5 -42.5q-63 0 -105 44t-42 114zM514 285q-69 0 -69 -134q0 -63 14 -97.5t55 -34.5q40 0 54 34.5t14 98.5q0 63 -14 98t-54 35z" />
    <glyph glyph-name="ampersand" unicode="&#x26;" horiz-adv-x="613" 
d="M403 72q-32 -35 -87 -56.5t-118 -20.5q-61 2 -105 31.5t-59.5 75.5t-9.5 97.5t44.5 103t103.5 86.5q-42 57 -60 98t-18 86q0 60 37.5 100t110.5 40q69 0 109 -35.5t40 -96.5q0 -87 -132 -182l162 -225q18 18 26 96t8 149v42q0 5 5 5h113q5 0 5 -5v-24q0 -4 -5 -6l-31 -5
q0 -61 -22.5 -150.5t-65.5 -141.5l71 -91l54 -6q5 0 5 -5v-27q0 -5 -5 -5h-121q-4 0 -6 3zM244 678q-35 0 -59 -18.5t-24 -56.5q0 -77 76 -174q1 1 11 8t18 13.5t19.5 20.5t19.5 29.5t14 38.5t6 49q0 42 -21 66t-60 24zM146 116q44 -42 117 -40.5t112 37.5q-25 36 -91 122.5
t-91 123.5q-61 -39 -78 -112.5t31 -130.5z" />
    <glyph glyph-name="quotesingle" unicode="'" horiz-adv-x="121" 
d="M89 734q0 -20 -28 -136q-1 -4 -5 -4h-4q-5 0 -6 4q-26 120 -26 136q0 13 10.5 20.5t24.5 7.5q13 0 23.5 -7.5t10.5 -20.5z" />
    <glyph glyph-name="parenleft" unicode="(" horiz-adv-x="305" 
d="M105 288q0 -106 16 -188.5t42 -129.5t45.5 -69.5t40.5 -37.5q4 -2 2 -7l-8 -15q-4 -4 -8 -1q-16 10 -36.5 26t-56.5 55.5t-63.5 87t-48.5 122t-21 157.5q0 92 21.5 171t49.5 127t65 86.5t57.5 52.5t37.5 23q5 2 6 -2l7 -11q2 -5 1 -5q-149 -162 -149 -442z" />
    <glyph glyph-name="parenright" unicode=")" horiz-adv-x="321" 
d="M161 288q0 278 -147 440q-2 2 -1 7l7 11q1 4 6 2q17 -9 37.5 -23t57.5 -52.5t65 -86t49.5 -127t21.5 -171.5q0 -83 -21 -157.5t-48.5 -121.5t-63.5 -87t-56.5 -56t-36.5 -26q-5 -3 -7 1l-9 15l-1 4q147 103 147 428z" />
    <glyph glyph-name="asterisk" unicode="*" horiz-adv-x="325" 
d="M32 608q-14 7 -14 21q0 12 9 23t21 11q15 0 91 -73q-15 84 -15 101q0 13 8.5 20.5t20.5 7.5q13 0 22 -7.5t9 -20.5q0 -14 -18 -102q74 67 86 72q4 2 7 2q13 0 21.5 -11t8.5 -23q0 -8 -6.5 -14.5t-24 -15t-33 -14.5t-49.5 -19q91 -39 103 -48q11 -8 11 -18q0 -13 -9.5 -23
t-21.5 -10q-16 0 -93 77q18 -88 18 -105q0 -13 -9 -20.5t-22 -7.5q-12 0 -20.5 7.5t-8.5 20.5q0 14 16 103q-77 -75 -91 -75q-12 0 -21.5 10t-9.5 23q0 20 97 59q10 5 16 7q-85 32 -99 42z" />
    <glyph glyph-name="plus" unicode="+" horiz-adv-x="513" 
d="M220 296v215q0 5 5 5h32q5 0 5 -5v-215h196q5 0 5 -5v-37q0 -5 -5 -5h-196v-214q0 -5 -5 -5h-32q-5 0 -5 5v214h-197q-5 0 -5 5v37q0 5 5 5h197z" />
    <glyph glyph-name="comma" unicode="," horiz-adv-x="166" 
d="M33 -93q-3 4 1 7q37 34 35 74h-8q-20 1 -33.5 16t-13.5 38q0 24 17.5 38.5t37.5 14.5q22 0 38 -14.5t16 -42.5q0 -43 -17 -77t-31.5 -45.5t-28.5 -19.5q-5 -2 -7 2z" />
    <glyph glyph-name="hyphen" unicode="-" horiz-adv-x="419" 
d="M345 296q5 0 5 -5v-36q0 -5 -5 -5h-311q-5 0 -5 5v36q0 5 5 5h311z" />
    <glyph glyph-name="period" unicode="." horiz-adv-x="191" 
d="M9 42q0 22 15.5 38t38.5 16t38.5 -16t15.5 -38t-15.5 -38t-38.5 -16t-38.5 16t-15.5 38z" />
    <glyph glyph-name="slash" unicode="/" horiz-adv-x="397" 
d="M298 748q1 4 5 4h49q6 0 4 -6l-272 -794q-1 -4 -5 -4h-50q-5 0 -4 6z" />
    <glyph glyph-name="zero" unicode="0" horiz-adv-x="659" 
d="M37 349q0 362 250 362q251 0 251 -362q0 -361 -251 -361q-57 0 -101 20t-72 53t-45.5 80t-24.5 98t-7 110zM138 349v-10q0 -34 0.5 -54t3 -57.5t8 -61t16.5 -53.5t26 -47.5t39.5 -30t55.5 -12.5t55 13t39.5 32t26.5 50.5t16 56.5t8 63t3.5 58.5t0.5 52.5t-0.5 52.5
t-3.5 58.5t-8 63.5t-16 57t-26.5 50.5t-39.5 32t-55 13t-55.5 -12.5t-39.5 -30.5t-26 -48.5t-16.5 -54t-8 -61.5t-3 -57t-0.5 -52v-11z" />
    <glyph glyph-name="one" unicode="1" horiz-adv-x="292" 
d="M4 660q0 4 4 5l120 31q2 1 6 1h40q5 0 5 -5v-649l72 -6q5 0 5 -5v-27q0 -5 -5 -5h-236q-5 0 -5 5v27q0 5 5 5l71 5v583h-77q-5 0 -5 5v30z" />
    <glyph glyph-name="two" unicode="2" horiz-adv-x="500" 
d="M431 133q5 0 5 -5v-123q0 -5 -5 -5h-422q-5 0 -5 5v65q0 4 3 6q80 67 226 229q103 115 103 226q0 66 -35 104t-97 38q-48 0 -86 -43t-51 -102q-1 -4 -6 -4h-45q-5 0 -5 5v98q0 3 2 7q77 78 207 78q91 0 153 -40t62 -131q0 -80 -108.5 -211.5t-246.5 -251.5h310l6 50
q2 5 6 5h29z" />
    <glyph glyph-name="three" unicode="3" horiz-adv-x="494" 
d="M181 354q0 4 5 6q65 13 107.5 56.5t42.5 114.5q0 61 -35 102t-93 41q-49 0 -90 -42.5t-51 -102.5q-2 -5 -6 -5h-45q-5 0 -5 5v99q0 3 2 7q64 76 202 76q210 0 210 -167q0 -84 -102 -164h1q59 -29 94.5 -82t35.5 -111q0 -65 -36 -111.5t-87 -67t-110 -20.5q-100 0 -162 38
l-46 27q-3 1 -3 6v112q0 5 5 5h47q4 0 6 -5q12 -78 50.5 -111t113.5 -33q53 0 83.5 40t30.5 98q0 70 -47.5 111t-111.5 48q-5 0 -5 5z" />
    <glyph glyph-name="four" unicode="4" horiz-adv-x="480" 
d="M9 240q0 2 2 6l309 451q2 3 6 3h44q5 0 5 -5v-439h69q5 0 5 -5v-50q0 -5 -5 -5h-69v-153l72 -6q5 0 5 -5v-27q0 -5 -5 -5h-232q-5 0 -5 5v27q0 5 5 5l71 5v154h-272q-5 0 -5 5v39zM287 555l-207 -299h207v299z" />
    <glyph glyph-name="five" unicode="5" horiz-adv-x="536" 
d="M64 176q4 0 6 -5q13 -79 55 -111.5t117 -32.5q56 0 90 45.5t34 105.5q0 86 -41.5 136t-118.5 50q-82 0 -116 -32q-3 -3 -7 -2q-28 9 -37 12q-5 2 -5 5q13 172 29 348q0 5 5 5h356q5 0 5 -5v-153q0 -5 -5 -5h-33q-5 0 -5 5l-7 80h-270l-19 -234q35 32 87.5 45.5t98.5 8.5
q86 -9 136.5 -69t50.5 -155q0 -108 -66.5 -169t-168.5 -61q-77 0 -127 16t-95 58q-3 3 -3 7v102q0 5 5 5h49z" />
    <glyph glyph-name="six" unicode="6" horiz-adv-x="539" 
d="M284 667q61 28 121 37q4 1 6 -4l6 -23q1 -4 -4 -6q-111 -33 -182.5 -95.5t-106.5 -184.5q19 18 68 37t95 18q90 -2 141.5 -53.5t51.5 -146.5q0 -114 -71 -186t-176 -72q-224 0 -224 290q0 138 75 236.5t200 152.5zM258 406q-35 1 -77 -19t-65 -48q-4 -43 -4 -103
q0 -214 121 -214q75 0 102 47t27 167q0 28 -1.5 47.5t-7.5 44t-16.5 39.5t-30.5 26.5t-48 12.5z" />
    <glyph glyph-name="seven" unicode="7" horiz-adv-x="432" 
d="M14 537q-5 0 -5 5v153q0 5 5 5h393q5 0 5 -5v-46q0 -3 -2 -7q-31 -35 -55 -76q-139 -223 -246 -562q-1 -4 -5 -4h-45q-5 0 -4 6q112 366 270 616h-266l-6 -80q0 -5 -5 -5h-34z" />
    <glyph glyph-name="eight" unicode="8" horiz-adv-x="529" 
d="M117 330q15 9 24 12l-25 10q-102 54 -102 159q0 98 69 149.5t166 51.5q78 0 133.5 -47.5t55.5 -130.5q0 -78 -105 -152q72 -31 108.5 -87t36.5 -109q0 -97 -66 -147.5t-171 -50.5q-92 0 -159.5 40.5t-67.5 123.5q0 122 103 178zM237 677q-58 0 -95 -32.5t-37 -93.5
q0 -58 51.5 -100t112.5 -52q53 30 83 63.5t30 81.5q0 66 -40.5 99.5t-104.5 33.5zM358 161q-4 36 -38 70.5t-65.5 52t-63.5 30.5q-112 -54 -112 -167q0 -62 44.5 -94t102.5 -32q55 0 93.5 34t38.5 93v13z" />
    <glyph glyph-name="nine" unicode="9" horiz-adv-x="542" 
d="M198 39q-61 -28 -121 -37q-4 -1 -6 4l-6 23q-1 4 4 6q111 33 182.5 95.5t106.5 184.5q-16 -23 -65 -41t-98 -14q-89 7 -141 65.5t-52 154.5q0 112 70 175t177 63q237 0 224 -270q-7 -142 -81 -250t-194 -159zM224 300q35 -4 77 14t65 46q4 43 4 110q0 214 -121 214
q-70 0 -99.5 -44t-29.5 -160q0 -36 3 -60.5t12.5 -53.5t31.5 -45.5t57 -20.5z" />
    <glyph glyph-name="colon" unicode=":" horiz-adv-x="181" 
d="M9 462q0 22 15.5 38t38.5 16t38.5 -16t15.5 -38t-15.5 -38t-38.5 -16t-38.5 16t-15.5 38zM9 42q0 22 15.5 38t38.5 16t38.5 -16t15.5 -38t-15.5 -38t-38.5 -16t-38.5 16t-15.5 38z" />
    <glyph glyph-name="semicolon" unicode=";" horiz-adv-x="181" 
d="M9 462q0 22 15.5 38t38.5 16t38.5 -16t15.5 -38t-15.5 -38t-38.5 -16t-38.5 16t-15.5 38zM33 -93q-3 4 1 7q37 34 35 74h-8q-20 1 -33.5 16t-13.5 38q0 24 17.5 38.5t37.5 14.5q22 0 38 -14.5t16 -42.5q0 -43 -17 -77t-31.5 -45.5t-28.5 -19.5q-5 -2 -7 2z" />
    <glyph glyph-name="less" unicode="&#x3c;" horiz-adv-x="332" 
d="M251 490q6 6 6 -2v-58q0 -4 -3 -6l-170 -156l170 -157q3 -1 3 -6v-58q0 -7 -6 -3q-9 9 -36.5 36t-73.5 70.5t-113 105.5q-3 3 -3 7v12q0 5 3 6z" />
    <glyph glyph-name="equal" unicode="=" horiz-adv-x="427" 
d="M345 441q5 0 5 -5v-36q0 -5 -5 -5h-311q-5 0 -5 5v36q0 5 5 5h311zM345 150q5 0 5 -5v-36q0 -5 -5 -5h-311q-5 0 -5 5v36q0 5 5 5h311z" />
    <glyph glyph-name="greater" unicode="&#x3e;" horiz-adv-x="332" 
d="M271 281q3 -1 3 -6v-12q0 -4 -3 -7q-67 -62 -113 -105.5t-73.5 -70.5t-36.5 -36q-6 -4 -6 3v58q0 5 3 6l170 157l-170 156q-3 2 -3 6v58q0 8 6 2z" />
    <glyph glyph-name="question" unicode="?" horiz-adv-x="488" 
d="M197 201q-5 0 -5 5q3 45 16.5 83.5t31 66.5t34.5 54.5t28.5 60t11.5 72.5q0 130 -102 130q-50 0 -91.5 -43.5t-53.5 -101.5q-1 -4 -6 -4h-32q-5 0 -5 5v98q0 3 2 7q74 78 200 78q81 0 141 -42.5t60 -126.5q0 -38 -18.5 -74t-46 -66t-56 -59t-52 -65t-29.5 -73
q-2 -5 -6 -5h-22zM154 41q0 23 15.5 38.5t37.5 15.5q23 0 38.5 -15.5t15.5 -38.5q0 -22 -15.5 -37.5t-38.5 -15.5t-38 15t-15 38z" />
    <glyph glyph-name="at" unicode="@" horiz-adv-x="775" 
d="M680 81q3 -4 -1 -7q-130 -85 -299 -85q-71 0 -134.5 18.5t-117.5 55.5t-86 102t-32 149q0 87 26 156.5t67.5 112.5t96.5 72.5t109 41.5t110 13q158 0 248.5 -74t90.5 -222q0 -55 -23 -111.5t-74 -99t-119 -42.5q-25 0 -45.5 17.5t-21.5 41.5q-69 -64 -138 -64
q-61 0 -101.5 37.5t-40.5 104.5q0 63 19.5 111t50.5 73.5t62.5 38t60.5 12.5q51 0 79 -18t36 -42l6 39q2 5 6 5h59q6 0 4 -5l-43 -270q-1 -4 -1 -13q0 -21 5.5 -28.5t21.5 -7.5q36 0 61.5 21.5t38 58t17.5 73t5 76.5q0 125 -64 191t-186 66q-150 0 -240.5 -101.5
t-90.5 -275.5q0 -71 23 -126.5t62 -88.5t88 -50t104 -17q79 0 156 22t126 55q4 3 7 -1zM359 184q26 1 53 17t41 31l14 16l31 197q-16 20 -25.5 30.5t-26 20t-34.5 9.5q-56 0 -90 -56t-34 -151q0 -114 71 -114z" />
    <glyph glyph-name="A" unicode="A" horiz-adv-x="714" 
d="M222 695q0 5 5 5h138q4 0 5 -4l228 -654l57 -5q5 0 5 -5v-27q0 -5 -5 -5h-230q-5 0 -5 5v27q0 5 5 5l63 5l-67 197h-216l-66 -194l66 -7q5 0 5 -5v-28q0 -5 -5 -5h-191q-5 0 -5 5v28q0 5 5 5l72 7l210 610l-69 7q-5 2 -5 6v27zM220 287h186l-91 281z" />
    <glyph glyph-name="B" unicode="B" horiz-adv-x="637" 
d="M0 695q0 5 5 5h295q100 0 161.5 -44t61.5 -129q0 -47 -29.5 -95.5t-71.5 -58.5q54 -14 95 -67t41 -111q0 -90 -53 -142.5t-140 -52.5h-360q-5 0 -5 5v27q0 5 5 5l74 6v614l-74 6q-5 0 -5 5v27zM432 535q0 53 -33.5 87t-99.5 34h-122v-270h149q43 0 68.5 28t31.5 57.5
t6 63.5zM458 190q0 23 -3.5 44.5t-14 47.5t-35 41.5t-60.5 15.5h-168v-295h150q68 0 99.5 44t31.5 102z" />
    <glyph glyph-name="C" unicode="C" horiz-adv-x="632" 
d="M517 534q-4 0 -6 5q-10 54 -57.5 89.5t-109.5 37.5q-221 5 -221 -317q0 -67 9.5 -119t33 -97.5t68.5 -70.5t110 -25q129 0 194 75q3 5 7 1l30 -27q3 -4 0 -7q-90 -91 -231 -91q-154 0 -246 97t-92 264q0 169 89.5 268.5t241.5 93.5q60 -2 103.5 -12t57.5 -19l13 -8l9 24
q3 4 6 4h32q5 0 5 -5v-156q0 -5 -5 -5h-41z" />
    <glyph glyph-name="D" unicode="D" horiz-adv-x="712" 
d="M0 33q0 5 5 5l75 5v614l-75 6q-5 0 -5 5v27q0 5 5 5h264q155 0 251 -92t96 -257q0 -167 -96.5 -259t-251.5 -92h-263q-5 0 -5 5v28zM492 351q0 305 -214 305h-100v-612h90q64 0 109.5 23.5t69.5 67.5t34.5 96.5t10.5 119.5z" />
    <glyph glyph-name="E" unicode="E" horiz-adv-x="611" 
d="M0 33q0 5 5 5l75 5v614l-75 6q-5 0 -5 5v27q0 5 5 5h492q5 0 5 -5v-118q0 -5 -5 -5h-33q-4 0 -6 5l-10 79h-271v-270h209l8 61q2 5 6 5h29q5 0 5 -5v-174q0 -5 -5 -5h-27q-5 0 -6 5l-12 66h-207v-295h271l12 79q2 5 6 5h31q5 0 5 -5v-118q0 -5 -5 -5h-492q-5 0 -5 5v28z
" />
    <glyph glyph-name="F" unicode="F" horiz-adv-x="587" 
d="M0 695q0 5 5 5h492q5 0 5 -5v-118q0 -5 -5 -5h-33q-4 0 -6 5l-10 79h-271v-270h208l8 61q2 5 6 5h30q5 0 5 -5v-174q0 -5 -5 -5h-27q-5 0 -6 4l-13 67h-206v-296l77 -6q5 0 5 -5v-27q0 -5 -5 -5h-249q-5 0 -5 5v28q0 5 5 5l75 5v614l-75 6q-5 0 -5 5v27z" />
    <glyph glyph-name="G" unicode="G" horiz-adv-x="687" 
d="M518 534q-4 0 -6 5q-10 51 -56 88t-104 39q-52 2 -92 -14.5t-65 -45.5t-41 -71t-22.5 -87.5t-6.5 -98.5q0 -65 12 -120t38 -100t71 -70.5t105 -25.5q87 0 148 45l-22 154l-85 7q-5 0 -5 5v38q0 5 5 5h171q5 0 5 -5v-228q0 -4 -3 -6q-86 -60 -214 -60q-154 0 -248 96.5
t-94 264.5q0 170 91 269.5t243 92.5q55 -3 97.5 -12t57.5 -17l14 -8l10 22q1 4 6 4h32q5 0 5 -5v-156q0 -5 -5 -5h-42z" />
    <glyph glyph-name="H" unicode="H" horiz-adv-x="780" 
d="M0 695q0 5 5 5h249q5 0 5 -5v-27q0 -5 -5 -5l-77 -7v-270h346v271l-74 6q-5 0 -5 5v27q0 5 5 5h249q5 0 5 -5v-27q0 -5 -5 -5l-77 -7v-613l77 -5q5 0 5 -5v-28q0 -5 -5 -5h-249q-5 0 -5 5v28q0 5 5 5l74 5v296h-346v-296l77 -5q5 0 5 -5v-28q0 -5 -5 -5h-249q-5 0 -5 5
v28q0 5 5 5l74 5v614l-74 6q-5 0 -5 5v27z" />
    <glyph glyph-name="I" unicode="I" horiz-adv-x="354" 
d="M1 695q0 5 5 5h252q5 0 5 -5v-27q0 -5 -5 -5l-78 -7v-613l78 -5q5 0 5 -5v-28q0 -5 -5 -5h-252q-5 0 -5 5v28q0 5 5 5l76 5v614l-76 6q-5 0 -5 5v27z" />
    <glyph glyph-name="J" unicode="J" horiz-adv-x="589" 
d="M261 695q0 5 5 5h248q5 0 5 -5v-27q0 -5 -5 -5l-72 -7v-473q0 -111 -61 -153t-176 -42q-131 0 -189 60q-2 4 -2 7v116q0 5 5 5h88q7 0 5 -5l-19 -107q8 -14 40 -27.5t72 -13.5q66 0 103 45t37 112v477l-79 6q-5 0 -5 5v27z" />
    <glyph glyph-name="K" unicode="K" horiz-adv-x="706" 
d="M366 33q0 4 5 6l69 9l-227 267l-36 -39v-232l78 -6q5 0 5 -5v-28q0 -5 -5 -5h-250q-5 0 -5 5v28q0 5 5 5l75 6v613l-75 6q-5 0 -5 5v27q0 5 5 5h250q5 0 5 -5v-27q0 -5 -5 -5l-78 -7v-315l294 312l-61 10q-5 2 -5 6v26q0 5 5 5h182q5 0 5 -5v-27q0 -4 -5 -6l-60 -10
l-257 -275l279 -329l79 -8q5 0 5 -5v-30q0 -5 -5 -5h-262q-5 0 -5 5v28z" />
    <glyph glyph-name="L" unicode="L" horiz-adv-x="579" 
d="M0 695q0 5 5 5h168q5 0 5 -5v-651h253l11 79q2 5 6 5h30q5 0 5 -5v-118q0 -5 -5 -5h-473q-5 0 -5 5v28q0 5 5 5l75 5v614l-75 6q-5 0 -5 5v27z" />
    <glyph glyph-name="M" unicode="M" horiz-adv-x="880" 
d="M805 5q0 -5 -5 -5h-228q-5 0 -5 5v28q0 5 5 5l62 4v598l-216 -636q-1 -4 -5 -4h-58q-4 0 -5 4l-223 631v-589l67 -7q5 -2 5 -6v-28q0 -5 -5 -5h-189q-5 0 -5 5v28q0 4 5 6l78 8v610l-78 6q-5 0 -5 5v27q0 5 5 5h212q4 0 5 -4l191 -568l195 568q1 4 5 4h188q5 0 5 -5v-27
q0 -5 -5 -5l-70 -7v-614q51 -4 69 -4q5 0 5 -5v-28z" />
    <glyph glyph-name="N" unicode="N" horiz-adv-x="711" 
d="M1 33q0 5 5 5l80 9v610l-80 6q-5 0 -5 5v27q0 5 5 5h205q5 0 6 -3l320 -489v448l-67 7q-5 0 -5 5v27q0 5 5 5h178q5 0 5 -5v-27q0 -5 -5 -5l-67 -7v-651q0 -5 -5 -5h-30q-4 0 -6 3l-410 649v-606l74 -8q5 0 5 -5v-28q0 -5 -5 -5h-198q-5 0 -5 5v28z" />
    <glyph glyph-name="O" unicode="O" horiz-adv-x="769" 
d="M7 349q0 168 91 265t245 97q153 0 245 -97t92 -265q0 -167 -91.5 -264t-245.5 -97t-245 96.5t-91 264.5zM128 349q0 -68 8.5 -120t31 -99t66.5 -72.5t109 -25.5t109.5 25.5t66.5 72.5t31 99t9 120q0 54 -5 97t-19.5 85.5t-37.5 71.5t-62.5 46.5t-91.5 17.5
q-65 0 -109 -25.5t-66.5 -73t-31 -99.5t-8.5 -120z" />
    <glyph glyph-name="P" unicode="P" horiz-adv-x="645" 
d="M0 695q0 5 5 5h356q81 0 140.5 -50.5t59.5 -135.5q0 -101 -63.5 -159t-158.5 -58h-162v-254l79 -6q5 0 5 -5v-27q0 -5 -5 -5h-251q-5 0 -5 5v27q0 5 5 5l74 6v614l-74 6q-5 0 -5 5v27zM470 514q0 25 -5 47t-17.5 45t-38 36.5t-62.5 13.5h-170v-312h158q75 0 105 44
t30 126z" />
    <glyph glyph-name="Q" unicode="Q" horiz-adv-x="755" 
d="M7 349q0 168 91 265t245 97q153 0 245 -97t92 -265q0 -135 -77 -241.5t-188 -115.5l-3 -3l186 -64l8 60q2 5 6 5h42q5 0 5 -5v-130q0 -5 -6 -4q-289 101 -426 154q-106 40 -163 129.5t-57 214.5zM128 349q0 -68 8.5 -119.5t31 -98.5t66.5 -72.5t109 -25.5q52 0 91.5 17.5
t62.5 46t37.5 70.5t19.5 85t5 97q0 68 -9 120t-31 99t-66.5 72.5t-109.5 25.5t-109 -25.5t-66.5 -72.5t-31 -99t-8.5 -120z" />
    <glyph glyph-name="R" unicode="R" horiz-adv-x="679" 
d="M-1 695q0 5 5 5h357q83 0 141 -48.5t58 -133.5q0 -81 -45 -143.5t-124 -73.5l185 -261l57 -3q5 0 5 -5v-27q0 -5 -5 -5h-137q-4 0 -6 3l-201 294h-113v-254l77 -6q5 0 5 -5v-27q0 -5 -5 -5h-249q-5 0 -5 5v27q0 5 5 5l75 6v614l-75 6q-5 0 -5 5v27zM469 514
q0 51 -26.5 96.5t-75.5 45.5h-191v-312h158q75 0 105 44t30 126z" />
    <glyph glyph-name="S" unicode="S" horiz-adv-x="585" 
d="M434 534q-4 0 -6 5q-9 60 -60.5 95.5t-112.5 33.5q-130 -4 -130 -98q0 -49 39.5 -88t96 -68t113 -60t96 -79.5t39.5 -110.5q0 -50 -23 -87t-60.5 -56t-79 -27.5t-85.5 -6.5q-55 3 -103 14t-68 21l-20 10q-4 3 -7.5 -1.5t-6.5 -14.5t-5 -13q-1 -3 -6 -3h-29q-5 0 -5 5v156
q0 5 5 5h41q4 0 5 -4q18 -54 74 -88.5t127 -37.5q136 -5 136 93q0 47 -37.5 86t-90.5 68.5t-106 61t-90.5 78t-37.5 105.5q0 90 62.5 137t151.5 46q57 0 101.5 -9.5t60.5 -19.5l16 -9q2 -1 3.5 2.5t3 10.5t2.5 10q1 4 6 4h32q5 0 5 -5v-156q0 -5 -5 -5h-42z" />
    <glyph glyph-name="T" unicode="T" horiz-adv-x="635" 
d="M13 572q-5 0 -5 5v118q0 5 5 5h558q5 0 5 -5v-118q0 -5 -5 -5h-33q-4 0 -6 5l-10 79h-182v-613l77 -5q5 0 5 -5v-28q0 -5 -5 -5h-250q-5 0 -5 5v28q0 5 5 5l75 5v613h-180l-11 -79q-2 -5 -6 -5h-32z" />
    <glyph glyph-name="U" unicode="U" horiz-adv-x="708" 
d="M573 202q0 -113 -64.5 -166t-172.5 -53q-55 0 -96.5 8t-78.5 28.5t-56.5 61.5t-19.5 102v473l-76 7q-5 0 -5 5v27q0 5 5 5h251q5 0 5 -5v-27q0 -5 -5 -5l-78 -6v-477q0 -74 42 -114.5t112 -40.5q93 0 141.5 40t48.5 137v453l-72 8q-5 2 -5 6v26q0 5 5 5h191q5 0 5 -5v-27
q0 -5 -5 -5l-72 -8v-453z" />
    <glyph glyph-name="V" unicode="V" horiz-adv-x="703" 
d="M644 668q0 -4 -5 -6l-64 -7l-226 -651q-1 -4 -5 -4h-50q-4 0 -5 4l-227 654l-63 4q-5 0 -5 5v28q0 5 5 5h234q5 0 5 -5v-27q0 -5 -5 -5l-68 -4l180 -513l180 509l-69 7q-5 2 -5 6v27q0 5 5 5h183q5 0 5 -5v-27z" />
    <glyph glyph-name="W" unicode="W" horiz-adv-x="1002" 
d="M246 668q0 -5 -5 -5l-68 -7l134 -482l174 522q1 4 5 4h43q4 0 5 -4l155 -514l144 471l-63 9q-5 2 -5 6v27q0 5 5 5h179q5 0 5 -5v-27q0 -4 -5 -6l-65 -9l-198 -649q-1 -4 -5 -4h-49q-4 0 -5 4l-151 521l-169 -521q-1 -4 -5 -4h-39q-4 0 -5 4l-189 652l-64 7q-5 0 -5 5v27
q0 5 5 5h236q5 0 5 -5v-27z" />
    <glyph glyph-name="X" unicode="X" horiz-adv-x="716" 
d="M635 668q0 -4 -5 -6l-70 -9l-198 -288l215 -321l68 -6q5 0 5 -5v-28q0 -5 -5 -5h-241q-5 0 -5 5v28q0 5 5 5l60 5l-156 243l-169 -240l56 -7q5 -2 5 -6v-28q0 -5 -5 -5h-188q-5 0 -5 5v28q0 4 5 6l72 8l199 281l-218 328l-62 7q-5 0 -5 5v27q0 5 5 5h239q5 0 5 -5v-27
q0 -5 -5 -5l-66 -7l164 -250l170 248l-62 8q-5 2 -5 6v27q0 5 5 5h187q5 0 5 -5v-27z" />
    <glyph glyph-name="Y" unicode="Y" horiz-adv-x="741" 
d="M199 33q0 5 5 5l72 5v260l-206 353l-64 7q-5 0 -5 5v27q0 5 5 5h230q5 0 5 -5v-27q0 -5 -5 -5l-64 -7l180 -301l177 300l-69 7q-5 2 -5 6v27q0 5 5 5h178q5 0 5 -5v-27q0 -4 -5 -6l-60 -8l-206 -351v-260l72 -5q5 0 5 -5v-28q0 -5 -5 -5h-240q-5 0 -5 5v28z" />
    <glyph glyph-name="Z" unicode="Z" horiz-adv-x="605" 
d="M35 572q-5 0 -5 5v118q0 5 5 5h474q5 0 5 -5v-37q0 -2 -2 -6l-386 -608h358l10 79q2 5 6 5h27q5 0 5 -5v-118q0 -5 -5 -5h-508q-5 0 -5 5v37q0 2 2 6l386 608h-323l-9 -79q-2 -5 -6 -5h-29z" />
    <glyph glyph-name="bracketleft" unicode="[" horiz-adv-x="233" 
d="M17 747q0 5 5 5h138q5 0 5 -5v-28q0 -5 -5 -5h-87v-845h86q5 0 4 -6l-7 -27q-1 -4 -5 -4h-129q-5 0 -5 5v910z" />
    <glyph glyph-name="backslash" unicode="\" horiz-adv-x="397" 
d="M303 -52q-3 0 -6 4q-196 560 -273 794q-2 6 4 6h51q4 0 5 -4l273 -794q1 -6 -4 -6h-50z" />
    <glyph glyph-name="bracketright" unicode="]" horiz-adv-x="226" 
d="M155 -163q0 -5 -5 -5h-138q-5 0 -5 5v27q0 5 5 5h88v845h-88q-5 0 -5 5v28q0 5 5 5h138q5 0 5 -5v-910z" />
    <glyph glyph-name="asciicircum" unicode="^" horiz-adv-x="456" 
d="M366 474q4 -6 -3 -6h-36q-5 0 -6 3l-109 190l-110 -190q-2 -3 -6 -3h-36q-7 0 -3 6l134 223q1 3 6 3h32q5 0 6 -3z" />
    <glyph glyph-name="underscore" unicode="_" horiz-adv-x="575" 
d="M522 -86q5 0 5 -5v-21q0 -5 -5 -5h-495q-5 0 -5 5v21q0 5 5 5h495z" />
    <glyph glyph-name="grave" unicode="`" horiz-adv-x="215" 
d="M60 739q24 -14 132 -97q-1 0 -8 -16q-2 -4 -6 -2q-76 30 -148 64q-18 9 -17 27t15 25.5t32 -1.5z" />
    <glyph glyph-name="a" unicode="a" horiz-adv-x="534" 
d="M22 348q-5 0 -5 5v108q0 3 3 6q25 24 73.5 41t108.5 18q94 2 146 -44t52 -154v-284l71 -6q5 0 5 -5v-28q0 -5 -5 -5h-130q-5 0 -6 4l-25 62q-53 -44 -96 -63t-102 -12q-112 13 -112 117q0 35 16 66.5t38 53t59 44t65 35t70 31t61 27.5q-3 128 -107 128q-81 0 -122 -52
l18 -88q2 -5 -5 -5h-71zM142 56q77 -13 167 57v207q-1 -1 -22 -9.5t-27 -11.5t-26.5 -13t-29 -15t-26.5 -16t-26.5 -19.5t-21.5 -21t-19.5 -24t-11.5 -25.5t-6 -29q-4 -70 49 -80z" />
    <glyph glyph-name="b" unicode="b" horiz-adv-x="604" 
d="M152 454q74 82 182 73q100 -9 150.5 -84.5t50.5 -188.5q0 -121 -57 -192.5t-159 -71.5q-46 0 -91 18t-73 53q-3 -5 -29 -57q-1 -4 -6 -4h-55q-5 0 -5 5v712l-73 7q-5 0 -5 5v28q0 5 5 5h160q5 0 5 -5v-303zM290 478q-35 0 -74 -25t-64 -58v-243q21 -51 64.5 -85.5
t95.5 -34.5q39 0 63.5 20.5t34.5 58.5t13 67.5t3 72.5q0 38 -6.5 74.5t-21 72.5t-42.5 58t-66 22z" />
    <glyph glyph-name="c" unicode="c" horiz-adv-x="528" 
d="M453 353q0 -5 -5 -5h-73q-6 0 -4 5l21 89q-36 34 -68 45q-29 9 -65 7q-74 -5 -108.5 -63t-34.5 -153q0 -68 16.5 -121t57 -88.5t102.5 -35.5q33 0 75.5 14t69.5 34q4 2 7 -1q2 -2 8 -9t10 -11t-1 -7q-81 -64 -191 -64q-111 0 -185 76.5t-74 197.5q0 114 73 186.5
t176 76.5q116 5 190 -52q3 -3 3 -6v-115z" />
    <glyph glyph-name="d" unicode="d" horiz-adv-x="607" 
d="M297 757q0 5 5 5h177q5 0 5 -5v-713l77 -6q5 0 5 -5v-28q0 -5 -5 -5h-163q-5 0 -5 5v60q-68 -76 -179 -74q-97 1 -153 76t-56 184q0 112 62 193t164 81q39 0 88 -16t74 -38v246l-91 7q-5 0 -5 5v28zM260 34q39 0 80.5 30.5t52.5 56.5v306q-18 22 -60 41t-75 19
q-37 0 -63.5 -13t-42 -33t-24.5 -51t-12 -60t-3 -67q0 -47 5.5 -83t20 -71.5t45.5 -55t76 -19.5z" />
    <glyph glyph-name="e" unicode="e" horiz-adv-x="559" 
d="M255 526q220 0 222 -265q0 -5 -5 -5h-368q5 -104 47 -163.5t125 -59.5q35 0 78 14t73 33q4 2 7 -1q15 -15 18 -20q2 -5 -1 -7q-80 -63 -193 -63q-112 0 -185 76t-73 197q0 117 73.5 190.5t181.5 73.5zM255 497q-72 0 -110.5 -54t-40.5 -143h278q-1 43 -6.5 75t-18.5 61.5
t-38.5 45t-63.5 15.5z" />
    <glyph glyph-name="f" unicode="f" horiz-adv-x="354" 
d="M-4 518q0 5 5 5h95v52q0 103 71.5 152t175.5 24q4 -1 4 -5v-98q0 -5 -5 -5h-31q-4 0 -5 4l-15 62q-12 8 -30 2t-34.5 -18.5t-28.5 -45.5t-12 -79v-45h130q5 0 5 -5v-27q0 -5 -5 -5h-130v-441l88 -7q5 0 5 -5v-28q0 -5 -5 -5h-263q-5 0 -5 5v28q0 5 5 5l85 6v442h-95
q-5 0 -5 5v27z" />
    <glyph glyph-name="g" unicode="g" horiz-adv-x="583" 
d="M4 -117q-7 62 19 100t76 70q-17 17 -17 43q0 25 13.5 38.5t40.5 27.5q-63 24 -89 67.5t-26 109.5q0 55 20 93t57 57t77 26.5t92 7.5h263q5 0 5 -5v-31q0 -4 -5 -6l-101 -14q23 -18 43.5 -53.5t20.5 -74.5q0 -193 -234 -193q-63 0 -91 7q-33 -19 -29 -40q4 -17 32 -25.5
t87 -14.5q56 -5 101 -15t87 -29.5t63.5 -53t18.5 -78.5q-4 -50 -30 -86.5t-66.5 -55t-82 -27t-85.5 -8.5q-43 0 -81.5 6.5t-79 22.5t-67.5 50.5t-32 83.5zM117 336q0 -71 34.5 -110t103.5 -39q72 0 106 33.5t34 116.5q0 78 -29.5 115.5t-98.5 37.5q-71 0 -110.5 -38
t-39.5 -116zM85 -105q13 -70 56 -100.5t124 -30.5q83 0 135.5 31.5t33.5 92.5q-11 37 -50.5 60.5t-123.5 34.5q-93 11 -143 52q-22 -16 -31 -56.5t-1 -83.5z" />
    <glyph glyph-name="h" unicode="h" horiz-adv-x="611" 
d="M243 5q0 -5 -5 -5h-233q-5 0 -5 5v28q0 5 5 5l76 4v676l-75 6q-5 0 -5 5v28q0 5 5 5h162q5 0 5 -5v-303q19 29 71.5 53t100.5 20q160 -15 160 -191v-293l69 -5q5 0 5 -5v-28q0 -5 -5 -5h-222q-5 0 -5 5v28q0 5 5 5l62 4v274q0 40 -8.5 74t-33.5 60.5t-63 26.5
q-35 0 -75 -23t-60 -54l-1 -357l65 -5q5 0 5 -5v-28z" />
    <glyph glyph-name="i" unicode="i" horiz-adv-x="308" 
d="M68 709q0 23 16 38.5t38 15.5t38 -15.5t16 -38.5t-16 -38.5t-38 -15.5t-38 15.5t-16 38.5zM250 5q0 -5 -5 -5h-246q-5 0 -5 5v28q0 5 5 5l77 5v437l-76 6q-5 0 -5 5v27q0 5 5 5h162q5 0 5 -5v-474l77 -6q5 0 5 -5z" />
    <glyph glyph-name="j" unicode="j" horiz-adv-x="267" 
d="M59 709q0 23 15.5 38.5t38.5 15.5t38.5 -15.5t15.5 -38.5t-15.5 -38.5t-38.5 -15.5t-38.5 15.5t-15.5 38.5zM-79 -224q0 5 5 5h45q99 0 99 157v542l-76 6q-5 0 -5 5v27q0 5 5 5h161q5 0 5 -5v-577q0 -99 -49.5 -148.5t-139.5 -49.5h-45q-5 0 -5 5v28z" />
    <glyph glyph-name="k" unicode="k" horiz-adv-x="615" 
d="M236 5q0 -5 -5 -5h-244q-5 0 -5 5v28q0 5 5 5l76 5v675l-75 6q-5 0 -5 5v28q0 5 5 5h162q5 0 5 -5v-470l217 187l-71 15q-4 1 -4 6v23q0 5 5 5h204q5 0 5 -5v-22q0 -5 -4 -6l-73 -16l-183 -162l250 -267l70 -6q5 0 5 -5v-29q0 -5 -5 -5h-238q-5 0 -5 5v28q0 5 5 5l67 5
l-208 219l-37 -32v-186l76 -6q5 0 5 -5v-28z" />
    <glyph glyph-name="l" unicode="l" horiz-adv-x="289" 
d="M256 5q0 -5 -5 -5h-246q-5 0 -5 5v28q0 5 5 5l77 5v675l-76 6q-5 0 -5 5v28q0 5 5 5h162q5 0 5 -5v-713l78 -6q5 0 5 -5v-28z" />
    <glyph glyph-name="m" unicode="m" horiz-adv-x="932" 
d="M236 5q0 -5 -5 -5h-226q-5 0 -5 5v28q0 5 5 5l73 5v437l-72 6q-5 0 -5 5v27q0 5 5 5h157q5 0 5 -5v-67q18 30 62.5 53t101.5 23q111 0 147 -104q21 43 71.5 73.5t111.5 30.5q74 0 114.5 -44t40.5 -125v-314l73 -6q5 0 5 -5v-28q0 -5 -5 -5h-226q-5 0 -5 5v28q0 5 5 5
l62 5v294q0 139 -104 139q-41 0 -87.5 -42t-46.5 -83v-307l63 -6q5 0 5 -5v-28q0 -5 -5 -5h-216q-5 0 -5 5v28q0 5 5 5l61 5v293q0 70 -22.5 104t-85.5 34q-34 0 -66.5 -23.5t-53.5 -58.5v-348l63 -6q5 0 5 -5v-28z" />
    <glyph glyph-name="n" unicode="n" horiz-adv-x="597" 
d="M237 5q0 -5 -5 -5h-226q-5 0 -5 5v28q0 5 5 5l71 5v437l-70 6q-5 0 -5 5v27q0 5 5 5h157q5 0 5 -5v-68q20 33 68 55t100 22q74 0 114.5 -44t40.5 -125v-314l72 -6q5 0 5 -5v-28q0 -5 -5 -5h-225q-5 0 -5 5v28q0 5 5 5l62 5v293q0 72 -24 108.5t-89 30.5
q-35 -3 -69.5 -29.5t-49.5 -53.5v-348l63 -6q5 0 5 -5v-28z" />
    <glyph glyph-name="o" unicode="o" horiz-adv-x="603" 
d="M10 259q0 116 66.5 191.5t186.5 75.5q116 0 185 -70t69 -197q0 -124 -70 -197.5t-184 -73.5q-119 0 -186 78.5t-67 192.5zM119 259q0 -42 1.5 -69.5t9.5 -62.5t23 -55t42.5 -34.5t67.5 -14.5q37 0 64.5 14.5t43 36t24.5 55t11.5 63t2.5 67.5q0 236 -146 236
q-144 0 -144 -236z" />
    <glyph glyph-name="p" unicode="p" horiz-adv-x="603" 
d="M246 -250q0 -5 -5 -5h-237q-5 0 -5 5v28q0 5 5 5l75 6v691l-75 6q-5 0 -5 5v27q0 5 5 5h161q5 0 5 -5v-61q25 29 72 50.5t100 19.5q92 -4 140.5 -80.5t48.5 -183.5q0 -119 -51.5 -196t-155.5 -77q-42 0 -87 16.5t-67 43.5v-261q67 -6 71 -6q5 0 5 -5v-28zM295 474
q-32 0 -68 -23.5t-57 -49.5v-277q53 -97 147 -97q38 0 62.5 21t34.5 60t12.5 68.5t2.5 73.5q0 38 -6.5 74t-20.5 71.5t-41.5 57t-65.5 21.5z" />
    <glyph glyph-name="q" unicode="q" horiz-adv-x="569" 
d="M294 -222q0 5 5 5l71 7v266q-48 -63 -155 -66q-53 -2 -94 18.5t-65 58.5t-36.5 86t-12.5 105q0 107 53 184.5t153 84.5q58 4 101 -19t59 -48l22 59q3 4 6 4h53q5 0 5 -5v-729l72 -6q5 0 5 -5v-28q0 -5 -5 -5h-232q-5 0 -5 5v28zM99 251q0 -47 7.5 -85t24.5 -70.5
t49.5 -49t78.5 -11.5q34 3 67.5 28t43.5 45v286q-18 42 -56.5 70t-81.5 25q-38 -2 -66 -25.5t-41.5 -59t-19.5 -70.5t-6 -71v-12z" />
    <glyph glyph-name="r" unicode="r" horiz-adv-x="400" 
d="M349 453q-2 -6 -7 -3q-45 28 -94.5 12t-70.5 -63l-1 -356l80 -4q5 0 5 -5v-29q0 -5 -5 -5h-248q-5 0 -5 5v28q0 5 5 5l78 4v438l-77 5q-5 0 -5 5v28q0 5 5 5h162q5 0 5 -5v-65q25 38 64 58t71.5 17.5t59.5 -13.5q4 -1 2 -6z" />
    <glyph glyph-name="s" unicode="s" horiz-adv-x="453" 
d="M343 379q-4 0 -5 4q-32 109 -135 109q-33 0 -68.5 -18t-35.5 -55q0 -22 17 -42.5t34.5 -31.5t45.5 -25q50 -26 80 -43.5t62 -42t47.5 -49t16.5 -52.5q3 -77 -49.5 -110.5t-133.5 -33.5q-39 0 -78.5 8.5t-60.5 17.5l-20 9q-2 1 -3.5 -2.5t-2.5 -9.5t-2 -8q-1 -4 -5 -4h-29
q-5 0 -5 5v138q0 5 5 5h27q5 0 6 -4q13 -50 63 -81t100 -32q92 -2 92 65q0 29 -35.5 57t-115.5 75q-32 19 -47.5 29t-39 30t-33.5 43.5t-10 52.5q0 72 49.5 107t121.5 35q65 0 128 -21q6 -2 6 4l1 10q0 5 6 5h33q5 0 5 -5v-134q0 -5 -5 -5h-27z" />
    <glyph glyph-name="t" unicode="t" horiz-adv-x="357" 
d="M-19 518q0 5 5 5h95v137q0 5 5 5h80q5 0 5 -5v-137h127q5 0 5 -5v-27q0 -5 -5 -5h-127v-334q0 -116 48 -116q33 0 58 27q3 3 6 0q7 -7 12 -13q3 -4 0 -8q-42 -50 -109 -50q-52 0 -78.5 31.5t-26.5 90.5v372h-95q-5 0 -5 5v27z" />
    <glyph glyph-name="u" unicode="u" horiz-adv-x="594" 
d="M323 518q0 5 5 5h161q5 0 5 -5v-476l62 -5q5 0 5 -5v-27q0 -5 -5 -5h-148q-5 0 -5 5v70q-77 -86 -168 -86q-74 0 -114.5 42.5t-40.5 124.5v324l-76 7q-5 0 -5 5v26q0 5 5 5h162q5 0 5 -5v-339q0 -73 23.5 -109.5t86.5 -30.5q33 3 67.5 28t54.5 55v358l-75 7q-5 0 -5 5v26
z" />
    <glyph glyph-name="v" unicode="v" horiz-adv-x="605" 
d="M238 491q0 -4 -5 -6l-61 -9l146 -380l157 378l-75 10q-5 2 -5 6v28q0 5 5 5h184q5 0 5 -5v-28q0 -4 -5 -6l-69 -10l-194 -470q-1 -4 -6 -4h-44q-3 0 -6 4l-188 474l-64 8q-5 2 -5 6v26q0 5 5 5h220q5 0 5 -5v-27z" />
    <glyph glyph-name="w" unicode="w" horiz-adv-x="861" 
d="M832 490q0 -4 -5 -6l-81 -12l-146 -468q-1 -4 -5 -4h-43q-4 0 -5 4l-127 447l-154 -447q-1 -4 -5 -4h-43q-4 0 -5 4l-137 476l-67 7q-5 2 -5 6v25q0 5 5 5h226q5 0 5 -5v-28q0 -5 -5 -5l-73 -6l99 -355l139 395q1 4 5 4h76q4 0 5 -4l109 -395l113 351l-68 9q-5 2 -5 6v28
q0 5 5 5h187q5 0 5 -5v-28z" />
    <glyph glyph-name="x" unicode="x" horiz-adv-x="635" 
d="M579 493q0 -5 -4 -6l-77 -15l-162 -196l186 -228l73 -12q5 -2 5 -6v-25q0 -5 -5 -5h-245q-5 0 -5 5v25q0 4 5 6l64 11l-132 166l-145 -166l60 -10q5 -2 5 -6v-26q0 -5 -5 -5h-187q-5 0 -5 5v26q0 4 5 6l73 11l177 196l-187 231l-68 12q-5 2 -5 6v25q0 5 5 5h233q5 0 5 -5
v-25q0 -4 -5 -6l-61 -11l136 -174l142 170l-64 15q-4 1 -4 5v26q0 5 5 5h182q5 0 5 -5v-25z" />
    <glyph glyph-name="y" unicode="y" horiz-adv-x="623" 
d="M108 -218q41 0 77.5 45t59.5 104l23 57l-195 491l-64 7q-5 0 -5 5v27q0 5 5 5h225q5 0 5 -5v-27q0 -4 -5 -6l-65 -10l153 -358l143 355l-73 13q-5 2 -5 6v27q0 5 5 5h201q5 0 5 -5v-27q0 -5 -4 -6l-75 -15l-236 -574q-29 -65 -74 -109t-101 -44h-63q-5 0 -5 5v29q0 5 5 5
h63z" />
    <glyph glyph-name="z" unicode="z" horiz-adv-x="518" 
d="M34 374q-5 0 -5 5v140q0 5 5 5h379q5 0 5 -5v-35q0 -2 -2 -6l-308 -433h264l12 98q2 5 6 5h39q5 0 5 -5v-138q0 -5 -5 -5h-415q-5 0 -5 5v36q0 2 2 6l306 433h-229l-10 -101q0 -5 -5 -5h-39z" />
    <glyph glyph-name="braceleft" unicode="{" horiz-adv-x="284" 
d="M114 163q0 -17 -4 -55t-4 -61q0 -54 13.5 -93t35 -57t38.5 -25.5t33 -9.5q5 0 5 -5v-17q0 -5 -5 -5q-16 2 -32.5 6t-46.5 18t-52.5 35t-39.5 60.5t-17 90.5q0 27 12 78.5t13 78.5q0 36 -10 54t-36 22q-5 2 -5 6v18q0 4 5 6q46 8 46 76q0 25 -12.5 76.5t-12.5 79.5
q0 51 16.5 90.5t38 61t51 35.5t47.5 18t35 6q5 0 5 -5v-17q0 -5 -5 -5q-15 -1 -25 -3.5t-30 -13.5t-32.5 -29t-22.5 -54t-10 -85q0 -19 4 -60t4 -56q0 -48 -14 -80t-55 -50q69 -32 69 -130z" />
    <glyph glyph-name="bar" unicode="|" horiz-adv-x="173" 
d="M99 -47q0 -5 -5 -5h-43q-5 0 -5 5v794q0 5 5 5h43q5 0 5 -5v-794z" />
    <glyph glyph-name="braceright" unicode="}" horiz-adv-x="279" 
d="M138 163q0 98 69 130q-41 18 -55 50t-14 80q0 15 4 56t4 60q0 49 -10 85t-22.5 54t-32.5 29t-30 13.5t-25 3.5q-5 0 -5 5v17q0 5 5 5q17 -2 35 -6t47.5 -18t51 -35.5t38 -61t16.5 -90.5q0 -28 -12.5 -79.5t-12.5 -76.5q0 -68 46 -76q5 -2 5 -6v-18q0 -4 -5 -6
q-26 -4 -36 -22t-10 -54q1 -27 13 -78.5t12 -78.5q0 -51 -17 -90.5t-39.5 -60.5t-52.5 -35t-46.5 -18t-32.5 -6q-5 0 -5 5v17q0 5 5 5q16 2 33 9.5t38.5 25.5t35 57t13.5 93q0 23 -4 61t-4 55z" />
    <glyph glyph-name="asciitilde" unicode="~" horiz-adv-x="270" 
d="M216 706q1 4 6 2l18 -8q5 -2 3 -7q-29 -48 -68 -48q-26 0 -50 18q-23 19 -45 15q-16 -3 -33 -26q-1 -4 -6 -2l-18 8q-5 2 -3 7q29 48 68 48q26 0 50 -18q23 -19 45 -15q16 3 33 26z" />
    <glyph glyph-name="exclamdown" unicode="&#xa1;" horiz-adv-x="210" 
d="M13 659q0 23 15.5 38t37.5 15q23 0 38.5 -15.5t15.5 -37.5q0 -23 -16 -38.5t-38 -15.5t-37.5 15.5t-15.5 38.5zM46 494q0 5 5 5h32q5 0 5 -5l24 -450v-39q0 -5 -5 -5h-79q-5 0 -5 5v39z" />
    <glyph glyph-name="cent" unicode="&#xa2;" horiz-adv-x="528" 
d="M462 60q4 -4 -1 -7q-81 -64 -191 -64q-48 0 -91 15l-15 -52q-1 -4 -5 -4h-50q-5 0 -4 6l23 76q-55 36 -86 96.5t-31 136.5q0 114 73 186.5t176 76.5h15l19 64q1 4 5 4h49q6 0 4 -6l-20 -66q70 -12 118 -48q3 -3 3 -6v-115q0 -5 -5 -5h-73q-6 0 -4 5l21 89q-34 34 -70 45
l-125 -425q39 -29 95 -29q33 0 75.5 14t69.5 34q4 2 7 -1q2 -2 8 -9t10 -11zM116 278q0 -102 36 -165l114 381h-7q-74 -5 -108.5 -63t-34.5 -153z" />
    <glyph glyph-name="sterling" unicode="&#xa3;" horiz-adv-x="500" 
d="M447 634q2 -4 2 -7v-98q0 -5 -5 -5h-45q-5 0 -6 4q-13 59 -51 102t-86 43q-62 0 -97 -38t-35 -104q0 -32 8 -59.5t28.5 -70t25.5 -54.5h169q5 0 5 -5v-30q0 -5 -5 -5h-155q12 -43 12 -84q0 -73 -36 -113t-96 -66h311l12 79q2 5 6 5h31q5 0 5 -5v-118q0 -3 -3 -5h-416h-1
h-3q-4 0 -4 5v48q0 5 4 6q42 10 85.5 54t43.5 88q0 55 -27 106h-101q-5 0 -5 5v30q0 5 5 5h78q-18 30 -35 55.5t-29 62t-12 76.5q0 91 62 131t153 40q130 0 207 -78zM49 31h-1h1z" />
    <glyph glyph-name="currency" unicode="&#xa4;" horiz-adv-x="600" 
d="M511 517q61 -74 59.5 -171t-64.5 -170l70 -70l-35 -36l-71 72q-73 -57 -166.5 -56t-165.5 59l-65 -65l-35 35l65 65q-59 73 -60 166t56 166l-65 65l35 36l65 -64q74 63 170.5 64t170.5 -60l70 69l35 -35zM157 200q61 -62 148.5 -62t149.5 62q61 62 61 149t-61 149
t-149 62t-149 -62q-62 -62 -62 -149t62 -149z" />
    <glyph glyph-name="yen" unicode="&#xa5;" horiz-adv-x="741" 
d="M638 700q5 0 5 -5v-27q0 -4 -5 -6l-60 -8l-194 -330h118q5 0 5 -5v-16q0 -5 -5 -5h-130v-115h130q5 0 5 -5v-16q0 -5 -5 -5h-130v-114l72 -5q5 0 5 -5v-28q0 -5 -5 -5h-240q-5 0 -5 5v28q0 5 5 5l72 5v114h-136q-5 0 -5 5v16q0 5 5 5h136v115h-136q-5 0 -5 5v16q0 5 5 5
h124l-194 332l-64 7q-5 0 -5 5v27q0 5 5 5h230q5 0 5 -5v-27q0 -5 -5 -5l-64 -7l180 -301l177 300l-69 7q-5 2 -5 6v27q0 5 5 5h178z" />
    <glyph glyph-name="dieresis" unicode="&#xa8;" horiz-adv-x="313" 
d="M61 594q-22 0 -37.5 15.5t-15.5 37.5t15.5 37.5t37.5 15.5q21 0 36.5 -15.5t15.5 -37.5t-15.5 -37.5t-36.5 -15.5zM258 594q-22 0 -37.5 15.5t-15.5 37.5t15.5 37.5t37.5 15.5q21 0 36.5 -15.5t15.5 -37.5t-15.5 -37.5t-36.5 -15.5z" />
    <glyph glyph-name="copyright" unicode="&#xa9;" horiz-adv-x="783" 
d="M-3 350q0 153 111.5 261.5t263.5 108.5t264 -108.5t112 -261.5t-112 -261t-264 -108t-263.5 108t-111.5 261zM76 350q0 -134 83.5 -226t212.5 -92q128 0 211 92t83 226t-83 226t-211 92q-129 0 -212.5 -92t-83.5 -226zM477 461q-5 0 -6 4q-15 58 -93 58q-141 0 -141 -175
q0 -170 143 -170q44 0 68.5 6t50.5 27q4 3 7 0l19 -19q4 -4 -1 -7q-67 -46 -144 -46q-100 0 -159.5 56t-59.5 153t57 153t157 56q62 0 103 -28l2 16q2 5 6 5h22q5 0 5 -5v-79q0 -5 -5 -5h-31z" />
    <glyph glyph-name="guillemotleft" unicode="&#xab;" horiz-adv-x="380" 
d="M184 387q9 0 3 -6l-109 -113l109 -113q6 -6 -3 -6h-39q-5 0 -6 3l-106 112q-3 4 0 8l105 112q3 3 7 3h39zM319 387q9 0 3 -6l-109 -113l109 -113q6 -6 -3 -6h-39q-4 0 -6 3l-106 112q-3 4 0 8l105 112q3 3 7 3h39z" />
    <glyph glyph-name="registered" unicode="&#xae;" horiz-adv-x="729" 
d="M-3 350q0 153 111.5 261.5t263.5 108.5t264 -108.5t112 -261.5t-112 -261t-264 -108t-263.5 108t-111.5 261zM76 350q0 -134 83.5 -226t212.5 -92q128 0 211 92t83 226t-83 226t-211 92q-129 0 -212.5 -92t-83.5 -226zM461 156q-5 0 -6 3l-94 160h-54v-158q0 -5 -5 -5
h-86q-5 0 -5 5v35q0 5 5 5h30v309h-30q-5 0 -5 5v35q0 5 5 5h189q65 0 87.5 -29t22.5 -85q0 -45 -19.5 -79.5t-64.5 -40.5q12 -17 36.5 -59t38.5 -61h38q5 0 5 -5v-35q0 -5 -5 -5h-83zM457 441q0 27 -11.5 47t-36.5 20h-102v-141h82q39 0 53.5 17t14.5 57z" />
    <glyph glyph-name="macron" unicode="&#xaf;" horiz-adv-x="440" 
d="M38 691q0 5 5 5h362q5 0 5 -5v-16q0 -5 -5 -5h-362q-5 0 -5 5v16z" />
    <glyph glyph-name="degree" unicode="&#xb0;" horiz-adv-x="263" 
d="M21 666q0 44 30 74t79 30t79 -28.5t30 -75.5q0 -46 -30.5 -76t-78.5 -30q-46 0 -77.5 31t-31.5 75zM130 739q-59 0 -59 -75q0 -73 59 -73q58 0 58 74t-58 74z" />
    <glyph glyph-name="acute" unicode="&#xb4;" horiz-adv-x="208" 
d="M15 638q-2 5 2 7q93 71 128 94q16 11 31.5 1.5t15.5 -25.5t-17 -27q-72 -34 -148 -64q-2 -1 -5 -1q0 1 -3 6.5t-4 8.5z" />
    <glyph glyph-name="periodcentered" unicode="&#xb7;" horiz-adv-x="187" 
d="M9 404q0 22 15.5 38t38.5 16t38.5 -16t15.5 -38t-15.5 -38t-38.5 -16t-38.5 16t-15.5 38z" />
    <glyph glyph-name="cedilla" unicode="&#xb8;" horiz-adv-x="220" 
d="M61 7q2 5 6 5h32q6 0 4 -5l-7 -45q6 4 26 5t40 -6q26 -11 24 -47t-36 -49q-43 -16 -104 -5q-5 2 -4 6l3 23q1 4 6 4q15 -4 36 -3q27 0 36.5 10.5t0.5 26.5q-10 15 -67 1q-6 0 -5 5z" />
    <glyph glyph-name="ordmasculine" unicode="&#xba;" horiz-adv-x="250" 
d="M2 666q0 44 30 74t79 30t79 -28.5t30 -75.5q0 -46 -30.5 -76t-78.5 -30q-46 0 -77.5 31t-31.5 75zM111 739q-59 0 -59 -75q0 -73 59 -73q58 0 58 74t-58 74z" />
    <glyph glyph-name="guillemotright" unicode="&#xbb;" horiz-adv-x="380" 
d="M36 381q-6 6 3 6h39q4 0 6 -3l106 -112q3 -4 0 -8l-105 -112q-3 -3 -7 -3h-39q-9 0 -3 6l109 113zM175 381q-6 6 3 6h39q5 0 6 -3l106 -112q3 -4 0 -8l-105 -112q-3 -3 -7 -3h-39q-9 0 -3 6l109 113z" />
    <glyph glyph-name="questiondown" unicode="&#xbf;" horiz-adv-x="488" 
d="M274 649q0 -23 -15.5 -38.5t-37.5 -15.5q-23 0 -38.5 15.5t-15.5 38.5q0 22 15.5 37.5t38.5 15.5t38 -15t15 -38zM231 489q5 0 5 -5q-3 -45 -16.5 -83.5t-31 -66.5t-34.5 -54.5t-28.5 -60t-11.5 -72.5q0 -130 102 -130q50 0 91.5 43.5t53.5 101.5q1 4 6 4h32q5 0 5 -5
v-98q0 -3 -2 -7q-74 -78 -200 -78q-81 0 -141 42.5t-60 126.5q0 38 18.5 74t46 66t56 59t52 65t29.5 73q2 5 6 5h22z" />
    <glyph glyph-name="Agrave" unicode="&#xc0;" horiz-adv-x="714" 
d="M209 816q-18 9 -17 27t15 25.5t32 -1.5q24 -14 132 -97q-1 0 -8 -16q-2 -4 -6 -2q-76 30 -148 64zM655 37q5 0 5 -5v-27q0 -5 -5 -5h-230q-5 0 -5 5v27q0 5 5 5l63 5l-67 197h-216l-66 -194l66 -7q5 0 5 -5v-28q0 -5 -5 -5h-191q-5 0 -5 5v28q0 5 5 5l72 7l210 610l-69 7
q-5 2 -5 6v27q0 5 5 5h138q4 0 5 -4l228 -654zM220 287h186l-91 281z" />
    <glyph glyph-name="Aacute" unicode="&#xc1;" horiz-adv-x="714" 
d="M221 766q-2 5 2 7q93 71 128 94q16 11 31.5 1.5t15.5 -25.5t-17 -27q-72 -34 -148 -64q-2 -1 -5 -1q0 1 -3 6.5t-4 8.5zM222 695q0 5 5 5h138q4 0 5 -4l228 -654l57 -5q5 0 5 -5v-27q0 -5 -5 -5h-230q-5 0 -5 5v27q0 5 5 5l63 5l-67 197h-216l-66 -194l66 -7q5 0 5 -5
v-28q0 -5 -5 -5h-191q-5 0 -5 5v28q0 5 5 5l72 7l210 610l-69 7q-5 2 -5 6v27zM220 287h186l-91 281z" />
    <glyph glyph-name="Acircumflex" unicode="&#xc2;" horiz-adv-x="714" 
d="M323 814l-67 -64h-34l78 104h46l78 -104h-34zM655 37q5 0 5 -5v-27q0 -5 -5 -5h-230q-5 0 -5 5v27q0 5 5 5l63 5l-67 197h-216l-66 -194l66 -7q5 0 5 -5v-28q0 -5 -5 -5h-191q-5 0 -5 5v28q0 5 5 5l72 7l210 610l-69 7q-5 2 -5 6v27q0 5 5 5h138q4 0 5 -4l228 -654z
M220 287h186l-91 281z" />
    <glyph glyph-name="Atilde" unicode="&#xc3;" horiz-adv-x="714" 
d="M391 811q1 4 6 2l18 -8q5 -2 3 -7q-29 -48 -68 -48q-26 0 -50 18q-22 19 -45 15q-16 -3 -33 -26q-1 -4 -6 -2l-18 8q-5 2 -3 7q29 48 68 48q26 0 50 -18q23 -19 45 -15q16 3 33 26zM222 695q0 5 5 5h138q4 0 5 -4l228 -654l57 -5q5 0 5 -5v-27q0 -5 -5 -5h-230q-5 0 -5 5
v27q0 5 5 5l63 5l-67 197h-216l-66 -194l66 -7q5 0 5 -5v-28q0 -5 -5 -5h-191q-5 0 -5 5v28q0 5 5 5l72 7l210 610l-69 7q-5 2 -5 6v27zM220 287h186l-91 281z" />
    <glyph glyph-name="Adieresis" unicode="&#xc4;" horiz-adv-x="714" 
d="M229 751q-22 0 -37.5 15.5t-15.5 37.5t15.5 37.5t37.5 15.5q21 0 36.5 -15.5t15.5 -37.5t-15.5 -37.5t-36.5 -15.5zM426 751q-22 0 -37.5 15.5t-15.5 37.5t15.5 37.5t37.5 15.5q21 0 36.5 -15.5t15.5 -37.5t-15.5 -37.5t-36.5 -15.5zM222 695q0 5 5 5h138q4 0 5 -4
l228 -654l57 -5q5 0 5 -5v-27q0 -5 -5 -5h-230q-5 0 -5 5v27q0 5 5 5l63 5l-67 197h-216l-66 -194l66 -7q5 0 5 -5v-28q0 -5 -5 -5h-191q-5 0 -5 5v28q0 5 5 5l72 7l210 610l-69 7q-5 2 -5 6v27zM220 287h186l-91 281z" />
    <glyph glyph-name="Aring" unicode="&#xc5;" horiz-adv-x="714" 
d="M328 750q-28 0 -48 20t-20 48t20 48t48 20t48 -20t20 -48t-20 -48t-48 -20zM328 778q17 0 28.5 12t11.5 29t-12 28.5t-28 11.5t-28 -11.5t-12 -28.5t11.5 -29t28.5 -12zM222 695q0 5 5 5h138q4 0 5 -4l228 -654l57 -5q5 0 5 -5v-27q0 -5 -5 -5h-230q-5 0 -5 5v27q0 5 5 5
l63 5l-67 197h-216l-66 -194l66 -7q5 0 5 -5v-28q0 -5 -5 -5h-191q-5 0 -5 5v28q0 5 5 5l72 7l210 610l-69 7q-5 2 -5 6v27zM220 287h186l-91 281z" />
    <glyph glyph-name="AE" unicode="&#xc6;" horiz-adv-x="1020" 
d="M892 656h-271v-270h209l8 61q2 5 6 5h29q5 0 5 -5v-174q0 -5 -5 -5h-27q-5 0 -6 5l-12 66h-207v-295h271l12 79q2 5 6 5h31q5 0 5 -5v-118q0 -5 -5 -5h-510q-5 0 -5 5v27q0 5 5 5l78 5l1 197h-216l-133 -194l64 -7q5 0 5 -5v-28q0 -5 -5 -5h-201q-5 0 -5 5v28q0 5 5 5
l84 7l416 604v7l-67 8q-5 2 -5 6v25q0 5 5 5h484q5 0 5 -5v-118q0 -5 -5 -5h-33q-4 0 -6 5zM511 287l6 281l-192 -281h186z" />
    <glyph glyph-name="Ccedilla" unicode="&#xc7;" horiz-adv-x="632" 
d="M575 86q3 -4 0 -7q-85 -86 -215 -91l-4 -26q6 4 26 5t40 -6q26 -11 24 -47t-36 -49q-43 -16 -104 -5q-5 2 -4 6l3 23q1 4 6 4q15 -4 36 -3q27 0 36.5 10.5t0.5 26.5q-10 15 -67 1q-6 0 -5 5l7 56q-143 8 -228 104t-85 256q0 169 89.5 268.5t241.5 93.5q60 -2 103.5 -12
t57.5 -19l13 -8l9 24q3 4 6 4h32q5 0 5 -5v-156q0 -5 -5 -5h-41q-4 0 -6 5q-10 54 -57.5 89.5t-109.5 37.5q-221 5 -221 -317q0 -67 9.5 -119t33 -97.5t68.5 -70.5t110 -25q129 0 194 75q3 5 7 1z" />
    <glyph glyph-name="Egrave" unicode="&#xc8;" horiz-adv-x="611" 
d="M188 816q-18 9 -17 27t15 25.5t32 -1.5q24 -14 132 -97q-1 0 -8 -16q-2 -4 -6 -2q-76 30 -148 64zM448 656h-271v-270h209l8 61q2 5 6 5h29q5 0 5 -5v-174q0 -5 -5 -5h-27q-5 0 -6 5l-12 66h-207v-295h271l12 79q2 5 6 5h31q5 0 5 -5v-118q0 -5 -5 -5h-492q-5 0 -5 5v28
q0 5 5 5l75 5v614l-75 6q-5 0 -5 5v27q0 5 5 5h492q5 0 5 -5v-118q0 -5 -5 -5h-33q-4 0 -6 5z" />
    <glyph glyph-name="Eacute" unicode="&#xc9;" horiz-adv-x="611" 
d="M201 766q-2 5 2 7q93 71 128 94q16 11 31.5 1.5t15.5 -25.5t-17 -27q-72 -34 -148 -64q-2 -1 -5 -1q0 1 -3 6.5t-4 8.5zM0 33q0 5 5 5l75 5v614l-75 6q-5 0 -5 5v27q0 5 5 5h492q5 0 5 -5v-118q0 -5 -5 -5h-33q-4 0 -6 5l-10 79h-271v-270h209l8 61q2 5 6 5h29q5 0 5 -5
v-174q0 -5 -5 -5h-27q-5 0 -6 5l-12 66h-207v-295h271l12 79q2 5 6 5h31q5 0 5 -5v-118q0 -5 -5 -5h-492q-5 0 -5 5v28z" />
    <glyph glyph-name="Ecircumflex" unicode="&#xca;" horiz-adv-x="611" 
d="M268 814l-67 -64h-34l78 104h46l78 -104h-34zM448 656h-271v-270h209l8 61q2 5 6 5h29q5 0 5 -5v-174q0 -5 -5 -5h-27q-5 0 -6 5l-12 66h-207v-295h271l12 79q2 5 6 5h31q5 0 5 -5v-118q0 -5 -5 -5h-492q-5 0 -5 5v28q0 5 5 5l75 5v614l-75 6q-5 0 -5 5v27q0 5 5 5h492
q5 0 5 -5v-118q0 -5 -5 -5h-33q-4 0 -6 5z" />
    <glyph glyph-name="Edieresis" unicode="&#xcb;" horiz-adv-x="611" 
d="M169 751q-22 0 -37.5 15.5t-15.5 37.5t15.5 37.5t37.5 15.5q21 0 36.5 -15.5t15.5 -37.5t-15.5 -37.5t-36.5 -15.5zM366 751q-22 0 -37.5 15.5t-15.5 37.5t15.5 37.5t37.5 15.5q21 0 36.5 -15.5t15.5 -37.5t-15.5 -37.5t-36.5 -15.5zM0 33q0 5 5 5l75 5v614l-75 6
q-5 0 -5 5v27q0 5 5 5h492q5 0 5 -5v-118q0 -5 -5 -5h-33q-4 0 -6 5l-10 79h-271v-270h209l8 61q2 5 6 5h29q5 0 5 -5v-174q0 -5 -5 -5h-27q-5 0 -6 5l-12 66h-207v-295h271l12 79q2 5 6 5h31q5 0 5 -5v-118q0 -5 -5 -5h-492q-5 0 -5 5v28z" />
    <glyph glyph-name="Igrave" unicode="&#xcc;" horiz-adv-x="354" 
d="M48 816q-18 9 -17 27t15 25.5t32 -1.5q24 -14 132 -97q-1 0 -8 -16q-2 -4 -6 -2q-76 30 -148 64zM258 663l-78 -7v-613l78 -5q5 0 5 -5v-28q0 -5 -5 -5h-252q-5 0 -5 5v28q0 5 5 5l76 5v614l-76 6q-5 0 -5 5v27q0 5 5 5h252q5 0 5 -5v-27q0 -5 -5 -5z" />
    <glyph glyph-name="Iacute" unicode="&#xcd;" horiz-adv-x="354" 
d="M62 766q-2 5 2 7q93 71 128 94q16 11 31.5 1.5t15.5 -25.5t-17 -27q-72 -34 -148 -64q-2 -1 -5 -1q-1 1 -3.5 6.5t-3.5 8.5zM1 695q0 5 5 5h252q5 0 5 -5v-27q0 -5 -5 -5l-78 -7v-613l78 -5q5 0 5 -5v-28q0 -5 -5 -5h-252q-5 0 -5 5v28q0 5 5 5l76 5v614l-76 6q-5 0 -5 5
v27z" />
    <glyph glyph-name="Icircumflex" unicode="&#xce;" horiz-adv-x="354" 
d="M132 814l-67 -64h-34l78 104h46l78 -104h-34zM258 663l-78 -7v-613l78 -5q5 0 5 -5v-28q0 -5 -5 -5h-252q-5 0 -5 5v28q0 5 5 5l76 5v614l-76 6q-5 0 -5 5v27q0 5 5 5h252q5 0 5 -5v-27q0 -5 -5 -5z" />
    <glyph glyph-name="Idieresis" unicode="&#xcf;" horiz-adv-x="354" 
d="M34 751q-22 0 -37.5 15.5t-15.5 37.5t15.5 37.5t37.5 15.5q21 0 36.5 -15.5t15.5 -37.5t-15.5 -37.5t-36.5 -15.5zM231 751q-22 0 -37.5 15.5t-15.5 37.5t15.5 37.5t37.5 15.5q21 0 36.5 -15.5t15.5 -37.5t-15.5 -37.5t-36.5 -15.5zM1 695q0 5 5 5h252q5 0 5 -5v-27
q0 -5 -5 -5l-78 -7v-613l78 -5q5 0 5 -5v-28q0 -5 -5 -5h-252q-5 0 -5 5v28q0 5 5 5l76 5v614l-76 6q-5 0 -5 5v27z" />
    <glyph glyph-name="Eth" unicode="&#xd0;" horiz-adv-x="712" 
d="M269 700q155 0 251 -92t96 -257q0 -167 -96.5 -259t-251.5 -92h-263q-5 0 -5 5v28q0 5 5 5l75 5v284h-95q-5 0 -5 5v36q0 5 5 5h95v284l-75 6q-5 0 -5 5v27q0 5 5 5h264zM268 44q64 0 109.5 23.5t69.5 67.5t34.5 96.5t10.5 119.5q0 305 -214 305h-100v-283h118q5 0 5 -5
v-36q0 -5 -5 -5h-118v-283h90z" />
    <glyph glyph-name="Ntilde" unicode="&#xd1;" horiz-adv-x="711" 
d="M411 811q1 4 6 2l18 -8q5 -2 3 -7q-29 -48 -68 -48q-26 0 -50 18q-22 19 -45 15q-16 -3 -33 -26q-1 -4 -6 -2l-18 8q-5 2 -3 7q29 48 68 48q26 0 50 -18q23 -19 45 -15q16 3 33 26zM1 33q0 5 5 5l80 9v610l-80 6q-5 0 -5 5v27q0 5 5 5h205q5 0 6 -3l320 -489v448l-67 7
q-5 0 -5 5v27q0 5 5 5h178q5 0 5 -5v-27q0 -5 -5 -5l-67 -7v-651q0 -5 -5 -5h-30q-4 0 -6 3l-410 649v-606l74 -8q5 0 5 -5v-28q0 -5 -5 -5h-198q-5 0 -5 5v28z" />
    <glyph glyph-name="Ograve" unicode="&#xd2;" horiz-adv-x="769" 
d="M242 816q-18 9 -17 27t15 25.5t32 -1.5q24 -14 132 -97q-1 0 -8 -16q-2 -4 -6 -2q-76 30 -148 64zM343 711q153 0 245 -97t92 -265q0 -167 -91.5 -264t-245.5 -97t-245 96.5t-91 264.5t91 265t245 97zM343 32q65 0 109.5 25.5t66.5 72.5t31 99t9 120q0 54 -5 97
t-19.5 85.5t-37.5 71.5t-62.5 46.5t-91.5 17.5q-65 0 -109 -25.5t-66.5 -73t-31 -99.5t-8.5 -120t8.5 -120t31 -99t66.5 -72.5t109 -25.5z" />
    <glyph glyph-name="Oacute" unicode="&#xd3;" horiz-adv-x="769" 
d="M273 766q-2 5 2 7q93 71 128 94q16 11 31.5 1.5t15.5 -25.5t-17 -27q-72 -34 -148 -64q-2 -1 -5 -1q0 2 -3 7t-4 8zM7 349q0 168 91 265t245 97q153 0 245 -97t92 -265q0 -167 -91.5 -264t-245.5 -97t-245 96.5t-91 264.5zM128 349q0 -68 8.5 -120t31 -99t66.5 -72.5
t109 -25.5t109.5 25.5t66.5 72.5t31 99t9 120q0 54 -5 97t-19.5 85.5t-37.5 71.5t-62.5 46.5t-91.5 17.5q-65 0 -109 -25.5t-66.5 -73t-31 -99.5t-8.5 -120z" />
    <glyph glyph-name="Ocircumflex" unicode="&#xd4;" horiz-adv-x="769" 
d="M341 814l-67 -64h-34l78 104h46l78 -104h-34zM343 711q153 0 245 -97t92 -265q0 -167 -91.5 -264t-245.5 -97t-245 96.5t-91 264.5t91 265t245 97zM343 32q65 0 109.5 25.5t66.5 72.5t31 99t9 120q0 54 -5 97t-19.5 85.5t-37.5 71.5t-62.5 46.5t-91.5 17.5
q-65 0 -109 -25.5t-66.5 -73t-31 -99.5t-8.5 -120t8.5 -120t31 -99t66.5 -72.5t109 -25.5z" />
    <glyph glyph-name="Otilde" unicode="&#xd5;" horiz-adv-x="769" 
d="M412 811q1 4 6 2l18 -8q5 -2 3 -7q-29 -48 -68 -48q-26 0 -50 18q-23 19 -45 15q-16 -3 -33 -26q-1 -4 -6 -2l-18 8q-5 2 -3 7q29 48 68 48q26 0 50 -18q22 -19 45 -15q16 3 33 26zM7 349q0 168 91 265t245 97q153 0 245 -97t92 -265q0 -167 -91.5 -264t-245.5 -97
t-245 96.5t-91 264.5zM128 349q0 -68 8.5 -120t31 -99t66.5 -72.5t109 -25.5t109.5 25.5t66.5 72.5t31 99t9 120q0 54 -5 97t-19.5 85.5t-37.5 71.5t-62.5 46.5t-91.5 17.5q-65 0 -109 -25.5t-66.5 -73t-31 -99.5t-8.5 -120z" />
    <glyph glyph-name="Odieresis" unicode="&#xd6;" horiz-adv-x="769" 
d="M247 751q-22 0 -37.5 15.5t-15.5 37.5t15.5 37.5t37.5 15.5q21 0 36.5 -15.5t15.5 -37.5t-15.5 -37.5t-36.5 -15.5zM444 751q-22 0 -37.5 15.5t-15.5 37.5t15.5 37.5t37.5 15.5q21 0 36.5 -15.5t15.5 -37.5t-15.5 -37.5t-36.5 -15.5zM7 349q0 168 91 265t245 97
q153 0 245 -97t92 -265q0 -167 -91.5 -264t-245.5 -97t-245 96.5t-91 264.5zM128 349q0 -68 8.5 -120t31 -99t66.5 -72.5t109 -25.5t109.5 25.5t66.5 72.5t31 99t9 120q0 54 -5 97t-19.5 85.5t-37.5 71.5t-62.5 46.5t-91.5 17.5q-65 0 -109 -25.5t-66.5 -73t-31 -99.5
t-8.5 -120z" />
    <glyph glyph-name="Oslash" unicode="&#xd8;" horiz-adv-x="769" 
d="M481 686q94 -37 146.5 -124.5t52.5 -212.5q0 -167 -91.5 -264t-245.5 -97q-51 0 -98 12l-16 -48q-1 -4 -5 -4h-50q-6 0 -4 6l22 64q-88 39 -136.5 124.5t-48.5 206.5q0 168 91 265t245 97q45 0 84 -9l16 46q1 4 5 4h49q5 0 4 -6zM128 349q0 -204 83 -275l201 584
q-30 9 -69 9q-65 0 -109 -25.5t-66.5 -73t-31 -99.5t-8.5 -120zM343 32q65 0 109.5 25.5t66.5 72.5t31 99t9 120q0 218 -96 285l-202 -589q37 -13 82 -13z" />
    <glyph glyph-name="Ugrave" unicode="&#xd9;" horiz-adv-x="708" 
d="M251 816q-18 9 -17 27t15 25.5t32 -1.5q24 -14 132 -97q-1 0 -8 -16q-2 -4 -6 -2q-76 30 -148 64zM645 700q5 0 5 -5v-27q0 -5 -5 -5l-72 -8v-453q0 -113 -64.5 -166t-172.5 -53q-55 0 -96.5 8t-78.5 28.5t-56.5 61.5t-19.5 102v473l-76 7q-5 0 -5 5v27q0 5 5 5h251
q5 0 5 -5v-27q0 -5 -5 -5l-78 -6v-477q0 -74 42 -114.5t112 -40.5q93 0 141.5 40t48.5 137v453l-72 8q-5 2 -5 6v26q0 5 5 5h191z" />
    <glyph glyph-name="Uacute" unicode="&#xda;" horiz-adv-x="708" 
d="M262 766q-2 5 2 7q93 71 128 94q16 11 31.5 1.5t15.5 -25.5t-17 -27q-72 -34 -148 -64q-2 -1 -5 -1l-3.5 7t-3.5 8zM573 202q0 -113 -64.5 -166t-172.5 -53q-55 0 -96.5 8t-78.5 28.5t-56.5 61.5t-19.5 102v473l-76 7q-5 0 -5 5v27q0 5 5 5h251q5 0 5 -5v-27q0 -5 -5 -5
l-78 -6v-477q0 -74 42 -114.5t112 -40.5q93 0 141.5 40t48.5 137v453l-72 8q-5 2 -5 6v26q0 5 5 5h191q5 0 5 -5v-27q0 -5 -5 -5l-72 -8v-453z" />
    <glyph glyph-name="Ucircumflex" unicode="&#xdb;" horiz-adv-x="708" 
d="M344 814l-67 -64h-34l78 104h46l78 -104h-34zM645 700q5 0 5 -5v-27q0 -5 -5 -5l-72 -8v-453q0 -113 -64.5 -166t-172.5 -53q-55 0 -96.5 8t-78.5 28.5t-56.5 61.5t-19.5 102v473l-76 7q-5 0 -5 5v27q0 5 5 5h251q5 0 5 -5v-27q0 -5 -5 -5l-78 -6v-477q0 -74 42 -114.5
t112 -40.5q93 0 141.5 40t48.5 137v453l-72 8q-5 2 -5 6v26q0 5 5 5h191z" />
    <glyph glyph-name="Udieresis" unicode="&#xdc;" horiz-adv-x="708" 
d="M248 751q-22 0 -37.5 15.5t-15.5 37.5t15.5 37.5t37.5 15.5q21 0 36.5 -15.5t15.5 -37.5t-15.5 -37.5t-36.5 -15.5zM445 751q-22 0 -37.5 15.5t-15.5 37.5t15.5 37.5t37.5 15.5q21 0 36.5 -15.5t15.5 -37.5t-15.5 -37.5t-36.5 -15.5zM573 202q0 -113 -64.5 -166
t-172.5 -53q-55 0 -96.5 8t-78.5 28.5t-56.5 61.5t-19.5 102v473l-76 7q-5 0 -5 5v27q0 5 5 5h251q5 0 5 -5v-27q0 -5 -5 -5l-78 -6v-477q0 -74 42 -114.5t112 -40.5q93 0 141.5 40t48.5 137v453l-72 8q-5 2 -5 6v26q0 5 5 5h191q5 0 5 -5v-27q0 -5 -5 -5l-72 -8v-453z" />
    <glyph glyph-name="Yacute" unicode="&#xdd;" horiz-adv-x="741" 
d="M276 766q-2 5 2 7q93 71 128 94q16 11 31.5 1.5t15.5 -25.5t-17 -27q-72 -34 -148 -64q-2 -1 -5 -1l-3.5 7t-3.5 8zM199 33q0 5 5 5l72 5v260l-206 353l-64 7q-5 0 -5 5v27q0 5 5 5h230q5 0 5 -5v-27q0 -5 -5 -5l-64 -7l180 -301l177 300l-69 7q-5 2 -5 6v27q0 5 5 5h178
q5 0 5 -5v-27q0 -4 -5 -6l-60 -8l-206 -351v-260l72 -5q5 0 5 -5v-28q0 -5 -5 -5h-240q-5 0 -5 5v28z" />
    <glyph glyph-name="Thorn" unicode="&#xde;" horiz-adv-x="600" 
d="M310 560q97 0 161 -53.5t64 -139.5q0 -90 -67 -146t-168 -56h-120v-122l78 -5q5 0 5 -5v-28q0 -5 -5 -5h-252q-5 0 -5 5v28q0 5 5 5l76 5v614l-76 6q-5 0 -5 5v27q0 5 5 5h252q5 0 5 -5v-27q0 -5 -5 -5l-78 -7v-97q22 0 66.5 0.5t63.5 0.5zM275 200q85 0 124.5 50
t39.5 128q0 73 -31 113.5t-107 40.5q-19 0 -59 -1t-62 -1v-329q15 0 47.5 -0.5t47.5 -0.5z" />
    <glyph glyph-name="germandbls" unicode="&#xdf;" horiz-adv-x="600" 
d="M519 223q15 -97 -28 -164.5t-135 -70.5q-59 -2 -94 33q-4 3 -7 -1l-8 -13q-5 -7 -7 -7h-22q-6 0 -6 7v102q0 18 12 18h31q4 0 6.5 -1t4 -3.5t2 -4.5t1.5 -5.5t1 -4.5q9 -32 32 -57t55 -24q91 4 73 194q-8 75 -63 120.5t-141 45.5q-8 0 -8 6v21q0 7 7 7q58 0 100.5 41
t42.5 97q0 116 -95 116q-51 0 -78 -46.5t-27 -134.5l1 -450v-39q0 -5 -5 -5h-163q-5 0 -5 5v28q0 5 5 5l77 5v425v1q0 114 52 178t145 64q78 0 125.5 -42t47.5 -103q0 -97 -119 -149q-20 -9 4 -13q26 -5 53 -16.5t56 -31.5t50 -55t27 -78z" />
    <glyph glyph-name="agrave" unicode="&#xe0;" horiz-adv-x="534" 
d="M116 688q-18 9 -17 27t15 25.5t32 -1.5q24 -14 132 -97q-1 0 -8 -16q-2 -4 -6 -2q-76 30 -148 64zM471 38q5 0 5 -5v-28q0 -5 -5 -5h-130q-5 0 -6 4l-25 62q-53 -44 -96 -63t-102 -12q-112 13 -112 117q0 35 16 66.5t38 53t59 44t65 35t70 31t61 27.5q-3 128 -107 128
q-81 0 -122 -52l18 -88q2 -5 -5 -5h-71q-5 0 -5 5v108q0 3 3 6q25 24 73.5 41t108.5 18q94 2 146 -44t52 -154v-284zM309 113v207q-1 -1 -22 -9.5t-27 -11.5t-26.5 -13t-29 -15t-26.5 -16t-26.5 -19.5t-21.5 -21t-19.5 -24t-11.5 -25.5t-6 -29q-4 -70 49 -80q77 -13 167 57z
" />
    <glyph glyph-name="aacute" unicode="&#xe1;" horiz-adv-x="534" 
d="M142 638q-2 5 2 7q93 71 128 94q16 11 31.5 1.5t15.5 -25.5t-17 -27q-72 -34 -148 -64q-2 -1 -5 -1l-3.5 7t-3.5 8zM22 348q-5 0 -5 5v108q0 3 3 6q25 24 73.5 41t108.5 18q94 2 146 -44t52 -154v-284l71 -6q5 0 5 -5v-28q0 -5 -5 -5h-130q-5 0 -6 4l-25 62
q-53 -44 -96 -63t-102 -12q-112 13 -112 117q0 35 16 66.5t38 53t59 44t65 35t70 31t61 27.5q-3 128 -107 128q-81 0 -122 -52l18 -88q2 -5 -5 -5h-71zM142 56q77 -13 167 57v207q-1 -1 -22 -9.5t-27 -11.5t-26.5 -13t-29 -15t-26.5 -16t-26.5 -19.5t-21.5 -21t-19.5 -24
t-11.5 -25.5t-6 -29q-4 -70 49 -80z" />
    <glyph glyph-name="acircumflex" unicode="&#xe2;" horiz-adv-x="534" 
d="M198 696l-67 -64h-34l78 104h46l78 -104h-34zM471 38q5 0 5 -5v-28q0 -5 -5 -5h-130q-5 0 -6 4l-25 62q-53 -44 -96 -63t-102 -12q-112 13 -112 117q0 35 16 66.5t38 53t59 44t65 35t70 31t61 27.5q-3 128 -107 128q-81 0 -122 -52l18 -88q2 -5 -5 -5h-71q-5 0 -5 5v108
q0 3 3 6q25 24 73.5 41t108.5 18q94 2 146 -44t52 -154v-284zM309 113v207q-1 -1 -22 -9.5t-27 -11.5t-26.5 -13t-29 -15t-26.5 -16t-26.5 -19.5t-21.5 -21t-19.5 -24t-11.5 -25.5t-6 -29q-4 -70 49 -80q77 -13 167 57z" />
    <glyph glyph-name="atilde" unicode="&#xe3;" horiz-adv-x="534" 
d="M289 706q1 4 6 2l18 -8q5 -2 3 -7q-29 -48 -68 -48q-26 0 -50 18q-23 19 -45 15q-16 -3 -33 -26q-1 -4 -6 -2l-18 8q-5 2 -3 7q29 48 68 48q26 0 50 -18q23 -19 45 -15q16 3 33 26zM22 348q-5 0 -5 5v108q0 3 3 6q25 24 73.5 41t108.5 18q94 2 146 -44t52 -154v-284
l71 -6q5 0 5 -5v-28q0 -5 -5 -5h-130q-5 0 -6 4l-25 62q-53 -44 -96 -63t-102 -12q-112 13 -112 117q0 35 16 66.5t38 53t59 44t65 35t70 31t61 27.5q-3 128 -107 128q-81 0 -122 -52l18 -88q2 -5 -5 -5h-71zM142 56q77 -13 167 57v207q-1 -1 -22 -9.5t-27 -11.5t-26.5 -13
t-29 -15t-26.5 -16t-26.5 -19.5t-21.5 -21t-19.5 -24t-11.5 -25.5t-6 -29q-4 -70 49 -80z" />
    <glyph glyph-name="adieresis" unicode="&#xe4;" horiz-adv-x="534" 
d="M101 594q-22 0 -37.5 15.5t-15.5 37.5t15.5 37.5t37.5 15.5q21 0 36.5 -15.5t15.5 -37.5t-15.5 -37.5t-36.5 -15.5zM298 594q-22 0 -37.5 15.5t-15.5 37.5t15.5 37.5t37.5 15.5q21 0 36.5 -15.5t15.5 -37.5t-15.5 -37.5t-36.5 -15.5zM22 348q-5 0 -5 5v108q0 3 3 6
q25 24 73.5 41t108.5 18q94 2 146 -44t52 -154v-284l71 -6q5 0 5 -5v-28q0 -5 -5 -5h-130q-5 0 -6 4l-25 62q-53 -44 -96 -63t-102 -12q-112 13 -112 117q0 35 16 66.5t38 53t59 44t65 35t70 31t61 27.5q-3 128 -107 128q-81 0 -122 -52l18 -88q2 -5 -5 -5h-71zM142 56
q77 -13 167 57v207q-1 -1 -22 -9.5t-27 -11.5t-26.5 -13t-29 -15t-26.5 -16t-26.5 -19.5t-21.5 -21t-19.5 -24t-11.5 -25.5t-6 -29q-4 -70 49 -80z" />
    <glyph glyph-name="aring" unicode="&#xe5;" horiz-adv-x="534" 
d="M198 563q-28 0 -48 19.5t-20 48.5t20 48.5t48 19.5t48 -19.5t20 -48.5t-20 -48.5t-48 -19.5zM198 591q17 0 28.5 12t11.5 29q0 16 -12 28t-28 12t-28 -12t-12 -28q0 -17 11.5 -29t28.5 -12zM22 348q-5 0 -5 5v108q0 3 3 6q25 24 73.5 41t108.5 18q94 2 146 -44t52 -154
v-284l71 -6q5 0 5 -5v-28q0 -5 -5 -5h-130q-5 0 -6 4l-25 62q-53 -44 -96 -63t-102 -12q-112 13 -112 117q0 35 16 66.5t38 53t59 44t65 35t70 31t61 27.5q-3 128 -107 128q-81 0 -122 -52l18 -88q2 -5 -5 -5h-71zM142 56q77 -13 167 57v207q-1 -1 -22 -9.5t-27 -11.5
t-26.5 -13t-29 -15t-26.5 -16t-26.5 -19.5t-21.5 -21t-19.5 -24t-11.5 -25.5t-6 -29q-4 -70 49 -80z" />
    <glyph glyph-name="ae" unicode="&#xe6;" horiz-adv-x="840" 
d="M564 526q220 0 222 -265q0 -5 -5 -5h-358q5 -101 51 -159.5t131 -58.5q75 0 141 42q4 3 7 -1q1 -1 7 -8t11 -12q3 -4 -1 -7q-80 -63 -193 -63q-73 0 -131.5 34t-91.5 95q-19 -30 -44 -52q-90 -75 -198 -75q-52 0 -82 30.5t-30 86.5q0 35 16 66.5t38 53t59 44t65 35t70 31
t61 27.5q-3 121 -107 121q-80 0 -119 -55l15 -78q2 -5 -5 -5h-71q-5 0 -5 5v114q0 5 3 6q33 25 85.5 39t96.5 14q71 0 114.5 -19t63.5 -63q69 82 184 82zM423 300h268q-1 43 -6.5 73.5t-18.5 58t-38.5 41.5t-63.5 14q-138 0 -141 -187zM309 123v192q-6 -2 -28.5 -11.5
t-34 -15t-34 -16.5t-35.5 -20t-30.5 -23t-27.5 -27t-17.5 -30.5t-8.5 -35.5q-4 -70 49 -80q66 -11 167 67z" />
    <glyph glyph-name="ccedilla" unicode="&#xe7;" horiz-adv-x="528" 
d="M462 60q4 -4 -1 -7q-72 -57 -176 -64l-4 -27q6 4 26 5t40 -6q26 -11 24 -47t-36 -49q-43 -16 -104 -5q-5 2 -4 6l3 23q1 4 6 4q15 -4 36 -3q27 0 36.5 10.5t0.5 26.5q-10 15 -67 1q-6 0 -5 5l7 57q-101 10 -167 85t-66 188q0 114 73 186.5t176 76.5q116 5 190 -52
q3 -3 3 -6v-115q0 -5 -5 -5h-73q-6 0 -4 5l21 89q-36 34 -68 45q-29 9 -65 7q-74 -5 -108.5 -63t-34.5 -153q0 -68 16.5 -121t57 -88.5t102.5 -35.5q33 0 75.5 14t69.5 34q4 2 7 -1q2 -2 8 -9t10 -11z" />
    <glyph glyph-name="egrave" unicode="&#xe8;" horiz-adv-x="559" 
d="M150 688q-18 9 -17 27t15 25.5t32 -1.5q24 -14 132 -97q-1 0 -8 -16q-2 -4 -6 -2q-76 30 -148 64zM255 526q220 0 222 -265q0 -5 -5 -5h-368q5 -104 47 -163.5t125 -59.5q35 0 78 14t73 33q4 2 7 -1q15 -15 18 -20q2 -5 -1 -7q-80 -63 -193 -63q-112 0 -185 76t-73 197
q0 117 73.5 190.5t181.5 73.5zM104 300h278q-1 43 -6.5 75t-18.5 61.5t-38.5 45t-63.5 15.5q-72 0 -110.5 -54t-40.5 -143z" />
    <glyph glyph-name="eacute" unicode="&#xe9;" horiz-adv-x="559" 
d="M176 638q-2 5 2 7q93 71 128 94q16 11 31.5 1.5t15.5 -25.5t-17 -27q-72 -34 -148 -64q-2 -1 -5 -1l-3.5 7t-3.5 8zM255 526q220 0 222 -265q0 -5 -5 -5h-368q5 -104 47 -163.5t125 -59.5q35 0 78 14t73 33q4 2 7 -1q15 -15 18 -20q2 -5 -1 -7q-80 -63 -193 -63
q-112 0 -185 76t-73 197q0 117 73.5 190.5t181.5 73.5zM255 497q-72 0 -110.5 -54t-40.5 -143h278q-1 43 -6.5 75t-18.5 61.5t-38.5 45t-63.5 15.5z" />
    <glyph glyph-name="ecircumflex" unicode="&#xea;" horiz-adv-x="559" 
d="M253 696l-67 -64h-34l78 104h46l78 -104h-34zM255 526q220 0 222 -265q0 -5 -5 -5h-368q5 -104 47 -163.5t125 -59.5q35 0 78 14t73 33q4 2 7 -1q15 -15 18 -20q2 -5 -1 -7q-80 -63 -193 -63q-112 0 -185 76t-73 197q0 117 73.5 190.5t181.5 73.5zM104 300h278
q-1 43 -6.5 75t-18.5 61.5t-38.5 45t-63.5 15.5q-72 0 -110.5 -54t-40.5 -143z" />
    <glyph glyph-name="edieresis" unicode="&#xeb;" horiz-adv-x="559" 
d="M149 594q-22 0 -37.5 15.5t-15.5 37.5t15.5 37.5t37.5 15.5q21 0 36.5 -15.5t15.5 -37.5t-15.5 -37.5t-36.5 -15.5zM346 594q-22 0 -37.5 15.5t-15.5 37.5t15.5 37.5t37.5 15.5q21 0 36.5 -15.5t15.5 -37.5t-15.5 -37.5t-36.5 -15.5zM255 526q220 0 222 -265q0 -5 -5 -5
h-368q5 -104 47 -163.5t125 -59.5q35 0 78 14t73 33q4 2 7 -1q15 -15 18 -20q2 -5 -1 -7q-80 -63 -193 -63q-112 0 -185 76t-73 197q0 117 73.5 190.5t181.5 73.5zM255 497q-72 0 -110.5 -54t-40.5 -143h278q-1 43 -6.5 75t-18.5 61.5t-38.5 45t-63.5 15.5z" />
    <glyph glyph-name="igrave" unicode="&#xec;" horiz-adv-x="300" 
d="M2 688q-18 9 -17 27t15 25.5t32 -1.5q24 -14 132 -97q-1 0 -8 -16q-2 -4 -6 -2q-76 30 -148 64zM237 37q5 0 5 -5v-27q0 -5 -5 -5h-246q-5 0 -5 5v27q0 5 5 5l77 5v438l-76 6q-5 0 -5 5v27q0 5 5 5h162q5 0 5 -5v-475z" />
    <glyph glyph-name="iacute" unicode="&#xed;" horiz-adv-x="300" 
d="M42 638q-2 5 2 7q93 71 128 94q16 11 31.5 1.5t15.5 -25.5t-17 -27q-72 -34 -148 -64q-2 -1 -5 -1l-3.5 7t-3.5 8zM242 5q0 -5 -5 -5h-246q-5 0 -5 5v27q0 5 5 5l77 5v438l-76 6q-5 0 -5 5v27q0 5 5 5h162q5 0 5 -5v-475l78 -6q5 0 5 -5v-27z" />
    <glyph glyph-name="icircumflex" unicode="&#xee;" horiz-adv-x="300" 
d="M111 696l-67 -64h-34l78 104h46l78 -104h-34zM237 37q5 0 5 -5v-27q0 -5 -5 -5h-246q-5 0 -5 5v27q0 5 5 5l77 5v438l-76 6q-5 0 -5 5v27q0 5 5 5h162q5 0 5 -5v-475z" />
    <glyph glyph-name="idieresis" unicode="&#xef;" horiz-adv-x="300" 
d="M11 594q-22 0 -37.5 15.5t-15.5 37.5t15.5 37.5t37.5 15.5q21 0 36.5 -15.5t15.5 -37.5t-15.5 -37.5t-36.5 -15.5zM208 594q-22 0 -37.5 15.5t-15.5 37.5t15.5 37.5t37.5 15.5q21 0 36.5 -15.5t15.5 -37.5t-15.5 -37.5t-36.5 -15.5zM242 5q0 -5 -5 -5h-246q-5 0 -5 5v27
q0 5 5 5l77 5v438l-76 6q-5 0 -5 5v27q0 5 5 5h162q5 0 5 -5v-475l78 -6q5 0 5 -5v-27z" />
    <glyph glyph-name="eth" unicode="&#xf0;" horiz-adv-x="600" 
d="M528 283q0 -35 -3 -66v-1q-13 -106 -81 -167t-171 -61q-119 0 -186 78.5t-67 192.5q0 116 66.5 191.5t186.5 75.5q49 0 89 -12q-39 59 -95 98l-69 -50q-4 -3 -7 0l-22 17q-3 4 1 7l64 47q-46 24 -110 44q-5 2 -4 6l6 23q2 5 6 4q57 -8 121 -38q14 -6 21 -10l63 46
q4 3 7 0l22 -18q3 -4 -1 -7l-55 -40q101 -57 159.5 -148t58.5 -212zM273 30q37 0 64.5 13.5t43 34.5t24.5 53t11.5 61t2.5 67q0 36 -3 65.5t-12 61t-24.5 53t-42.5 35.5t-64 14q-45 0 -75.5 -20t-44.5 -56t-19 -71.5t-5 -81.5q0 -42 1.5 -69t9.5 -60.5t23 -53t42.5 -33
t67.5 -13.5z" />
    <glyph glyph-name="ntilde" unicode="&#xf1;" horiz-adv-x="597" 
d="M373 706q1 4 6 2l18 -8q5 -2 3 -7q-29 -48 -68 -48q-26 0 -50 18q-23 19 -45 15q-16 -3 -33 -26q-1 -4 -6 -2l-18 8q-5 2 -3 7q29 48 68 48q26 0 50 -18q23 -19 45 -15q16 3 33 26zM237 5q0 -5 -5 -5h-226q-5 0 -5 5v28q0 5 5 5l71 5v437l-70 6q-5 0 -5 5v27q0 5 5 5h157
q5 0 5 -5v-68q20 33 68 55t100 22q74 0 114.5 -44t40.5 -125v-314l72 -6q5 0 5 -5v-28q0 -5 -5 -5h-225q-5 0 -5 5v28q0 5 5 5l62 5v293q0 72 -24 108.5t-89 30.5q-35 -3 -69.5 -29.5t-49.5 -53.5v-348l63 -6q5 0 5 -5v-28z" />
    <glyph glyph-name="ograve" unicode="&#xf2;" horiz-adv-x="603" 
d="M168 688q-18 9 -17 27t15 25.5t32 -1.5q24 -14 132 -97q-1 0 -8 -16q-2 -4 -6 -2q-76 30 -148 64zM263 526q116 0 185 -70t69 -197q0 -124 -70 -197.5t-184 -73.5q-119 0 -186 78.5t-67 192.5q0 116 66.5 191.5t186.5 75.5zM263 23q37 0 64.5 14.5t43 36t24.5 55t11.5 63
t2.5 67.5q0 236 -146 236q-144 0 -144 -236q0 -42 1.5 -69.5t9.5 -62.5t23 -55t42.5 -34.5t67.5 -14.5z" />
    <glyph glyph-name="oacute" unicode="&#xf3;" horiz-adv-x="603" 
d="M203 638q-2 5 2 7q93 71 128 94q16 11 31.5 1.5t15.5 -25.5t-17 -27q-72 -34 -148 -64q-2 -1 -5 -1q0 2 -3 7t-4 8zM10 259q0 116 66.5 191.5t186.5 75.5q116 0 185 -70t69 -197q0 -124 -70 -197.5t-184 -73.5q-119 0 -186 78.5t-67 192.5zM119 259q0 -42 1.5 -69.5
t9.5 -62.5t23 -55t42.5 -34.5t67.5 -14.5q37 0 64.5 14.5t43 36t24.5 55t11.5 63t2.5 67.5q0 236 -146 236q-144 0 -144 -236z" />
    <glyph glyph-name="ocircumflex" unicode="&#xf4;" horiz-adv-x="603" 
d="M257 696l-67 -64h-34l78 104h46l78 -104h-34zM263 526q116 0 185 -70t69 -197q0 -124 -70 -197.5t-184 -73.5q-119 0 -186 78.5t-67 192.5q0 116 66.5 191.5t186.5 75.5zM263 23q37 0 64.5 14.5t43 36t24.5 55t11.5 63t2.5 67.5q0 236 -146 236q-144 0 -144 -236
q0 -42 1.5 -69.5t9.5 -62.5t23 -55t42.5 -34.5t67.5 -14.5z" />
    <glyph glyph-name="otilde" unicode="&#xf5;" horiz-adv-x="603" 
d="M338 706q1 4 6 2l18 -8q5 -2 3 -7q-29 -48 -68 -48q-26 0 -50 18q-22 19 -45 15q-16 -3 -33 -26q-1 -4 -6 -2l-18 8q-5 2 -3 7q29 48 68 48q26 0 50 -18q22 -19 45 -15q16 3 33 26zM10 259q0 116 66.5 191.5t186.5 75.5q116 0 185 -70t69 -197q0 -124 -70 -197.5
t-184 -73.5q-119 0 -186 78.5t-67 192.5zM119 259q0 -42 1.5 -69.5t9.5 -62.5t23 -55t42.5 -34.5t67.5 -14.5q37 0 64.5 14.5t43 36t24.5 55t11.5 63t2.5 67.5q0 236 -146 236q-144 0 -144 -236z" />
    <glyph glyph-name="odieresis" unicode="&#xf6;" horiz-adv-x="603" 
d="M163 594q-22 0 -37.5 15.5t-15.5 37.5t15.5 37.5t37.5 15.5q21 0 36.5 -15.5t15.5 -37.5t-15.5 -37.5t-36.5 -15.5zM360 594q-22 0 -37.5 15.5t-15.5 37.5t15.5 37.5t37.5 15.5q21 0 36.5 -15.5t15.5 -37.5t-15.5 -37.5t-36.5 -15.5zM10 259q0 116 66.5 191.5t186.5 75.5
q116 0 185 -70t69 -197q0 -124 -70 -197.5t-184 -73.5q-119 0 -186 78.5t-67 192.5zM119 259q0 -42 1.5 -69.5t9.5 -62.5t23 -55t42.5 -34.5t67.5 -14.5q37 0 64.5 14.5t43 36t24.5 55t11.5 63t2.5 67.5q0 236 -146 236q-144 0 -144 -236z" />
    <glyph glyph-name="oslash" unicode="&#xf8;" horiz-adv-x="603" 
d="M415 484q102 -69 102 -225q0 -124 -70 -197.5t-184 -73.5q-75 0 -134 35l-44 -72q-1 -3 -6 -3h-49q-7 0 -3 6l62 100q-79 77 -79 205q0 116 66.5 191.5t186.5 75.5q60 0 107 -19l33 53q1 3 6 3h48q7 0 3 -6zM119 259q0 -92 12 -137l215 346q-33 27 -83 27
q-144 0 -144 -236zM263 23q37 0 64.5 14.5t43 36t24.5 55t11.5 63t2.5 67.5q0 112 -30 167l-222 -358q34 -45 106 -45z" />
    <glyph glyph-name="ugrave" unicode="&#xf9;" horiz-adv-x="594" 
d="M187 688q-18 9 -17 27t15 25.5t32 -1.5q24 -14 132 -97q-1 0 -8 -16q-2 -4 -6 -2q-76 30 -148 64zM556 37q5 0 5 -5v-27q0 -5 -5 -5h-148q-5 0 -5 5v70q-77 -86 -168 -86q-74 0 -114.5 42.5t-40.5 124.5v324l-76 7q-5 0 -5 5v26q0 5 5 5h162q5 0 5 -5v-339
q0 -73 23.5 -109.5t86.5 -30.5q33 3 67.5 28t54.5 55v358l-75 7q-5 0 -5 5v26q0 5 5 5h161q5 0 5 -5v-476z" />
    <glyph glyph-name="uacute" unicode="&#xfa;" horiz-adv-x="594" 
d="M215 638q-2 5 2 7q93 71 128 94q16 11 31.5 1.5t15.5 -25.5t-17 -27q-72 -34 -148 -64q-2 -1 -5 -1q0 2 -3 7t-4 8zM323 518q0 5 5 5h161q5 0 5 -5v-476l62 -5q5 0 5 -5v-27q0 -5 -5 -5h-148q-5 0 -5 5v70q-77 -86 -168 -86q-74 0 -114.5 42.5t-40.5 124.5v324l-76 7
q-5 0 -5 5v26q0 5 5 5h162q5 0 5 -5v-339q0 -73 23.5 -109.5t86.5 -30.5q33 3 67.5 28t54.5 55v358l-75 7q-5 0 -5 5v26z" />
    <glyph glyph-name="ucircumflex" unicode="&#xfb;" horiz-adv-x="594" 
d="M273 696l-67 -64h-34l78 104h46l78 -104h-34zM556 37q5 0 5 -5v-27q0 -5 -5 -5h-148q-5 0 -5 5v70q-77 -86 -168 -86q-74 0 -114.5 42.5t-40.5 124.5v324l-76 7q-5 0 -5 5v26q0 5 5 5h162q5 0 5 -5v-339q0 -73 23.5 -109.5t86.5 -30.5q33 3 67.5 28t54.5 55v358l-75 7
q-5 0 -5 5v26q0 5 5 5h161q5 0 5 -5v-476z" />
    <glyph glyph-name="udieresis" unicode="&#xfc;" horiz-adv-x="594" 
d="M164 594q-22 0 -37.5 15.5t-15.5 37.5t15.5 37.5t37.5 15.5q21 0 36.5 -15.5t15.5 -37.5t-15.5 -37.5t-36.5 -15.5zM361 594q-22 0 -37.5 15.5t-15.5 37.5t15.5 37.5t37.5 15.5q21 0 36.5 -15.5t15.5 -37.5t-15.5 -37.5t-36.5 -15.5zM323 518q0 5 5 5h161q5 0 5 -5v-476
l62 -5q5 0 5 -5v-27q0 -5 -5 -5h-148q-5 0 -5 5v70q-77 -86 -168 -86q-74 0 -114.5 42.5t-40.5 124.5v324l-76 7q-5 0 -5 5v26q0 5 5 5h162q5 0 5 -5v-339q0 -73 23.5 -109.5t86.5 -30.5q33 3 67.5 28t54.5 55v358l-75 7q-5 0 -5 5v26z" />
    <glyph glyph-name="yacute" unicode="&#xfd;" horiz-adv-x="623" 
d="M248 638q-2 5 2 7q93 71 128 94q16 11 31.5 1.5t15.5 -25.5t-17 -27q-72 -34 -148 -64q-2 -1 -5 -1l-3.5 7t-3.5 8zM108 -218q41 0 77.5 45t59.5 104l23 57l-195 491l-64 7q-5 0 -5 5v27q0 5 5 5h225q5 0 5 -5v-27q0 -4 -5 -6l-65 -10l153 -358l143 355l-73 13q-5 2 -5 6
v27q0 5 5 5h201q5 0 5 -5v-27q0 -5 -4 -6l-75 -15l-236 -574q-29 -65 -74 -109t-101 -44h-63q-5 0 -5 5v29q0 5 5 5h63z" />
    <glyph glyph-name="thorn" unicode="&#xfe;" horiz-adv-x="600" 
d="M334 527q100 -9 150.5 -84.5t50.5 -188.5q0 -121 -57 -192.5t-159 -71.5q-47 0 -93.5 18t-74.5 53v-256l78 -6q5 0 5 -5v-28q0 -5 -5 -5h-246q-5 0 -5 5v28q0 5 5 5l77 5v913l-73 7q-5 0 -5 5v28q0 5 5 5h160q5 0 5 -5v-303q74 82 182 73zM312 37q31 0 53.5 14.5t34 35
t17.5 52.5t7.5 55.5t1.5 56.5q0 37 -6.5 73.5t-21 71t-42.5 56t-66 21.5q-35 0 -73.5 -24t-64.5 -57v-233q22 -51 65.5 -86.5t94.5 -35.5z" />
    <glyph glyph-name="ydieresis" unicode="&#xff;" horiz-adv-x="623" 
d="M214 594q-22 0 -37.5 15.5t-15.5 37.5t15.5 37.5t37.5 15.5q21 0 36.5 -15.5t15.5 -37.5t-15.5 -37.5t-36.5 -15.5zM411 594q-22 0 -37.5 15.5t-15.5 37.5t15.5 37.5t37.5 15.5q21 0 36.5 -15.5t15.5 -37.5t-15.5 -37.5t-36.5 -15.5zM108 -218q41 0 77.5 45t59.5 104
l23 57l-195 491l-64 7q-5 0 -5 5v27q0 5 5 5h225q5 0 5 -5v-27q0 -4 -5 -6l-65 -10l153 -358l143 355l-73 13q-5 2 -5 6v27q0 5 5 5h201q5 0 5 -5v-27q0 -5 -4 -6l-75 -15l-236 -574q-29 -65 -74 -109t-101 -44h-63q-5 0 -5 5v29q0 5 5 5h63z" />
    <glyph glyph-name="Amacron" unicode="&#x100;" horiz-adv-x="714" 
d="M139 771q0 5 5 5h362q5 0 5 -5v-16q0 -5 -5 -5h-362q-5 0 -5 5v16zM222 695q0 5 5 5h138q4 0 5 -4l228 -654l57 -5q5 0 5 -5v-27q0 -5 -5 -5h-230q-5 0 -5 5v27q0 5 5 5l63 5l-67 197h-216l-66 -194l66 -7q5 0 5 -5v-28q0 -5 -5 -5h-191q-5 0 -5 5v28q0 5 5 5l72 7
l210 610l-69 7q-5 2 -5 6v27zM220 287h186l-91 281z" />
    <glyph glyph-name="amacron" unicode="&#x101;" horiz-adv-x="534" 
d="M38 691q0 5 5 5h362q5 0 5 -5v-16q0 -5 -5 -5h-362q-5 0 -5 5v16zM22 348q-5 0 -5 5v108q0 3 3 6q25 24 73.5 41t108.5 18q94 2 146 -44t52 -154v-284l71 -6q5 0 5 -5v-28q0 -5 -5 -5h-130q-5 0 -6 4l-25 62q-53 -44 -96 -63t-102 -12q-112 13 -112 117q0 35 16 66.5
t38 53t59 44t65 35t70 31t61 27.5q-3 128 -107 128q-81 0 -122 -52l18 -88q2 -5 -5 -5h-71zM142 56q77 -13 167 57v207q-1 -1 -22 -9.5t-27 -11.5t-26.5 -13t-29 -15t-26.5 -16t-26.5 -19.5t-21.5 -21t-19.5 -24t-11.5 -25.5t-6 -29q-4 -70 49 -80z" />
    <glyph glyph-name="Abreve" unicode="&#x102;" horiz-adv-x="714" 
d="M312 750q-47 0 -74 33t-27 74h40q0 -24 16.5 -45.5t44.5 -21.5t44.5 21.5t16.5 45.5h40q0 -41 -27 -74t-74 -33zM655 37q5 0 5 -5v-27q0 -5 -5 -5h-230q-5 0 -5 5v27q0 5 5 5l63 5l-67 197h-216l-66 -194l66 -7q5 0 5 -5v-28q0 -5 -5 -5h-191q-5 0 -5 5v28q0 5 5 5l72 7
l210 610l-69 7q-5 2 -5 6v27q0 5 5 5h138q4 0 5 -4l228 -654zM220 287h186l-91 281z" />
    <glyph glyph-name="abreve" unicode="&#x103;" horiz-adv-x="534" 
d="M202 629q-47 0 -74 33t-27 74h40q0 -24 16.5 -45.5t44.5 -21.5t44.5 21.5t16.5 45.5h40q0 -41 -27 -74t-74 -33zM471 38q5 0 5 -5v-28q0 -5 -5 -5h-130q-5 0 -6 4l-25 62q-53 -44 -96 -63t-102 -12q-112 13 -112 117q0 35 16 66.5t38 53t59 44t65 35t70 31t61 27.5
q-3 128 -107 128q-81 0 -122 -52l18 -88q2 -5 -5 -5h-71q-5 0 -5 5v108q0 3 3 6q25 24 73.5 41t108.5 18q94 2 146 -44t52 -154v-284zM309 113v207q-1 -1 -22 -9.5t-27 -11.5t-26.5 -13t-29 -15t-26.5 -16t-26.5 -19.5t-21.5 -21t-19.5 -24t-11.5 -25.5t-6 -29
q-4 -70 49 -80q77 -13 167 57z" />
    <glyph glyph-name="Aogonek" unicode="&#x104;" horiz-adv-x="714" 
d="M655 37q5 0 5 -5v-27q0 -5 -5 -5h-93q-45 -22 -58 -37q-20 -23 0 -43q30 -29 98 -5l23 10q5 2 7 -2l10 -16q4 -4 -2 -6q-31 -17 -70.5 -24t-75.5 5q-42 20 -45 54.5t36 63.5h-60q-5 0 -5 5v27q0 5 5 5l63 5l-67 197h-216l-66 -194l66 -7q5 0 5 -5v-28q0 -5 -5 -5h-191
q-5 0 -5 5v28q0 5 5 5l72 7l210 610l-69 7q-5 2 -5 6v27q0 5 5 5h138q4 0 5 -4l228 -654zM220 287h186l-91 281z" />
    <glyph glyph-name="aogonek" unicode="&#x105;" horiz-adv-x="534" 
d="M471 38q5 0 5 -5v-28q0 -5 -5 -5h-80q-21 -5 -56 -22t-47 -32q-20 -23 0 -43q30 -29 98 -5l23 10q5 2 7 -2l10 -16q4 -4 -2 -6q-31 -17 -70.5 -24t-75.5 5q-36 17 -44 45.5t18 57t80 44.5l-22 54q-53 -44 -96 -63t-102 -12q-112 13 -112 117q0 35 16 66.5t38 53t59 44
t65 35t70 31t61 27.5q-3 128 -107 128q-81 0 -122 -52l18 -88q2 -5 -5 -5h-71q-5 0 -5 5v108q0 3 3 6q25 24 73.5 41t108.5 18q94 2 146 -44t52 -154v-284zM309 113v207q-1 -1 -22 -9.5t-27 -11.5t-26.5 -13t-29 -15t-26.5 -16t-26.5 -19.5t-21.5 -21t-19.5 -24t-11.5 -25.5
t-6 -29q-4 -70 49 -80q77 -13 167 57z" />
    <glyph glyph-name="Cacute" unicode="&#x106;" horiz-adv-x="632" 
d="M249 766q-2 5 2 7q93 71 128 94q16 11 31.5 1.5t15.5 -25.5t-17 -27q-72 -34 -148 -64q-2 -1 -5 -1q0 1 -3 6.5t-4 8.5zM517 534q-4 0 -6 5q-10 54 -57.5 89.5t-109.5 37.5q-221 5 -221 -317q0 -67 9.5 -119t33 -97.5t68.5 -70.5t110 -25q129 0 194 75q3 5 7 1l30 -27
q3 -4 0 -7q-90 -91 -231 -91q-154 0 -246 97t-92 264q0 169 89.5 268.5t241.5 93.5q60 -2 103.5 -12t57.5 -19l13 -8l9 24q3 4 6 4h32q5 0 5 -5v-156q0 -5 -5 -5h-41z" />
    <glyph glyph-name="cacute" unicode="&#x107;" horiz-adv-x="528" 
d="M168 638q-2 5 2 7q93 71 128 94q16 11 31.5 1.5t15.5 -25.5t-17 -27q-72 -34 -148 -64q-2 -1 -5 -1l-3.5 7t-3.5 8zM453 353q0 -5 -5 -5h-73q-6 0 -4 5l21 89q-36 34 -68 45q-29 9 -65 7q-74 -5 -108.5 -63t-34.5 -153q0 -68 16.5 -121t57 -88.5t102.5 -35.5
q33 0 75.5 14t69.5 34q4 2 7 -1q2 -2 8 -9t10 -11t-1 -7q-81 -64 -191 -64q-111 0 -185 76.5t-74 197.5q0 114 73 186.5t176 76.5q116 5 190 -52q3 -3 3 -6v-115z" />
    <glyph glyph-name="Cdotaccent" unicode="&#x10a;" horiz-adv-x="632" 
d="M324 750q-22 0 -37.5 15.5t-15.5 37.5t15.5 37.5t37.5 15.5q21 0 36.5 -15.5t15.5 -37.5t-15.5 -37.5t-36.5 -15.5zM517 534q-4 0 -6 5q-10 54 -57.5 89.5t-109.5 37.5q-221 5 -221 -317q0 -67 9.5 -119t33 -97.5t68.5 -70.5t110 -25q129 0 194 75q3 5 7 1l30 -27
q3 -4 0 -7q-90 -91 -231 -91q-154 0 -246 97t-92 264q0 169 89.5 268.5t241.5 93.5q60 -2 103.5 -12t57.5 -19l13 -8l9 24q3 4 6 4h32q5 0 5 -5v-156q0 -5 -5 -5h-41z" />
    <glyph glyph-name="cdotaccent" unicode="&#x10b;" horiz-adv-x="528" 
d="M250 647q-22 0 -37.5 15.5t-15.5 37.5t15.5 37.5t37.5 15.5q21 0 36.5 -15.5t15.5 -37.5t-15.5 -37.5t-36.5 -15.5zM453 353q0 -5 -5 -5h-73q-6 0 -4 5l21 89q-36 34 -68 45q-29 9 -65 7q-74 -5 -108.5 -63t-34.5 -153q0 -68 16.5 -121t57 -88.5t102.5 -35.5
q33 0 75.5 14t69.5 34q4 2 7 -1q2 -2 8 -9t10 -11t-1 -7q-81 -64 -191 -64q-111 0 -185 76.5t-74 197.5q0 114 73 186.5t176 76.5q116 5 190 -52q3 -3 3 -6v-115z" />
    <glyph glyph-name="Ccaron" unicode="&#x10c;" horiz-adv-x="632" 
d="M295 750l-78 104h34l67 -64l67 64h34l-78 -104h-46zM575 86q3 -4 0 -7q-90 -91 -231 -91q-154 0 -246 97t-92 264q0 169 89.5 268.5t241.5 93.5q60 -2 103.5 -12t57.5 -19l13 -8l9 24q3 4 6 4h32q5 0 5 -5v-156q0 -5 -5 -5h-41q-4 0 -6 5q-10 54 -57.5 89.5t-109.5 37.5
q-221 5 -221 -317q0 -67 9.5 -119t33 -97.5t68.5 -70.5t110 -25q129 0 194 75q3 5 7 1z" />
    <glyph glyph-name="ccaron" unicode="&#x10d;" horiz-adv-x="528" 
d="M227 632l-78 104h34l67 -64l67 64h34l-78 -104h-46zM462 60q4 -4 -1 -7q-81 -64 -191 -64q-111 0 -185 76.5t-74 197.5q0 114 73 186.5t176 76.5q116 5 190 -52q3 -3 3 -6v-115q0 -5 -5 -5h-73q-6 0 -4 5l21 89q-36 34 -68 45q-29 9 -65 7q-74 -5 -108.5 -63t-34.5 -153
q0 -68 16.5 -121t57 -88.5t102.5 -35.5q33 0 75.5 14t69.5 34q4 2 7 -1q2 -2 8 -9t10 -11z" />
    <glyph glyph-name="Dcaron" unicode="&#x10e;" horiz-adv-x="712" 
d="M245 750l-78 104h34l67 -64l67 64h34l-78 -104h-46zM269 700q155 0 251 -92t96 -257q0 -167 -96.5 -259t-251.5 -92h-263q-5 0 -5 5v28q0 5 5 5l75 5v614l-75 6q-5 0 -5 5v27q0 5 5 5h264zM268 44q64 0 109.5 23.5t69.5 67.5t34.5 96.5t10.5 119.5q0 305 -214 305h-100
v-612h90z" />
    <glyph glyph-name="dcaron" unicode="&#x10f;" horiz-adv-x="607" 
d="M297 757q0 5 5 5h177q5 0 5 -5v-713l77 -6q5 0 5 -5v-28q0 -5 -5 -5h-163q-5 0 -5 5v60q-68 -76 -179 -74q-97 1 -153 76t-56 184q0 112 62 193t164 81q39 0 88 -16t74 -38v246l-91 7q-5 0 -5 5v28zM546 596q-2 4 1 7q29 26 29 60h-7q-17 1 -28 13.5t-11 31.5
q0 20 14.5 31.5t31.5 11.5q18 0 31 -12t13 -35q0 -82 -63 -116q-5 -2 -7 2zM260 34q39 0 80.5 30.5t52.5 56.5v306q-18 22 -60 41t-75 19q-37 0 -63.5 -13t-42 -33t-24.5 -51t-12 -60t-3 -67q0 -47 5.5 -83t20 -71.5t45.5 -55t76 -19.5z" />
    <glyph glyph-name="Dcroat" unicode="&#x110;" horiz-adv-x="712" 
d="M269 700q155 0 251 -92t96 -257q0 -167 -96.5 -259t-251.5 -92h-263q-5 0 -5 5v28q0 5 5 5l75 5v284h-95q-5 0 -5 5v36q0 5 5 5h95v284l-75 6q-5 0 -5 5v27q0 5 5 5h264zM268 44q64 0 109.5 23.5t69.5 67.5t34.5 96.5t10.5 119.5q0 305 -214 305h-100v-283h118q5 0 5 -5
v-36q0 -5 -5 -5h-118v-283h90z" />
    <glyph glyph-name="dcroat" unicode="&#x111;" horiz-adv-x="607" 
d="M561 38q5 0 5 -5v-28q0 -5 -5 -5h-163q-5 0 -5 5v60q-68 -76 -179 -74q-97 1 -153 76t-56 184q0 112 62 193t164 81q39 0 88 -16t74 -38v135h-147q-5 0 -5 5v36q0 5 5 5h147v65l-91 7q-5 0 -5 5v28q0 5 5 5h177q5 0 5 -5v-105h73q5 0 5 -5v-36q0 -5 -5 -5h-73v-562z
M393 121v306q-18 22 -60 41t-75 19q-37 0 -63.5 -13t-42 -33t-24.5 -51t-12 -60t-3 -67q0 -47 5.5 -83t20 -71.5t45.5 -55t76 -19.5q39 0 80.5 30.5t52.5 56.5z" />
    <glyph glyph-name="Emacron" unicode="&#x112;" horiz-adv-x="611" 
d="M448 656h-271v-270h209l8 61q2 5 6 5h29q5 0 5 -5v-174q0 -5 -5 -5h-27q-5 0 -6 5l-12 66h-207v-295h271l12 79q2 5 6 5h31q5 0 5 -5v-118q0 -5 -5 -5h-492q-5 0 -5 5v28q0 5 5 5l75 5v614l-75 6q-5 0 -5 5v27q0 5 5 5h492q5 0 5 -5v-118q0 -5 -5 -5h-33q-4 0 -6 5z" />
    <glyph glyph-name="emacron" unicode="&#x113;" horiz-adv-x="559" 
d="M38 691q0 5 5 5h362q5 0 5 -5v-16q0 -5 -5 -5h-362q-5 0 -5 5v16zM255 526q220 0 222 -265q0 -5 -5 -5h-368q5 -104 47 -163.5t125 -59.5q35 0 78 14t73 33q4 2 7 -1q15 -15 18 -20q2 -5 -1 -7q-80 -63 -193 -63q-112 0 -185 76t-73 197q0 117 73.5 190.5t181.5 73.5z
M255 497q-72 0 -110.5 -54t-40.5 -143h278q-1 43 -6.5 75t-18.5 61.5t-38.5 45t-63.5 15.5z" />
    <glyph glyph-name="Edotaccent" unicode="&#x116;" horiz-adv-x="611" 
d="M275 750q-22 0 -37.5 15.5t-15.5 37.5t15.5 37.5t37.5 15.5q21 0 36.5 -15.5t15.5 -37.5t-15.5 -37.5t-36.5 -15.5zM0 33q0 5 5 5l75 5v614l-75 6q-5 0 -5 5v27q0 5 5 5h492q5 0 5 -5v-118q0 -5 -5 -5h-33q-4 0 -6 5l-10 79h-271v-270h209l8 61q2 5 6 5h29q5 0 5 -5v-174
q0 -5 -5 -5h-27q-5 0 -6 5l-12 66h-207v-295h271l12 79q2 5 6 5h31q5 0 5 -5v-118q0 -5 -5 -5h-492q-5 0 -5 5v28z" />
    <glyph glyph-name="edotaccent" unicode="&#x117;" horiz-adv-x="559" 
d="M243 647q-22 0 -37.5 15.5t-15.5 37.5t15.5 37.5t37.5 15.5q21 0 36.5 -15.5t15.5 -37.5t-15.5 -37.5t-36.5 -15.5zM255 526q220 0 222 -265q0 -5 -5 -5h-368q5 -104 47 -163.5t125 -59.5q35 0 78 14t73 33q4 2 7 -1q15 -15 18 -20q2 -5 -1 -7q-80 -63 -193 -63
q-112 0 -185 76t-73 197q0 117 73.5 190.5t181.5 73.5zM255 497q-72 0 -110.5 -54t-40.5 -143h278q-1 43 -6.5 75t-18.5 61.5t-38.5 45t-63.5 15.5z" />
    <glyph glyph-name="Eogonek" unicode="&#x118;" horiz-adv-x="611" 
d="M448 656h-271v-270h209l8 61q2 5 6 5h29q5 0 5 -5v-174q0 -5 -5 -5h-27q-5 0 -6 5l-12 66h-207v-295h271l12 79q2 5 6 5h31q5 0 5 -5v-118q0 -5 -5 -5h-220q-43 -20 -60 -38q-20 -23 0 -43q30 -29 98 -5l23 10q5 2 7 -2l10 -16q4 -4 -2 -6q-31 -17 -70.5 -24t-75.5 5
q-42 20 -45 55t37 64h-194q-5 0 -5 5v28q0 5 5 5l75 5v614l-75 6q-5 0 -5 5v27q0 5 5 5h492q5 0 5 -5v-118q0 -5 -5 -5h-33q-4 0 -6 5z" />
    <glyph glyph-name="eogonek" unicode="&#x119;" horiz-adv-x="559" 
d="M255 526q220 0 222 -265q0 -5 -5 -5h-368q5 -104 47 -163.5t125 -59.5q35 0 78 14t73 33q4 2 7 -1q15 -15 18 -20q2 -5 -1 -7q-80 -63 -193 -63q-16 0 -24 1q-54 -21 -74 -44t0 -43q30 -29 98 -5l23 10q5 2 7 -2l10 -16q4 -4 -2 -6q-31 -17 -70.5 -24t-75.5 5
q-50 22 -44.5 65.5t68.5 71.5q-79 25 -126.5 94.5t-47.5 165.5q0 117 73.5 190.5t181.5 73.5zM104 300h278q-1 43 -6.5 75t-18.5 61.5t-38.5 45t-63.5 15.5q-72 0 -110.5 -54t-40.5 -143z" />
    <glyph glyph-name="Ecaron" unicode="&#x11a;" horiz-adv-x="611" 
d="M243 750l-78 104h34l67 -64l67 64h34l-78 -104h-46zM448 656h-271v-270h209l8 61q2 5 6 5h29q5 0 5 -5v-174q0 -5 -5 -5h-27q-5 0 -6 5l-12 66h-207v-295h271l12 79q2 5 6 5h31q5 0 5 -5v-118q0 -5 -5 -5h-492q-5 0 -5 5v28q0 5 5 5l75 5v614l-75 6q-5 0 -5 5v27q0 5 5 5
h492q5 0 5 -5v-118q0 -5 -5 -5h-33q-4 0 -6 5z" />
    <glyph glyph-name="ecaron" unicode="&#x11b;" horiz-adv-x="559" 
d="M232 632l-78 104h34l67 -64l67 64h34l-78 -104h-46zM255 526q220 0 222 -265q0 -5 -5 -5h-368q5 -104 47 -163.5t125 -59.5q35 0 78 14t73 33q4 2 7 -1q15 -15 18 -20q2 -5 -1 -7q-80 -63 -193 -63q-112 0 -185 76t-73 197q0 117 73.5 190.5t181.5 73.5zM104 300h278
q-1 43 -6.5 75t-18.5 61.5t-38.5 45t-63.5 15.5q-72 0 -110.5 -54t-40.5 -143z" />
    <glyph glyph-name="Gbreve" unicode="&#x11e;" horiz-adv-x="687" 
d="M321 750q-47 0 -74 33t-27 74h40q0 -24 16.5 -45.5t44.5 -21.5t44.5 21.5t16.5 45.5h40q0 -41 -27 -74t-74 -33zM563 287q5 0 5 -5v-228q0 -4 -3 -6q-86 -60 -214 -60q-154 0 -248 96.5t-94 264.5q0 170 91 269.5t243 92.5q55 -3 97.5 -12t57.5 -17l14 -8l10 22q1 4 6 4
h32q5 0 5 -5v-156q0 -5 -5 -5h-42q-4 0 -6 5q-10 51 -56 88t-104 39q-52 2 -92 -14.5t-65 -45.5t-41 -71t-22.5 -87.5t-6.5 -98.5q0 -65 12 -120t38 -100t71 -70.5t105 -25.5q87 0 148 45l-22 154l-85 7q-5 0 -5 5v38q0 5 5 5h171z" />
    <glyph glyph-name="gbreve" unicode="&#x11f;" horiz-adv-x="583" 
d="M260 629q-47 0 -74 33t-27 74h40q0 -24 16.5 -45.5t44.5 -21.5t44.5 21.5t16.5 45.5h40q0 -41 -27 -74t-74 -33zM530 523q5 0 5 -5v-31q0 -4 -5 -6l-101 -14q23 -18 43.5 -53.5t20.5 -74.5q0 -193 -234 -193q-63 0 -91 7q-33 -19 -29 -40q4 -17 32 -25.5t87 -14.5
q56 -5 101 -15t87 -29.5t63.5 -53t18.5 -78.5q-4 -50 -30 -86.5t-66.5 -55t-82 -27t-85.5 -8.5q-43 0 -81.5 6.5t-79 22.5t-67.5 50.5t-32 83.5q-7 62 19 100t76 70q-17 17 -17 43q0 25 13.5 38.5t40.5 27.5q-63 24 -89 67.5t-26 109.5q0 55 20 93t57 57t77 26.5t92 7.5h263
zM255 187q72 0 106 33.5t34 116.5q0 78 -29.5 115.5t-98.5 37.5q-71 0 -110.5 -38t-39.5 -116q0 -71 34.5 -110t103.5 -39zM260 -17q-93 11 -143 52q-22 -16 -31 -56.5t-1 -83.5q13 -70 56 -100.5t124 -30.5q83 0 135.5 31.5t33.5 92.5q-11 37 -50.5 60.5t-123.5 34.5z" />
    <glyph glyph-name="Gdotaccent" unicode="&#x120;" horiz-adv-x="687" 
d="M324 750q-22 0 -37.5 15.5t-15.5 37.5t15.5 37.5t37.5 15.5q21 0 36.5 -15.5t15.5 -37.5t-15.5 -37.5t-36.5 -15.5zM518 534q-4 0 -6 5q-10 51 -56 88t-104 39q-52 2 -92 -14.5t-65 -45.5t-41 -71t-22.5 -87.5t-6.5 -98.5q0 -65 12 -120t38 -100t71 -70.5t105 -25.5
q87 0 148 45l-22 154l-85 7q-5 0 -5 5v38q0 5 5 5h171q5 0 5 -5v-228q0 -4 -3 -6q-86 -60 -214 -60q-154 0 -248 96.5t-94 264.5q0 170 91 269.5t243 92.5q55 -3 97.5 -12t57.5 -17l14 -8l10 22q1 4 6 4h32q5 0 5 -5v-156q0 -5 -5 -5h-42z" />
    <glyph glyph-name="gdotaccent" unicode="&#x121;" horiz-adv-x="583" 
d="M257 647q-22 0 -37.5 15.5t-15.5 37.5t15.5 37.5t37.5 15.5q21 0 36.5 -15.5t15.5 -37.5t-15.5 -37.5t-36.5 -15.5zM4 -117q-7 62 19 100t76 70q-17 17 -17 43q0 25 13.5 38.5t40.5 27.5q-63 24 -89 67.5t-26 109.5q0 55 20 93t57 57t77 26.5t92 7.5h263q5 0 5 -5v-31
q0 -4 -5 -6l-101 -14q23 -18 43.5 -53.5t20.5 -74.5q0 -193 -234 -193q-63 0 -91 7q-33 -19 -29 -40q4 -17 32 -25.5t87 -14.5q56 -5 101 -15t87 -29.5t63.5 -53t18.5 -78.5q-4 -50 -30 -86.5t-66.5 -55t-82 -27t-85.5 -8.5q-43 0 -81.5 6.5t-79 22.5t-67.5 50.5t-32 83.5z
M117 336q0 -71 34.5 -110t103.5 -39q72 0 106 33.5t34 116.5q0 78 -29.5 115.5t-98.5 37.5q-71 0 -110.5 -38t-39.5 -116zM85 -105q13 -70 56 -100.5t124 -30.5q83 0 135.5 31.5t33.5 92.5q-11 37 -50.5 60.5t-123.5 34.5q-93 11 -143 52q-22 -16 -31 -56.5t-1 -83.5z" />
    <glyph glyph-name="Gcommaaccent" unicode="&#x122;" horiz-adv-x="687" 
d="M518 534q-4 0 -6 5q-10 51 -56 88t-104 39q-52 2 -92 -14.5t-65 -45.5t-41 -71t-22.5 -87.5t-6.5 -98.5q0 -65 12 -120t38 -100t71 -70.5t105 -25.5q87 0 148 45l-22 154l-85 7q-5 0 -5 5v38q0 5 5 5h171q5 0 5 -5v-228q0 -4 -3 -6q-86 -60 -214 -60q-154 0 -248 96.5
t-94 264.5q0 170 91 269.5t243 92.5q55 -3 97.5 -12t57.5 -17l14 -8l10 22q1 4 6 4h32q5 0 5 -5v-156q0 -5 -5 -5h-42zM321 -201q-1 5 1 7q29 26 29 60h-7q-17 1 -28 13.5t-11 31.5q0 20 14.5 31.5t31.5 11.5q18 0 31 -12t13 -35q0 -82 -63 -116q-5 -2 -7 2z" />
    <glyph glyph-name="gcommaaccent" unicode="&#x123;" horiz-adv-x="583" 
d="M293 738q1 -4 -1 -7q-29 -26 -29 -60h7q17 -1 28 -13.5t11 -31.5q0 -20 -14.5 -31.5t-31.5 -11.5q-18 0 -31 12t-13 35q0 82 63 116q5 2 7 -2zM4 -117q-7 62 19 100t76 70q-17 17 -17 43q0 25 13.5 38.5t40.5 27.5q-63 24 -89 67.5t-26 109.5q0 55 20 93t57 57t77 26.5
t92 7.5h263q5 0 5 -5v-31q0 -4 -5 -6l-101 -14q23 -18 43.5 -53.5t20.5 -74.5q0 -193 -234 -193q-63 0 -91 7q-33 -19 -29 -40q4 -17 32 -25.5t87 -14.5q56 -5 101 -15t87 -29.5t63.5 -53t18.5 -78.5q-4 -50 -30 -86.5t-66.5 -55t-82 -27t-85.5 -8.5q-43 0 -81.5 6.5
t-79 22.5t-67.5 50.5t-32 83.5zM117 336q0 -71 34.5 -110t103.5 -39q72 0 106 33.5t34 116.5q0 78 -29.5 115.5t-98.5 37.5q-71 0 -110.5 -38t-39.5 -116zM85 -105q13 -70 56 -100.5t124 -30.5q83 0 135.5 31.5t33.5 92.5q-11 37 -50.5 60.5t-123.5 34.5q-93 11 -143 52
q-22 -16 -31 -56.5t-1 -83.5z" />
    <glyph glyph-name="Hbar" unicode="&#x126;" horiz-adv-x="780" 
d="M698 663l-77 -7v-111h53q5 0 5 -5v-16q0 -5 -5 -5h-53v-476l77 -5q5 0 5 -5v-28q0 -5 -5 -5h-249q-5 0 -5 5v28q0 5 5 5l74 5v296h-346v-296l77 -5q5 0 5 -5v-28q0 -5 -5 -5h-249q-5 0 -5 5v28q0 5 5 5l74 5v476h-62q-5 0 -5 5v16q0 5 5 5h62v112l-74 6q-5 0 -5 5v27
q0 5 5 5h249q5 0 5 -5v-27q0 -5 -5 -5l-77 -7v-111h346v112l-74 6q-5 0 -5 5v27q0 5 5 5h249q5 0 5 -5v-27q0 -5 -5 -5zM523 386v133h-346v-133h346z" />
    <glyph glyph-name="hbar" unicode="&#x127;" horiz-adv-x="611" 
d="M574 38q5 0 5 -5v-28q0 -5 -5 -5h-222q-5 0 -5 5v28q0 5 5 5l62 4v274q0 40 -8.5 74t-33.5 60.5t-63 26.5q-35 0 -75 -23t-60 -54l-1 -357l65 -5q5 0 5 -5v-28q0 -5 -5 -5h-233q-5 0 -5 5v28q0 5 5 5l76 4v564h-74q-5 0 -5 5v36q0 5 5 5h74v66l-75 6q-5 0 -5 5v28
q0 5 5 5h162q5 0 5 -5v-105h145q5 0 5 -5v-36q0 -5 -5 -5h-145v-152q19 29 71.5 53t100.5 20q160 -15 160 -191v-293z" />
    <glyph glyph-name="Imacron" unicode="&#x12a;" horiz-adv-x="354" 
d="M-53 771q0 5 5 5h362q5 0 5 -5v-16q0 -5 -5 -5h-362q-5 0 -5 5v16zM1 695q0 5 5 5h252q5 0 5 -5v-27q0 -5 -5 -5l-78 -7v-613l78 -5q5 0 5 -5v-28q0 -5 -5 -5h-252q-5 0 -5 5v28q0 5 5 5l76 5v614l-76 6q-5 0 -5 5v27z" />
    <glyph glyph-name="imacron" unicode="&#x12b;" horiz-adv-x="300" 
d="M-86 691q0 5 5 5h362q5 0 5 -5v-16q0 -5 -5 -5h-362q-5 0 -5 5v16zM242 5q0 -5 -5 -5h-246q-5 0 -5 5v27q0 5 5 5l77 5v438l-76 6q-5 0 -5 5v27q0 5 5 5h162q5 0 5 -5v-475l78 -6q5 0 5 -5v-27z" />
    <glyph glyph-name="Iogonek" unicode="&#x12e;" horiz-adv-x="354" 
d="M258 663l-78 -7v-613l78 -5q5 0 5 -5v-28q0 -5 -5 -5h-63q-21 -5 -56 -22t-47 -32q-20 -23 0 -43q30 -29 98 -5q11 4 23 10q5 2 7 -2l10 -16q4 -4 -2 -6q-31 -17 -70.5 -24t-75.5 5q-49 22 -44.5 64.5t64.5 70.5h-96q-5 0 -5 5v28q0 5 5 5l76 5v614l-76 6q-5 0 -5 5v27
q0 5 5 5h252q5 0 5 -5v-27q0 -5 -5 -5z" />
    <glyph glyph-name="iogonek" unicode="&#x12f;" horiz-adv-x="300" 
d="M113 647q-22 0 -37.5 15.5t-15.5 37.5t15.5 37.5t37.5 15.5q21 0 36.5 -15.5t15.5 -37.5t-15.5 -37.5t-36.5 -15.5zM237 37q5 0 5 -5v-27q0 -5 -5 -5h-42q-21 -5 -56 -22t-47 -32q-20 -23 0 -43q30 -29 98 -5q11 4 23 10q5 2 7 -2l10 -16q4 -4 -2 -6q-31 -17 -70.5 -24
t-75.5 5q-49 22 -44.5 64.5t64.5 70.5h-111q-5 0 -5 5v27q0 5 5 5l77 5v438l-76 6q-5 0 -5 5v27q0 5 5 5h162q5 0 5 -5v-475z" />
    <glyph glyph-name="Idotaccent" unicode="&#x130;" horiz-adv-x="354" 
d="M129 750q-22 0 -37.5 15.5t-15.5 37.5t15.5 37.5t37.5 15.5q21 0 36.5 -15.5t15.5 -37.5t-15.5 -37.5t-36.5 -15.5zM1 695q0 5 5 5h252q5 0 5 -5v-27q0 -5 -5 -5l-78 -7v-613l78 -5q5 0 5 -5v-28q0 -5 -5 -5h-252q-5 0 -5 5v28q0 5 5 5l76 5v614l-76 6q-5 0 -5 5v27z" />
    <glyph glyph-name="dotlessi" unicode="&#x131;" horiz-adv-x="300" 
d="M242 5q0 -5 -5 -5h-246q-5 0 -5 5v27q0 5 5 5l77 5v438l-76 6q-5 0 -5 5v27q0 5 5 5h162q5 0 5 -5v-475l78 -6q5 0 5 -5v-27z" />
    <glyph glyph-name="Kcommaaccent" unicode="&#x136;" horiz-adv-x="706" 
d="M366 33q0 4 5 6l69 9l-227 267l-36 -39v-232l78 -6q5 0 5 -5v-28q0 -5 -5 -5h-250q-5 0 -5 5v28q0 5 5 5l75 6v613l-75 6q-5 0 -5 5v27q0 5 5 5h250q5 0 5 -5v-27q0 -5 -5 -5l-78 -7v-315l294 312l-61 10q-5 2 -5 6v26q0 5 5 5h182q5 0 5 -5v-27q0 -4 -5 -6l-60 -10
l-257 -275l279 -329l79 -8q5 0 5 -5v-30q0 -5 -5 -5h-262q-5 0 -5 5v28zM280 -201q-2 5 1 7q29 26 29 60h-7q-17 1 -28 13.5t-11 31.5q0 20 14.5 31.5t31.5 11.5q18 0 31 -12t13 -35q0 -82 -63 -116q-5 -2 -7 2z" />
    <glyph glyph-name="kcommaaccent" unicode="&#x137;" horiz-adv-x="615" 
d="M236 5q0 -5 -5 -5h-244q-5 0 -5 5v28q0 5 5 5l76 5v675l-75 6q-5 0 -5 5v28q0 5 5 5h162q5 0 5 -5v-470l217 187l-71 15q-4 1 -4 6v23q0 5 5 5h204q5 0 5 -5v-22q0 -5 -4 -6l-73 -16l-183 -162l250 -267l70 -6q5 0 5 -5v-29q0 -5 -5 -5h-238q-5 0 -5 5v28q0 5 5 5l67 5
l-208 219l-37 -32v-186l76 -6q5 0 5 -5v-28zM256 -201q-2 5 1 7q29 26 29 60h-7q-17 1 -28 13.5t-11 31.5q0 20 14.5 31.5t31.5 11.5q18 0 31 -12t13 -35q0 -82 -63 -116q-5 -2 -7 2z" />
    <glyph glyph-name="Lacute" unicode="&#x139;" horiz-adv-x="579" 
d="M64 766q-2 5 2 7q93 71 128 94q16 11 31.5 1.5t15.5 -25.5t-17 -27q-72 -34 -148 -64q-2 -1 -5 -1q-1 1 -3.5 6.5t-3.5 8.5zM0 695q0 5 5 5h168q5 0 5 -5v-651h253l11 79q2 5 6 5h30q5 0 5 -5v-118q0 -5 -5 -5h-473q-5 0 -5 5v28q0 5 5 5l75 5v614l-75 6q-5 0 -5 5v27z
" />
    <glyph glyph-name="lacute" unicode="&#x13a;" horiz-adv-x="289" 
d="M53 802q-2 5 2 7q93 71 128 94q16 11 31.5 1.5t15.5 -25.5t-17 -27q-72 -34 -148 -64q-2 -1 -5 -1q0 1 -3 7zM256 5q0 -5 -5 -5h-246q-5 0 -5 5v28q0 5 5 5l77 5v675l-76 6q-5 0 -5 5v28q0 5 5 5h162q5 0 5 -5v-713l78 -6q5 0 5 -5v-28z" />
    <glyph glyph-name="Lcommaaccent" unicode="&#x13b;" horiz-adv-x="579" 
d="M0 695q0 5 5 5h168q5 0 5 -5v-651h253l11 79q2 5 6 5h30q5 0 5 -5v-118q0 -5 -5 -5h-473q-5 0 -5 5v28q0 5 5 5l75 5v614l-75 6q-5 0 -5 5v27zM225 -201q-1 5 1 7q29 26 29 60h-7q-17 1 -28 13.5t-11 31.5q0 20 14.5 31.5t31.5 11.5q18 0 31 -12t13 -35q0 -82 -63 -116
q-5 -2 -7 2z" />
    <glyph glyph-name="lcommaaccent" unicode="&#x13c;" horiz-adv-x="289" 
d="M256 5q0 -5 -5 -5h-246q-5 0 -5 5v28q0 5 5 5l77 5v675l-76 6q-5 0 -5 5v28q0 5 5 5h162q5 0 5 -5v-713l78 -6q5 0 5 -5v-28zM94 -201q-2 5 1 7q29 26 29 60h-7q-17 1 -28 13.5t-11 31.5q0 20 14.5 31.5t31.5 11.5q18 0 31 -12t13 -35q0 -82 -63 -116q-5 -2 -7 2z" />
    <glyph glyph-name="Lcaron" unicode="&#x13d;" horiz-adv-x="579" 
d="M294 553q-2 5 1 7q29 26 29 60h-7q-17 1 -28 13.5t-11 31.5q0 20 14.5 31.5t31.5 11.5q18 0 31 -12t13 -35q0 -82 -63 -116q-5 -2 -7 2zM0 695q0 5 5 5h168q5 0 5 -5v-651h253l11 79q2 5 6 5h30q5 0 5 -5v-118q0 -5 -5 -5h-473q-5 0 -5 5v28q0 5 5 5l75 5v614l-75 6
q-5 0 -5 5v27z" />
    <glyph glyph-name="lcaron" unicode="&#x13e;" horiz-adv-x="289" 
d="M256 5q0 -5 -5 -5h-246q-5 0 -5 5v28q0 5 5 5l77 5v675l-76 6q-5 0 -5 5v28q0 5 5 5h162q5 0 5 -5v-713l78 -6q5 0 5 -5v-28zM227 593q-1 5 1 7q29 26 29 60h-7q-17 1 -28 13.5t-11 31.5q0 20 14.5 31.5t31.5 11.5q18 0 31 -12t13 -35q0 -82 -63 -116q-5 -2 -7 2z" />
    <glyph glyph-name="Lslash" unicode="&#x141;" horiz-adv-x="579" 
d="M478 128q5 0 5 -5v-118q0 -5 -5 -5h-473q-5 0 -5 5v28q0 5 5 5l75 5v246l-73 -52q-6 -4 -6 3v40q0 4 3 6l76 54v317l-75 6q-5 0 -5 5v27q0 5 5 5h168q5 0 5 -5v-284l83 59q6 4 6 -3v-40q0 -5 -3 -6l-86 -62v-315h253l11 79q2 5 6 5h30z" />
    <glyph glyph-name="lslash" unicode="&#x142;" horiz-adv-x="285" 
d="M251 38q5 0 5 -5v-28q0 -5 -5 -5h-246q-5 0 -5 5v28q0 5 5 5l77 5v287l-79 -53q-6 -4 -6 3v40q0 4 3 6l82 55v337l-76 6q-5 0 -5 5v28q0 5 5 5h162q5 0 5 -5v-315l61 41q6 4 6 -3v-40q0 -4 -3 -6l-64 -43v-347z" />
    <glyph glyph-name="Nacute" unicode="&#x143;" horiz-adv-x="711" 
d="M254 766q-2 5 2 7q93 71 128 94q16 11 31.5 1.5t15.5 -25.5t-17 -27q-72 -34 -148 -64q-2 -1 -5 -1q-1 1 -3.5 6.5t-3.5 8.5zM1 33q0 5 5 5l80 9v610l-80 6q-5 0 -5 5v27q0 5 5 5h205q5 0 6 -3l320 -489v448l-67 7q-5 0 -5 5v27q0 5 5 5h178q5 0 5 -5v-27q0 -5 -5 -5
l-67 -7v-651q0 -5 -5 -5h-30q-4 0 -6 3l-410 649v-606l74 -8q5 0 5 -5v-28q0 -5 -5 -5h-198q-5 0 -5 5v28z" />
    <glyph glyph-name="nacute" unicode="&#x144;" horiz-adv-x="597" 
d="M190 638q-2 5 2 7q93 71 128 94q16 11 31.5 1.5t15.5 -25.5t-17 -27q-72 -34 -148 -64q-2 -1 -5 -1l-3.5 7t-3.5 8zM237 5q0 -5 -5 -5h-226q-5 0 -5 5v28q0 5 5 5l71 5v437l-70 6q-5 0 -5 5v27q0 5 5 5h157q5 0 5 -5v-68q20 33 68 55t100 22q74 0 114.5 -44t40.5 -125
v-314l72 -6q5 0 5 -5v-28q0 -5 -5 -5h-225q-5 0 -5 5v28q0 5 5 5l62 5v293q0 72 -24 108.5t-89 30.5q-35 -3 -69.5 -29.5t-49.5 -53.5v-348l63 -6q5 0 5 -5v-28z" />
    <glyph glyph-name="Ncommaaccent" unicode="&#x145;" horiz-adv-x="711" 
d="M1 33q0 5 5 5l80 9v610l-80 6q-5 0 -5 5v27q0 5 5 5h205q5 0 6 -3l320 -489v448l-67 7q-5 0 -5 5v27q0 5 5 5h178q5 0 5 -5v-27q0 -5 -5 -5l-67 -7v-651q0 -5 -5 -5h-30q-4 0 -6 3l-410 649v-606l74 -8q5 0 5 -5v-28q0 -5 -5 -5h-198q-5 0 -5 5v28zM315 -201q-1 5 1 7
q29 26 29 60h-7q-17 1 -28 13.5t-11 31.5q0 20 14.5 31.5t31.5 11.5q18 0 31 -12t13 -35q0 -82 -63 -116q-5 -2 -7 2z" />
    <glyph glyph-name="ncommaaccent" unicode="&#x146;" horiz-adv-x="597" 
d="M237 5q0 -5 -5 -5h-226q-5 0 -5 5v28q0 5 5 5l71 5v437l-70 6q-5 0 -5 5v27q0 5 5 5h157q5 0 5 -5v-68q20 33 68 55t100 22q74 0 114.5 -44t40.5 -125v-314l72 -6q5 0 5 -5v-28q0 -5 -5 -5h-225q-5 0 -5 5v28q0 5 5 5l62 5v293q0 72 -24 108.5t-89 30.5
q-35 -3 -69.5 -29.5t-49.5 -53.5v-348l63 -6q5 0 5 -5v-28zM259 -201q-1 5 1 7q29 26 29 60h-7q-17 1 -28 13.5t-11 31.5q0 20 14.5 31.5t31.5 11.5q18 0 31 -12t13 -35q0 -82 -63 -116q-5 -2 -7 2z" />
    <glyph glyph-name="Ncaron" unicode="&#x147;" horiz-adv-x="711" 
d="M305 750l-78 104h34l67 -64l67 64h34l-78 -104h-46zM648 700q5 0 5 -5v-27q0 -5 -5 -5l-67 -7v-651q0 -5 -5 -5h-30q-4 0 -6 3l-410 649v-606l74 -8q5 0 5 -5v-28q0 -5 -5 -5h-198q-5 0 -5 5v28q0 5 5 5l80 9v610l-80 6q-5 0 -5 5v27q0 5 5 5h205q5 0 6 -3l320 -489v448
l-67 7q-5 0 -5 5v27q0 5 5 5h178z" />
    <glyph glyph-name="ncaron" unicode="&#x148;" horiz-adv-x="597" 
d="M251 632l-78 104h34l67 -64l67 64h34l-78 -104h-46zM564 38q5 0 5 -5v-28q0 -5 -5 -5h-225q-5 0 -5 5v28q0 5 5 5l62 5v293q0 72 -24 108.5t-89 30.5q-35 -3 -69.5 -29.5t-49.5 -53.5v-348l63 -6q5 0 5 -5v-28q0 -5 -5 -5h-226q-5 0 -5 5v28q0 5 5 5l71 5v437l-70 6
q-5 0 -5 5v27q0 5 5 5h157q5 0 5 -5v-68q20 33 68 55t100 22q74 0 114.5 -44t40.5 -125v-314z" />
    <glyph glyph-name="Eng" unicode="&#x14a;" horiz-adv-x="680" 
d="M648 700q5 0 5 -5v-27q0 -5 -5 -5l-67 -7v-715q0 -101 -32.5 -149.5t-106.5 -48.5h-50q-5 0 -5 5v28q0 5 5 5h45q99 0 99 157v71l-406 643v-606l74 -8q5 0 5 -5v-28q0 -5 -5 -5h-198q-5 0 -5 5v28q0 5 5 5l80 9v610l-80 6q-5 0 -5 5v27q0 5 5 5h205q5 0 6 -3l320 -489
v448l-67 7q-5 0 -5 5v27q0 5 5 5h178z" />
    <glyph glyph-name="eng" unicode="&#x14b;" horiz-adv-x="550" 
d="M337 527q74 0 114.5 -44t40.5 -125v-417q0 -99 -50 -148.5t-140 -49.5h-45q-5 0 -5 5v28q0 5 5 5h45q99 0 99 157v378q0 35 -4.5 61.5t-16.5 49.5t-35 33.5t-57 7.5q-36 -3 -70 -28.5t-49 -52.5v-343l63 -6q5 0 5 -5v-28q0 -5 -5 -5h-226q-5 0 -5 5v28q0 5 5 5l71 5v437
l-70 6q-5 0 -5 5v27q0 5 5 5h157q5 0 5 -5v-68q20 33 68 55t100 22z" />
    <glyph glyph-name="Omacron" unicode="&#x14c;" horiz-adv-x="769" 
d="M155 771q0 5 5 5h362q5 0 5 -5v-16q0 -5 -5 -5h-362q-5 0 -5 5v16zM7 349q0 168 91 265t245 97q153 0 245 -97t92 -265q0 -167 -91.5 -264t-245.5 -97t-245 96.5t-91 264.5zM128 349q0 -68 8.5 -120t31 -99t66.5 -72.5t109 -25.5t109.5 25.5t66.5 72.5t31 99t9 120
q0 54 -5 97t-19.5 85.5t-37.5 71.5t-62.5 46.5t-91.5 17.5q-65 0 -109 -25.5t-66.5 -73t-31 -99.5t-8.5 -120z" />
    <glyph glyph-name="omacron" unicode="&#x14d;" horiz-adv-x="603" 
d="M74 691q0 5 5 5h362q5 0 5 -5v-16q0 -5 -5 -5h-362q-5 0 -5 5v16zM10 259q0 116 66.5 191.5t186.5 75.5q116 0 185 -70t69 -197q0 -124 -70 -197.5t-184 -73.5q-119 0 -186 78.5t-67 192.5zM119 259q0 -42 1.5 -69.5t9.5 -62.5t23 -55t42.5 -34.5t67.5 -14.5
q37 0 64.5 14.5t43 36t24.5 55t11.5 63t2.5 67.5q0 236 -146 236q-144 0 -144 -236z" />
    <glyph glyph-name="Ohungarumlaut" unicode="&#x150;" horiz-adv-x="769" 
d="M223 764q-3 4 0 7q11 11 58 61.5t51 54.5q15 14 31.5 7t19 -22.5t-11.5 -29.5q-78 -54 -133 -89q-4 -3 -5 -2zM360 764q-3 4 0 7q11 11 58 61.5t51 54.5q15 14 31.5 7t19 -22.5t-11.5 -29.5q-78 -54 -133 -89q-4 -3 -5 -2zM7 349q0 168 91 265t245 97q153 0 245 -97
t92 -265q0 -167 -91.5 -264t-245.5 -97t-245 96.5t-91 264.5zM128 349q0 -68 8.5 -120t31 -99t66.5 -72.5t109 -25.5t109.5 25.5t66.5 72.5t31 99t9 120q0 54 -5 97t-19.5 85.5t-37.5 71.5t-62.5 46.5t-91.5 17.5q-65 0 -109 -25.5t-66.5 -73t-31 -99.5t-8.5 -120z" />
    <glyph glyph-name="ohungarumlaut" unicode="&#x151;" horiz-adv-x="603" 
d="M141 608q-3 4 0 7q11 11 58 61.5t51 54.5q15 14 31.5 7t19 -22.5t-11.5 -29.5q-78 -54 -133 -89q-4 -3 -5 -2zM278 608q-3 4 0 7q11 11 58 61.5t51 54.5q15 14 31.5 7t19 -22.5t-11.5 -29.5q-78 -54 -133 -89q-4 -3 -5 -2zM10 259q0 116 66.5 191.5t186.5 75.5
q116 0 185 -70t69 -197q0 -124 -70 -197.5t-184 -73.5q-119 0 -186 78.5t-67 192.5zM119 259q0 -42 1.5 -69.5t9.5 -62.5t23 -55t42.5 -34.5t67.5 -14.5q37 0 64.5 14.5t43 36t24.5 55t11.5 63t2.5 67.5q0 236 -146 236q-144 0 -144 -236z" />
    <glyph glyph-name="OE" unicode="&#x152;" horiz-adv-x="1040" 
d="M953 656h-271v-270h209l8 61q2 5 6 5h29q5 0 5 -5v-174q0 -5 -5 -5h-27q-5 0 -6 5l-12 66h-207v-295h271l12 79q2 5 6 5h31q5 0 5 -5v-118q0 -5 -5 -5h-412q-5 0 -5 5v76q-91 -93 -242 -93q-154 0 -245 96.5t-91 264.5t91 265t245 97q151 0 242 -94v78q0 5 5 5h412
q5 0 5 -5v-118q0 -5 -5 -5h-33q-4 0 -6 5zM343 32q65 0 109.5 25.5t66.5 72.5t31 99t9 120q0 54 -5 97t-19.5 85.5t-37.5 71.5t-62.5 46.5t-91.5 17.5q-65 0 -109 -25.5t-66.5 -73t-31 -99.5t-8.5 -120t8.5 -120t31 -99t66.5 -72.5t109 -25.5z" />
    <glyph glyph-name="oe" unicode="&#x153;" horiz-adv-x="920" 
d="M678 526q220 0 222 -265q0 -5 -5 -5h-358q5 -101 51 -159.5t131 -58.5q75 0 141 42q4 3 7 -1q2 -1 8 -8t10 -12q3 -4 -1 -7q-80 -63 -193 -63q-68 0 -123.5 29.5t-90.5 83.5q-67 -114 -214 -114q-119 0 -186 78.5t-67 192.5q0 116 66.5 191.5t186.5 75.5q147 0 213 -106
q68 106 202 106zM263 23q37 0 64.5 14.5t43 36t24.5 55t11.5 63t2.5 67.5q0 236 -146 236q-144 0 -144 -236q0 -42 1.5 -69.5t9.5 -62.5t23 -55t42.5 -34.5t67.5 -14.5zM537 300h268q-1 43 -6.5 73.5t-18.5 58t-38.5 41.5t-63.5 14q-138 0 -141 -187z" />
    <glyph glyph-name="Racute" unicode="&#x154;" horiz-adv-x="679" 
d="M211 766q-2 5 2 7q93 71 128 94q16 11 31.5 1.5t15.5 -25.5t-17 -27q-72 -34 -148 -64q-2 -1 -5 -1q0 1 -3 6.5t-4 8.5zM-1 695q0 5 5 5h357q83 0 141 -48.5t58 -133.5q0 -81 -45 -143.5t-124 -73.5l185 -261l57 -3q5 0 5 -5v-27q0 -5 -5 -5h-137q-4 0 -6 3l-201 294
h-113v-254l77 -6q5 0 5 -5v-27q0 -5 -5 -5h-249q-5 0 -5 5v27q0 5 5 5l75 6v614l-75 6q-5 0 -5 5v27zM469 514q0 51 -26.5 96.5t-75.5 45.5h-191v-312h158q75 0 105 44t30 126z" />
    <glyph glyph-name="racute" unicode="&#x155;" horiz-adv-x="400" 
d="M105 638q-2 5 2 7q93 71 128 94q16 11 31.5 1.5t15.5 -25.5t-17 -27q-72 -34 -148 -64q-2 -1 -5 -1q0 2 -3 7t-4 8zM349 453q-2 -6 -7 -3q-45 28 -94.5 12t-70.5 -63l-1 -356l80 -4q5 0 5 -5v-29q0 -5 -5 -5h-248q-5 0 -5 5v28q0 5 5 5l78 4v438l-77 5q-5 0 -5 5v28
q0 5 5 5h162q5 0 5 -5v-65q25 38 64 58t71.5 17.5t59.5 -13.5q4 -1 2 -6z" />
    <glyph glyph-name="Rcommaaccent" unicode="&#x156;" horiz-adv-x="679" 
d="M-1 695q0 5 5 5h357q83 0 141 -48.5t58 -133.5q0 -81 -45 -143.5t-124 -73.5l185 -261l57 -3q5 0 5 -5v-27q0 -5 -5 -5h-137q-4 0 -6 3l-201 294h-113v-254l77 -6q5 0 5 -5v-27q0 -5 -5 -5h-249q-5 0 -5 5v27q0 5 5 5l75 6v614l-75 6q-5 0 -5 5v27zM469 514
q0 51 -26.5 96.5t-75.5 45.5h-191v-312h158q75 0 105 44t30 126zM292 -201q-2 5 1 7q29 26 29 60h-7q-17 1 -28 13.5t-11 31.5q0 20 14.5 31.5t31.5 11.5q18 0 31 -12t13 -35q0 -82 -63 -116q-5 -2 -7 2z" />
    <glyph glyph-name="rcommaaccent" unicode="&#x157;" horiz-adv-x="400" 
d="M349 453q-2 -6 -7 -3q-45 28 -94.5 12t-70.5 -63l-1 -356l80 -4q5 0 5 -5v-29q0 -5 -5 -5h-248q-5 0 -5 5v28q0 5 5 5l78 4v438l-77 5q-5 0 -5 5v28q0 5 5 5h162q5 0 5 -5v-65q25 38 64 58t71.5 17.5t59.5 -13.5q4 -1 2 -6zM103 -201q-1 5 1 7q29 26 29 60h-7
q-17 1 -28 13.5t-11 31.5q0 20 14.5 31.5t31.5 11.5q18 0 31 -12t13 -35q0 -82 -63 -116q-5 -2 -7 2z" />
    <glyph glyph-name="Rcaron" unicode="&#x158;" horiz-adv-x="679" 
d="M245 750l-78 104h34l67 -64l67 64h34l-78 -104h-46zM633 37q5 0 5 -5v-27q0 -5 -5 -5h-137q-4 0 -6 3l-201 294h-113v-254l77 -6q5 0 5 -5v-27q0 -5 -5 -5h-249q-5 0 -5 5v27q0 5 5 5l75 6v614l-75 6q-5 0 -5 5v27q0 5 5 5h357q83 0 141 -48.5t58 -133.5
q0 -81 -45 -143.5t-124 -73.5l185 -261zM176 344h158q75 0 105 44t30 126q0 51 -26.5 96.5t-75.5 45.5h-191v-312z" />
    <glyph glyph-name="rcaron" unicode="&#x159;" horiz-adv-x="400" 
d="M169 632l-78 104h34l67 -64l67 64h34l-78 -104h-46zM371 515q4 -1 2 -6l-24 -56q-2 -6 -7 -3q-45 28 -94.5 12t-70.5 -63l-1 -356l80 -4q5 0 5 -5v-29q0 -5 -5 -5h-248q-5 0 -5 5v28q0 5 5 5l78 4v438l-77 5q-5 0 -5 5v28q0 5 5 5h162q5 0 5 -5v-65q25 38 64 58
t71.5 17.5t59.5 -13.5z" />
    <glyph glyph-name="Sacute" unicode="&#x15a;" horiz-adv-x="585" 
d="M176 766q-2 5 2 7q93 71 128 94q16 11 31.5 1.5t15.5 -25.5t-17 -27q-72 -34 -148 -64q-2 -1 -5 -1q-1 1 -3.5 6.5t-3.5 8.5zM434 534q-4 0 -6 5q-9 60 -60.5 95.5t-112.5 33.5q-130 -4 -130 -98q0 -49 39.5 -88t96 -68t113 -60t96 -79.5t39.5 -110.5q0 -50 -23 -87
t-60.5 -56t-79 -27.5t-85.5 -6.5q-55 3 -103 14t-68 21l-20 10q-4 3 -7.5 -1.5t-6.5 -14.5t-5 -13q-1 -3 -6 -3h-29q-5 0 -5 5v156q0 5 5 5h41q4 0 5 -4q18 -54 74 -88.5t127 -37.5q136 -5 136 93q0 47 -37.5 86t-90.5 68.5t-106 61t-90.5 78t-37.5 105.5q0 90 62.5 137
t151.5 46q57 0 101.5 -9.5t60.5 -19.5l16 -9q2 -1 3.5 2.5t3 10.5t2.5 10q1 4 6 4h32q5 0 5 -5v-156q0 -5 -5 -5h-42z" />
    <glyph glyph-name="sacute" unicode="&#x15b;" horiz-adv-x="453" 
d="M124 638q-2 5 2 7q93 71 128 94q16 11 31.5 1.5t15.5 -25.5t-17 -27q-72 -34 -148 -64q-2 -1 -5 -1l-3.5 7t-3.5 8zM343 379q-4 0 -5 4q-32 109 -135 109q-33 0 -68.5 -18t-35.5 -55q0 -22 17 -42.5t34.5 -31.5t45.5 -25q50 -26 80 -43.5t62 -42t47.5 -49t16.5 -52.5
q3 -77 -49.5 -110.5t-133.5 -33.5q-39 0 -78.5 8.5t-60.5 17.5l-20 9q-2 1 -3.5 -2.5t-2.5 -9.5t-2 -8q-1 -4 -5 -4h-29q-5 0 -5 5v138q0 5 5 5h27q5 0 6 -4q13 -50 63 -81t100 -32q92 -2 92 65q0 29 -35.5 57t-115.5 75q-32 19 -47.5 29t-39 30t-33.5 43.5t-10 52.5
q0 72 49.5 107t121.5 35q65 0 128 -21q6 -2 6 4l1 10q0 5 6 5h33q5 0 5 -5v-134q0 -5 -5 -5h-27z" />
    <glyph glyph-name="Scedilla" unicode="&#x15e;" horiz-adv-x="585" 
d="M509 164q0 -46 -20 -81.5t-53 -55t-71 -29.5t-79 -11l-4 -25q6 4 26 5t40 -6q26 -11 24 -47t-36 -49q-43 -16 -104 -5q-5 2 -4 6l3 23q1 4 6 4q15 -4 36 -3q27 0 36.5 10.5t0.5 26.5q-10 15 -67 1q-6 0 -5 5l7 55q-51 4 -94.5 15t-62.5 20l-18 9q-4 3 -7.5 -1.5
t-6.5 -14.5t-5 -13q-1 -3 -6 -3h-29q-5 0 -5 5v156q0 5 5 5h41q4 0 5 -4q18 -54 74 -88.5t127 -37.5q136 -5 136 93q0 47 -37.5 86t-90.5 68.5t-106 61t-90.5 78t-37.5 105.5q0 90 62.5 137t151.5 46q57 0 101.5 -9.5t60.5 -19.5l16 -9q2 -1 3.5 2.5t3 10.5t2.5 10q1 4 6 4
h32q5 0 5 -5v-156q0 -5 -5 -5h-42q-4 0 -6 5q-9 60 -60.5 95.5t-112.5 33.5q-130 -4 -130 -98q0 -49 39.5 -88t96 -68t113 -60t96 -79.5t39.5 -110.5z" />
    <glyph glyph-name="scedilla" unicode="&#x15f;" horiz-adv-x="453" 
d="M402 133q3 -73 -44.5 -107t-123.5 -37l-4 -27q6 4 26 5t40 -6q26 -11 24 -47t-36 -49q-43 -16 -104 -5q-5 2 -4 6l3 23q1 4 6 4q15 -4 36 -3q27 0 36.5 10.5t0.5 26.5q-10 15 -67 1q-6 0 -5 5l7 57q-33 3 -66.5 11.5t-50.5 15.5l-16 7q-2 1 -3.5 -2.5t-2.5 -9.5t-2 -8
q-1 -4 -5 -4h-29q-5 0 -5 5v138q0 5 5 5h27q5 0 6 -4q13 -50 63 -81t100 -32q92 -2 92 65q0 29 -35.5 57t-115.5 75q-32 19 -47.5 29t-39 30t-33.5 43.5t-10 52.5q0 72 49.5 107t121.5 35q65 0 128 -21q6 -2 6 4l1 10q0 5 6 5h33q5 0 5 -5v-134q0 -5 -5 -5h-27q-4 0 -5 4
q-32 109 -135 109q-33 0 -68.5 -18t-35.5 -55q0 -22 17 -42.5t34.5 -31.5t45.5 -25q50 -26 80 -43.5t62 -42t47.5 -49t16.5 -52.5z" />
    <glyph glyph-name="Scaron" unicode="&#x160;" horiz-adv-x="585" 
d="M231 750l-78 104h34l67 -64l67 64h34l-78 -104h-46zM125 570q0 -49 39.5 -88t96 -68t113 -60t96 -79.5t39.5 -110.5q0 -50 -23 -87t-60.5 -56t-79 -27.5t-85.5 -6.5q-55 3 -103 14t-68 21l-20 10q-4 3 -7.5 -1.5t-6.5 -14.5t-5 -13q-1 -3 -6 -3h-29q-5 0 -5 5v156
q0 5 5 5h41q4 0 5 -4q18 -54 74 -88.5t127 -37.5q136 -5 136 93q0 47 -37.5 86t-90.5 68.5t-106 61t-90.5 78t-37.5 105.5q0 90 62.5 137t151.5 46q57 0 101.5 -9.5t60.5 -19.5l16 -9q2 -1 3.5 2.5t3 10.5t2.5 10q1 4 6 4h32q5 0 5 -5v-156q0 -5 -5 -5h-42q-4 0 -6 5
q-9 60 -60.5 95.5t-112.5 33.5q-130 -4 -130 -98z" />
    <glyph glyph-name="scaron" unicode="&#x161;" horiz-adv-x="453" 
d="M178 632l-78 104h34l67 -64l67 64h34l-78 -104h-46zM402 133q3 -77 -49.5 -110.5t-133.5 -33.5q-39 0 -78.5 8.5t-60.5 17.5l-20 9q-2 1 -3.5 -2.5t-2.5 -9.5t-2 -8q-1 -4 -5 -4h-29q-5 0 -5 5v138q0 5 5 5h27q5 0 6 -4q13 -50 63 -81t100 -32q92 -2 92 65q0 29 -35.5 57
t-115.5 75q-32 19 -47.5 29t-39 30t-33.5 43.5t-10 52.5q0 72 49.5 107t121.5 35q65 0 128 -21q6 -2 6 4l1 10q0 5 6 5h33q5 0 5 -5v-134q0 -5 -5 -5h-27q-4 0 -5 4q-32 109 -135 109q-33 0 -68.5 -18t-35.5 -55q0 -22 17 -42.5t34.5 -31.5t45.5 -25q50 -26 80 -43.5t62 -42
t47.5 -49t16.5 -52.5z" />
    <glyph glyph-name="uni0162" unicode="&#x162;" horiz-adv-x="635" 
d="M571 700q5 0 5 -5v-118q0 -5 -5 -5h-33q-4 0 -6 5l-10 79h-182v-613l77 -5q5 0 5 -5v-28q0 -5 -5 -5h-108l-6 -38q6 4 26 5t40 -6q26 -11 24 -47t-36 -49q-43 -16 -104 -5q-5 2 -4 6l3 23q1 4 6 4q15 -4 36 -3q27 0 36.5 10.5t0.5 26.5q-10 15 -67 1q-6 0 -5 5l8 67h-100
q-5 0 -5 5v28q0 5 5 5l75 5v613h-180l-11 -79q-2 -5 -6 -5h-32q-5 0 -5 5v118q0 5 5 5h558z" />
    <glyph glyph-name="uni0163" unicode="&#x163;" horiz-adv-x="357" 
d="M298 523q5 0 5 -5v-27q0 -5 -5 -5h-127v-334q0 -116 48 -116q33 0 58 27q3 3 6 0q7 -7 12 -13q3 -4 0 -8q-34 -42 -90 -49l-5 -31q6 4 26 5t40 -6q26 -11 24 -47t-36 -49q-43 -16 -104 -5q-5 2 -4 6l3 23q1 4 6 4q15 -4 36 -3q27 0 36.5 10.5t0.5 26.5q-10 15 -67 1
q-6 0 -5 5l7 61q-82 13 -82 120v372h-95q-5 0 -5 5v27q0 5 5 5h95v137q0 5 5 5h80q5 0 5 -5v-137h127z" />
    <glyph glyph-name="Tcaron" unicode="&#x164;" horiz-adv-x="635" 
d="M271 750l-78 104h34l67 -64l67 64h34l-78 -104h-46zM571 700q5 0 5 -5v-118q0 -5 -5 -5h-33q-4 0 -6 5l-10 79h-182v-613l77 -5q5 0 5 -5v-28q0 -5 -5 -5h-250q-5 0 -5 5v28q0 5 5 5l75 5v613h-180l-11 -79q-2 -5 -6 -5h-32q-5 0 -5 5v118q0 5 5 5h558z" />
    <glyph glyph-name="tcaron" unicode="&#x165;" horiz-adv-x="357" 
d="M289 593q-1 5 1 7q29 26 29 60h-7q-17 1 -28 13.5t-11 31.5q0 20 14.5 31.5t31.5 11.5q18 0 31 -12t13 -35q0 -82 -63 -116q-5 -2 -7 2zM-19 518q0 5 5 5h95v137q0 5 5 5h80q5 0 5 -5v-137h127q5 0 5 -5v-27q0 -5 -5 -5h-127v-334q0 -116 48 -116q33 0 58 27q3 3 6 0
q7 -7 12 -13q3 -4 0 -8q-42 -50 -109 -50q-52 0 -78.5 31.5t-26.5 90.5v372h-95q-5 0 -5 5v27z" />
    <glyph glyph-name="Tbar" unicode="&#x166;" horiz-adv-x="635" 
d="M571 700q5 0 5 -5v-118q0 -5 -5 -5h-33q-4 0 -6 5l-10 79h-182v-184h108q5 0 5 -5v-36q0 -5 -5 -5h-108v-383l77 -5q5 0 5 -5v-28q0 -5 -5 -5h-250q-5 0 -5 5v28q0 5 5 5l75 5v383h-105q-5 0 -5 5v36q0 5 5 5h105v184h-180l-11 -79q-2 -5 -6 -5h-32q-5 0 -5 5v118
q0 5 5 5h558z" />
    <glyph glyph-name="tbar" unicode="&#x167;" horiz-adv-x="357" 
d="M298 486h-127v-103h126q5 0 5 -5v-36q0 -5 -5 -5h-126v-185q0 -116 48 -116q33 0 58 27q3 3 6 0q7 -7 12 -13q3 -4 0 -8q-42 -50 -109 -50q-52 0 -78.5 31.5t-26.5 90.5v223h-95q-5 0 -5 5v36q0 5 5 5h95v103h-95q-5 0 -5 5v27q0 5 5 5h95v137q0 5 5 5h80q5 0 5 -5v-137
h127q5 0 5 -5v-27q0 -5 -5 -5z" />
    <glyph glyph-name="Umacron" unicode="&#x16a;" horiz-adv-x="708" 
d="M148 771q0 5 5 5h362q5 0 5 -5v-16q0 -5 -5 -5h-362q-5 0 -5 5v16zM573 202q0 -113 -64.5 -166t-172.5 -53q-55 0 -96.5 8t-78.5 28.5t-56.5 61.5t-19.5 102v473l-76 7q-5 0 -5 5v27q0 5 5 5h251q5 0 5 -5v-27q0 -5 -5 -5l-78 -6v-477q0 -74 42 -114.5t112 -40.5
q93 0 141.5 40t48.5 137v453l-72 8q-5 2 -5 6v26q0 5 5 5h191q5 0 5 -5v-27q0 -5 -5 -5l-72 -8v-453z" />
    <glyph glyph-name="umacron" unicode="&#x16b;" horiz-adv-x="594" 
d="M70 691q0 5 5 5h362q5 0 5 -5v-16q0 -5 -5 -5h-362q-5 0 -5 5v16zM323 518q0 5 5 5h161q5 0 5 -5v-476l62 -5q5 0 5 -5v-27q0 -5 -5 -5h-148q-5 0 -5 5v70q-77 -86 -168 -86q-74 0 -114.5 42.5t-40.5 124.5v324l-76 7q-5 0 -5 5v26q0 5 5 5h162q5 0 5 -5v-339
q0 -73 23.5 -109.5t86.5 -30.5q33 3 67.5 28t54.5 55v358l-75 7q-5 0 -5 5v26z" />
    <glyph glyph-name="Uring" unicode="&#x16e;" horiz-adv-x="708" 
d="M339 750q-29 0 -48.5 20t-19.5 48t19.5 48t48.5 20t48.5 -20t19.5 -48t-19.5 -48t-48.5 -20zM339 778q17 0 28.5 12t11.5 29t-11.5 28.5t-28.5 11.5t-28.5 -11.5t-11.5 -28.5t11.5 -29t28.5 -12zM573 202q0 -113 -64.5 -166t-172.5 -53q-55 0 -96.5 8t-78.5 28.5
t-56.5 61.5t-19.5 102v473l-76 7q-5 0 -5 5v27q0 5 5 5h251q5 0 5 -5v-27q0 -5 -5 -5l-78 -6v-477q0 -74 42 -114.5t112 -40.5q93 0 141.5 40t48.5 137v453l-72 8q-5 2 -5 6v26q0 5 5 5h191q5 0 5 -5v-27q0 -5 -5 -5l-72 -8v-453z" />
    <glyph glyph-name="uring" unicode="&#x16f;" horiz-adv-x="594" 
d="M270 563q-28 0 -48 19.5t-20 48.5t20 48.5t48 19.5t48 -19.5t20 -48.5t-20 -48.5t-48 -19.5zM270 591q17 0 28.5 12t11.5 29q0 16 -12 28t-28 12t-28 -12t-12 -28q0 -17 11.5 -29t28.5 -12zM323 518q0 5 5 5h161q5 0 5 -5v-476l62 -5q5 0 5 -5v-27q0 -5 -5 -5h-148
q-5 0 -5 5v70q-77 -86 -168 -86q-74 0 -114.5 42.5t-40.5 124.5v324l-76 7q-5 0 -5 5v26q0 5 5 5h162q5 0 5 -5v-339q0 -73 23.5 -109.5t86.5 -30.5q33 3 67.5 28t54.5 55v358l-75 7q-5 0 -5 5v26z" />
    <glyph glyph-name="Uhungarumlaut" unicode="&#x170;" horiz-adv-x="708" 
d="M246 764q-3 4 0 7q11 11 58 61.5t51 54.5q15 14 31.5 7t19 -22.5t-11.5 -29.5q-78 -54 -133 -89q-4 -3 -5 -2zM383 764q-3 4 0 7q11 11 58 61.5t51 54.5q15 14 31.5 7t19 -22.5t-11.5 -29.5q-78 -54 -133 -89q-4 -3 -5 -2zM573 202q0 -113 -64.5 -166t-172.5 -53
q-55 0 -96.5 8t-78.5 28.5t-56.5 61.5t-19.5 102v473l-76 7q-5 0 -5 5v27q0 5 5 5h251q5 0 5 -5v-27q0 -5 -5 -5l-78 -6v-477q0 -74 42 -114.5t112 -40.5q93 0 141.5 40t48.5 137v453l-72 8q-5 2 -5 6v26q0 5 5 5h191q5 0 5 -5v-27q0 -5 -5 -5l-72 -8v-453z" />
    <glyph glyph-name="uhungarumlaut" unicode="&#x171;" horiz-adv-x="594" 
d="M154 608q-3 4 0 7q11 11 58 61.5t51 54.5q15 14 31.5 7t19 -22.5t-11.5 -29.5q-78 -54 -133 -89q-4 -3 -5 -2zM291 608q-3 4 0 7q11 11 58 61.5t51 54.5q15 14 31.5 7t19 -22.5t-11.5 -29.5q-78 -54 -133 -89q-4 -3 -5 -2zM323 518q0 5 5 5h161q5 0 5 -5v-476l62 -5
q5 0 5 -5v-27q0 -5 -5 -5h-148q-5 0 -5 5v70q-77 -86 -168 -86q-74 0 -114.5 42.5t-40.5 124.5v324l-76 7q-5 0 -5 5v26q0 5 5 5h162q5 0 5 -5v-339q0 -73 23.5 -109.5t86.5 -30.5q33 3 67.5 28t54.5 55v358l-75 7q-5 0 -5 5v26z" />
    <glyph glyph-name="Uogonek" unicode="&#x172;" horiz-adv-x="708" 
d="M645 700q5 0 5 -5v-27q0 -5 -5 -5l-72 -8v-453q0 -98 -49 -150.5t-134 -64.5q-49 -23 -66 -41q-20 -23 0 -43q30 -29 98 -5l23 10q5 2 7 -2l10 -16q4 -4 -2 -6q-31 -17 -70.5 -24t-75.5 5q-42 20 -44.5 55t36.5 64q-103 4 -162 48t-59 151v473l-76 7q-5 0 -5 5v27
q0 5 5 5h251q5 0 5 -5v-27q0 -5 -5 -5l-78 -6v-477q0 -74 42 -114.5t112 -40.5q93 0 141.5 40t48.5 137v453l-72 8q-5 2 -5 6v26q0 5 5 5h191z" />
    <glyph glyph-name="uogonek" unicode="&#x173;" horiz-adv-x="594" 
d="M556 37q5 0 5 -5v-27q0 -5 -5 -5h-61q-21 -5 -56 -22t-47 -32q-20 -23 0 -43q30 -29 98 -5q11 4 23 10q5 2 7 -2l10 -16q4 -4 -2 -6q-31 -17 -70.5 -24t-75.5 5q-50 22 -44.5 65t67.5 71q-2 2 -2 4v70q-77 -86 -168 -86q-74 0 -114.5 42.5t-40.5 124.5v324l-76 7
q-5 0 -5 5v26q0 5 5 5h162q5 0 5 -5v-339q0 -73 23.5 -109.5t86.5 -30.5q33 3 67.5 28t54.5 55v358l-75 7q-5 0 -5 5v26q0 5 5 5h161q5 0 5 -5v-476z" />
    <glyph glyph-name="Wcircumflex" unicode="&#x174;" horiz-adv-x="1002" 
d="M502 814l-67 -64h-34l78 104h46l78 -104h-34zM949 700q5 0 5 -5v-27q0 -4 -5 -6l-65 -9l-198 -649q-1 -4 -5 -4h-49q-4 0 -5 4l-151 521l-169 -521q-1 -4 -5 -4h-39q-4 0 -5 4l-189 652l-64 7q-5 0 -5 5v27q0 5 5 5h236q5 0 5 -5v-27q0 -5 -5 -5l-68 -7l134 -482l174 522
q1 4 5 4h43q4 0 5 -4l155 -514l144 471l-63 9q-5 2 -5 6v27q0 5 5 5h179z" />
    <glyph glyph-name="wcircumflex" unicode="&#x175;" horiz-adv-x="861" 
d="M426 696l-67 -64h-34l78 104h46l78 -104h-34zM827 523q5 0 5 -5v-28q0 -4 -5 -6l-81 -12l-146 -468q-1 -4 -5 -4h-43q-4 0 -5 4l-127 447l-154 -447q-1 -4 -5 -4h-43q-4 0 -5 4l-137 476l-67 7q-5 2 -5 6v25q0 5 5 5h226q5 0 5 -5v-28q0 -5 -5 -5l-73 -6l99 -355l139 395
q1 4 5 4h76q4 0 5 -4l109 -395l113 351l-68 9q-5 2 -5 6v28q0 5 5 5h187z" />
    <glyph glyph-name="Ycircumflex" unicode="&#x176;" horiz-adv-x="741" 
d="M329 814l-67 -64h-34l78 104h46l78 -104h-34zM638 700q5 0 5 -5v-27q0 -4 -5 -6l-60 -8l-206 -351v-260l72 -5q5 0 5 -5v-28q0 -5 -5 -5h-240q-5 0 -5 5v28q0 5 5 5l72 5v260l-206 353l-64 7q-5 0 -5 5v27q0 5 5 5h230q5 0 5 -5v-27q0 -5 -5 -5l-64 -7l180 -301l177 300
l-69 7q-5 2 -5 6v27q0 5 5 5h178z" />
    <glyph glyph-name="ycircumflex" unicode="&#x177;" horiz-adv-x="623" 
d="M301 696l-67 -64h-34l78 104h46l78 -104h-34zM593 523q5 0 5 -5v-27q0 -5 -4 -6l-75 -15l-236 -574q-29 -65 -74 -109t-101 -44h-63q-5 0 -5 5v29q0 5 5 5h63q41 0 77.5 45t59.5 104l23 57l-195 491l-64 7q-5 0 -5 5v27q0 5 5 5h225q5 0 5 -5v-27q0 -4 -5 -6l-65 -10
l153 -358l143 355l-73 13q-5 2 -5 6v27q0 5 5 5h201z" />
    <glyph glyph-name="Ydieresis" unicode="&#x178;" horiz-adv-x="741" 
d="M232 751q-22 0 -37.5 15.5t-15.5 37.5t15.5 37.5t37.5 15.5q21 0 36.5 -15.5t15.5 -37.5t-15.5 -37.5t-36.5 -15.5zM429 751q-22 0 -37.5 15.5t-15.5 37.5t15.5 37.5t37.5 15.5q21 0 36.5 -15.5t15.5 -37.5t-15.5 -37.5t-36.5 -15.5zM199 33q0 5 5 5l72 5v260l-206 353
l-64 7q-5 0 -5 5v27q0 5 5 5h230q5 0 5 -5v-27q0 -5 -5 -5l-64 -7l180 -301l177 300l-69 7q-5 2 -5 6v27q0 5 5 5h178q5 0 5 -5v-27q0 -4 -5 -6l-60 -8l-206 -351v-260l72 -5q5 0 5 -5v-28q0 -5 -5 -5h-240q-5 0 -5 5v28z" />
    <glyph glyph-name="Zacute" unicode="&#x179;" horiz-adv-x="605" 
d="M211 766q-2 5 2 7q93 71 128 94q16 11 31.5 1.5t15.5 -25.5t-17 -27q-72 -34 -148 -64q-2 -1 -5 -1q0 1 -3 6.5t-4 8.5zM35 572q-5 0 -5 5v118q0 5 5 5h474q5 0 5 -5v-37q0 -2 -2 -6l-386 -608h358l10 79q2 5 6 5h27q5 0 5 -5v-118q0 -5 -5 -5h-508q-5 0 -5 5v37q0 2 2 6
l386 608h-323l-9 -79q-2 -5 -6 -5h-29z" />
    <glyph glyph-name="zacute" unicode="&#x17a;" horiz-adv-x="518" 
d="M152 638q-2 5 2 7q93 71 128 94q16 11 31.5 1.5t15.5 -25.5t-17 -27q-72 -34 -148 -64q-2 -1 -5 -1l-3.5 7t-3.5 8zM34 374q-5 0 -5 5v140q0 5 5 5h379q5 0 5 -5v-35q0 -2 -2 -6l-308 -433h264l12 98q2 5 6 5h39q5 0 5 -5v-138q0 -5 -5 -5h-415q-5 0 -5 5v36q0 2 2 6
l306 433h-229l-10 -101q0 -5 -5 -5h-39z" />
    <glyph glyph-name="Zdotaccent" unicode="&#x17b;" horiz-adv-x="605" 
d="M275 750q-22 0 -37.5 15.5t-15.5 37.5t15.5 37.5t37.5 15.5q21 0 36.5 -15.5t15.5 -37.5t-15.5 -37.5t-36.5 -15.5zM35 572q-5 0 -5 5v118q0 5 5 5h474q5 0 5 -5v-37q0 -2 -2 -6l-386 -608h358l10 79q2 5 6 5h27q5 0 5 -5v-118q0 -5 -5 -5h-508q-5 0 -5 5v37q0 2 2 6
l386 608h-323l-9 -79q-2 -5 -6 -5h-29z" />
    <glyph glyph-name="zdotaccent" unicode="&#x17c;" horiz-adv-x="518" 
d="M231 647q-22 0 -37.5 15.5t-15.5 37.5t15.5 37.5t37.5 15.5q21 0 36.5 -15.5t15.5 -37.5t-15.5 -37.5t-36.5 -15.5zM34 374q-5 0 -5 5v140q0 5 5 5h379q5 0 5 -5v-35q0 -2 -2 -6l-308 -433h264l12 98q2 5 6 5h39q5 0 5 -5v-138q0 -5 -5 -5h-415q-5 0 -5 5v36q0 2 2 6
l306 433h-229l-10 -101q0 -5 -5 -5h-39z" />
    <glyph glyph-name="Zcaron" unicode="&#x17d;" horiz-adv-x="605" 
d="M265 750l-78 104h34l67 -64l67 64h34l-78 -104h-46zM527 128q5 0 5 -5v-118q0 -5 -5 -5h-508q-5 0 -5 5v37q0 2 2 6l386 608h-323l-9 -79q-2 -5 -6 -5h-29q-5 0 -5 5v118q0 5 5 5h474q5 0 5 -5v-37q0 -2 -2 -6l-386 -608h358l10 79q2 5 6 5h27z" />
    <glyph glyph-name="zcaron" unicode="&#x17e;" horiz-adv-x="518" 
d="M218 632l-78 104h34l67 -64l67 64h34l-78 -104h-46zM429 148q5 0 5 -5v-138q0 -5 -5 -5h-415q-5 0 -5 5v36q0 2 2 6l306 433h-229l-10 -101q0 -5 -5 -5h-39q-5 0 -5 5v140q0 5 5 5h379q5 0 5 -5v-35q0 -2 -2 -6l-308 -433h264l12 98q2 5 6 5h39z" />
    <glyph glyph-name="uni01CD" unicode="&#x1cd;" horiz-adv-x="714" 
d="M302 750l-78 104h34l67 -64l67 64h34l-78 -104h-46zM655 37q5 0 5 -5v-27q0 -5 -5 -5h-230q-5 0 -5 5v27q0 5 5 5l63 5l-67 197h-216l-66 -194l66 -7q5 0 5 -5v-28q0 -5 -5 -5h-191q-5 0 -5 5v28q0 5 5 5l72 7l210 610l-69 7q-5 2 -5 6v27q0 5 5 5h138q4 0 5 -4l228 -654
zM220 287h186l-91 281z" />
    <glyph glyph-name="uni01CE" unicode="&#x1ce;" horiz-adv-x="534" 
d="M167 632l-78 104h34l67 -64l67 64h34l-78 -104h-46zM471 38q5 0 5 -5v-28q0 -5 -5 -5h-130q-5 0 -6 4l-25 62q-53 -44 -96 -63t-102 -12q-112 13 -112 117q0 35 16 66.5t38 53t59 44t65 35t70 31t61 27.5q-3 128 -107 128q-81 0 -122 -52l18 -88q2 -5 -5 -5h-71
q-5 0 -5 5v108q0 3 3 6q25 24 73.5 41t108.5 18q94 2 146 -44t52 -154v-284zM309 113v207q-1 -1 -22 -9.5t-27 -11.5t-26.5 -13t-29 -15t-26.5 -16t-26.5 -19.5t-21.5 -21t-19.5 -24t-11.5 -25.5t-6 -29q-4 -70 49 -80q77 -13 167 57z" />
    <glyph glyph-name="uni01CF" unicode="&#x1cf;" horiz-adv-x="354" 
d="M111 750l-78 104h34l67 -64l67 64h34l-78 -104h-46zM258 663l-78 -7v-613l78 -5q5 0 5 -5v-28q0 -5 -5 -5h-252q-5 0 -5 5v28q0 5 5 5l76 5v614l-76 6q-5 0 -5 5v27q0 5 5 5h252q5 0 5 -5v-27q0 -5 -5 -5z" />
    <glyph glyph-name="uni01D0" unicode="&#x1d0;" horiz-adv-x="300" 
d="M83 632l-78 104h34l67 -64l67 64h34l-78 -104h-46zM237 37q5 0 5 -5v-27q0 -5 -5 -5h-246q-5 0 -5 5v27q0 5 5 5l77 5v438l-76 6q-5 0 -5 5v27q0 5 5 5h162q5 0 5 -5v-475z" />
    <glyph glyph-name="uni01D1" unicode="&#x1d1;" horiz-adv-x="769" 
d="M315 750l-78 104h34l67 -64l67 64h34l-78 -104h-46zM343 711q153 0 245 -97t92 -265q0 -167 -91.5 -264t-245.5 -97t-245 96.5t-91 264.5t91 265t245 97zM343 32q65 0 109.5 25.5t66.5 72.5t31 99t9 120q0 54 -5 97t-19.5 85.5t-37.5 71.5t-62.5 46.5t-91.5 17.5
q-65 0 -109 -25.5t-66.5 -73t-31 -99.5t-8.5 -120t8.5 -120t31 -99t66.5 -72.5t109 -25.5z" />
    <glyph glyph-name="uni01D2" unicode="&#x1d2;" horiz-adv-x="603" 
d="M239 632l-78 104h34l67 -64l67 64h34l-78 -104h-46zM263 526q116 0 185 -70t69 -197q0 -124 -70 -197.5t-184 -73.5q-119 0 -186 78.5t-67 192.5q0 116 66.5 191.5t186.5 75.5zM263 23q37 0 64.5 14.5t43 36t24.5 55t11.5 63t2.5 67.5q0 236 -146 236q-144 0 -144 -236
q0 -42 1.5 -69.5t9.5 -62.5t23 -55t42.5 -34.5t67.5 -14.5z" />
    <glyph glyph-name="uni01D3" unicode="&#x1d3;" horiz-adv-x="708" 
d="M314 750l-78 104h34l67 -64l67 64h34l-78 -104h-46zM645 700q5 0 5 -5v-27q0 -5 -5 -5l-72 -8v-453q0 -113 -64.5 -166t-172.5 -53q-55 0 -96.5 8t-78.5 28.5t-56.5 61.5t-19.5 102v473l-76 7q-5 0 -5 5v27q0 5 5 5h251q5 0 5 -5v-27q0 -5 -5 -5l-78 -6v-477
q0 -74 42 -114.5t112 -40.5q93 0 141.5 40t48.5 137v453l-72 8q-5 2 -5 6v26q0 5 5 5h191z" />
    <glyph glyph-name="uni01D4" unicode="&#x1d4;" horiz-adv-x="594" 
d="M250 632l-78 104h34l67 -64l67 64h34l-78 -104h-46zM556 37q5 0 5 -5v-27q0 -5 -5 -5h-148q-5 0 -5 5v70q-77 -86 -168 -86q-74 0 -114.5 42.5t-40.5 124.5v324l-76 7q-5 0 -5 5v26q0 5 5 5h162q5 0 5 -5v-339q0 -73 23.5 -109.5t86.5 -30.5q33 3 67.5 28t54.5 55v358
l-75 7q-5 0 -5 5v26q0 5 5 5h161q5 0 5 -5v-476z" />
    <glyph glyph-name="uni01D5" unicode="&#x1d5;" horiz-adv-x="708" 
d="M157 896q-5 0 -5 5v16q0 5 5 5h362q5 0 5 -5v-16q0 -5 -5 -5h-362zM189 803q0 22 15.5 37.5t37.5 15.5q21 0 36.5 -15.5t15.5 -37.5t-15.5 -37.5t-36.5 -15.5q-22 0 -37.5 15.5t-15.5 37.5zM386 803q0 22 15.5 37.5t37.5 15.5q21 0 36.5 -15.5t15.5 -37.5t-15.5 -37.5
t-36.5 -15.5q-22 0 -37.5 15.5t-15.5 37.5zM645 700q5 0 5 -5v-27q0 -5 -5 -5l-72 -8v-453q0 -113 -64.5 -166t-172.5 -53q-55 0 -96.5 8t-78.5 28.5t-56.5 61.5t-19.5 102v473l-76 7q-5 0 -5 5v27q0 5 5 5h251q5 0 5 -5v-27q0 -5 -5 -5l-78 -6v-477q0 -74 42 -114.5
t112 -40.5q93 0 141.5 40t48.5 137v453l-72 8q-5 2 -5 6v26q0 5 5 5h191z" />
    <glyph glyph-name="uni01D6" unicode="&#x1d6;" horiz-adv-x="594" 
d="M89 745q-5 0 -5 5v16q0 5 5 5h362q5 0 5 -5v-16q0 -5 -5 -5h-362zM115 647q0 22 15.5 37.5t37.5 15.5q21 0 36.5 -15.5t15.5 -37.5t-15.5 -37.5t-36.5 -15.5q-22 0 -37.5 15.5t-15.5 37.5zM312 647q0 22 15.5 37.5t37.5 15.5q21 0 36.5 -15.5t15.5 -37.5t-15.5 -37.5
t-36.5 -15.5q-22 0 -37.5 15.5t-15.5 37.5zM556 37q5 0 5 -5v-27q0 -5 -5 -5h-148q-5 0 -5 5v70q-77 -86 -168 -86q-74 0 -114.5 42.5t-40.5 124.5v324l-76 7q-5 0 -5 5v26q0 5 5 5h162q5 0 5 -5v-339q0 -73 23.5 -109.5t86.5 -30.5q33 3 67.5 28t54.5 55v358l-75 7
q-5 0 -5 5v26q0 5 5 5h161q5 0 5 -5v-476z" />
    <glyph glyph-name="uni01D7" unicode="&#x1d7;" horiz-adv-x="708" 
d="M318 882q-2 5 2 7q93 71 128 94q16 11 31.5 1.5t15.5 -25.5t-17 -27q-72 -34 -148 -64q-2 -1 -5 -1q-1 1 -3.5 7t-3.5 8zM242 750q-22 0 -37.5 15.5t-15.5 37.5t15.5 37.5t37.5 15.5q21 0 36.5 -15.5t15.5 -37.5t-15.5 -37.5t-36.5 -15.5zM439 750q-22 0 -37.5 15.5
t-15.5 37.5t15.5 37.5t37.5 15.5q21 0 36.5 -15.5t15.5 -37.5t-15.5 -37.5t-36.5 -15.5zM573 202q0 -113 -64.5 -166t-172.5 -53q-55 0 -96.5 8t-78.5 28.5t-56.5 61.5t-19.5 102v473l-76 7q-5 0 -5 5v27q0 5 5 5h251q5 0 5 -5v-27q0 -5 -5 -5l-78 -6v-477q0 -74 42 -114.5
t112 -40.5q93 0 141.5 40t48.5 137v453l-72 8q-5 2 -5 6v26q0 5 5 5h191q5 0 5 -5v-27q0 -5 -5 -5l-72 -8v-453z" />
    <glyph glyph-name="uni01D8" unicode="&#x1d8;" horiz-adv-x="594" 
d="M244 738q-2 5 2 7q93 71 128 94q16 11 31.5 1.5t15.5 -25.5t-17 -27q-72 -34 -148 -64q-2 -1 -5 -1q-1 1 -3.5 6.5t-3.5 8.5zM168 594q-22 0 -37.5 15.5t-15.5 37.5t15.5 37.5t37.5 15.5q21 0 36.5 -15.5t15.5 -37.5t-15.5 -37.5t-36.5 -15.5zM365 594q-22 0 -37.5 15.5
t-15.5 37.5t15.5 37.5t37.5 15.5q21 0 36.5 -15.5t15.5 -37.5t-15.5 -37.5t-36.5 -15.5zM323 518q0 5 5 5h161q5 0 5 -5v-476l62 -5q5 0 5 -5v-27q0 -5 -5 -5h-148q-5 0 -5 5v70q-77 -86 -168 -86q-74 0 -114.5 42.5t-40.5 124.5v324l-76 7q-5 0 -5 5v26q0 5 5 5h162
q5 0 5 -5v-339q0 -73 23.5 -109.5t86.5 -30.5q33 3 67.5 28t54.5 55v358l-75 7q-5 0 -5 5v26z" />
    <glyph glyph-name="uni01D9" unicode="&#x1d9;" horiz-adv-x="708" 
d="M317 871l-78 104h34l67 -64l67 64h34l-78 -104h-46zM242 750q-22 0 -37.5 15.5t-15.5 37.5t15.5 37.5t37.5 15.5q21 0 36.5 -15.5t15.5 -37.5t-15.5 -37.5t-36.5 -15.5zM386 803q0 22 15.5 37.5t37.5 15.5q21 0 36.5 -15.5t15.5 -37.5t-15.5 -37.5t-36.5 -15.5
q-22 0 -37.5 15.5t-15.5 37.5zM645 700q5 0 5 -5v-27q0 -5 -5 -5l-72 -8v-453q0 -113 -64.5 -166t-172.5 -53q-55 0 -96.5 8t-78.5 28.5t-56.5 61.5t-19.5 102v473l-76 7q-5 0 -5 5v27q0 5 5 5h251q5 0 5 -5v-27q0 -5 -5 -5l-78 -6v-477q0 -74 42 -114.5t112 -40.5
q93 0 141.5 40t48.5 137v453l-72 8q-5 2 -5 6v26q0 5 5 5h191z" />
    <glyph glyph-name="uni01DA" unicode="&#x1da;" horiz-adv-x="594" 
d="M245 716l-78 104h34l67 -64l67 64h34l-78 -104h-46zM168 594q-22 0 -37.5 15.5t-15.5 37.5t15.5 37.5t37.5 15.5q21 0 36.5 -15.5t15.5 -37.5t-15.5 -37.5t-36.5 -15.5zM312 647q0 22 15.5 37.5t37.5 15.5q21 0 36.5 -15.5t15.5 -37.5t-15.5 -37.5t-36.5 -15.5
q-22 0 -37.5 15.5t-15.5 37.5zM556 37q5 0 5 -5v-27q0 -5 -5 -5h-148q-5 0 -5 5v70q-77 -86 -168 -86q-74 0 -114.5 42.5t-40.5 124.5v324l-76 7q-5 0 -5 5v26q0 5 5 5h162q5 0 5 -5v-339q0 -73 23.5 -109.5t86.5 -30.5q33 3 67.5 28t54.5 55v358l-75 7q-5 0 -5 5v26
q0 5 5 5h161q5 0 5 -5v-476z" />
    <glyph glyph-name="uni01DB" unicode="&#x1db;" horiz-adv-x="708" 
d="M215 929q-18 9 -17 27t15 25.5t32 -1.5q24 -14 132 -97q-1 0 -8 -16q-2 -4 -6 -2q-76 30 -148 64zM242 750q-22 0 -37.5 15.5t-15.5 37.5t15.5 37.5t37.5 15.5q21 0 36.5 -15.5t15.5 -37.5t-15.5 -37.5t-36.5 -15.5zM439 750q-22 0 -37.5 15.5t-15.5 37.5t15.5 37.5
t37.5 15.5q21 0 36.5 -15.5t15.5 -37.5t-15.5 -37.5t-36.5 -15.5zM645 700q5 0 5 -5v-27q0 -5 -5 -5l-72 -8v-453q0 -113 -64.5 -166t-172.5 -53q-55 0 -96.5 8t-78.5 28.5t-56.5 61.5t-19.5 102v473l-76 7q-5 0 -5 5v27q0 5 5 5h251q5 0 5 -5v-27q0 -5 -5 -5l-78 -6v-477
q0 -74 42 -114.5t112 -40.5q93 0 141.5 40t48.5 137v453l-72 8q-5 2 -5 6v26q0 5 5 5h191z" />
    <glyph glyph-name="uni01DC" unicode="&#x1dc;" horiz-adv-x="594" 
d="M143 781q-18 9 -17 27t15 25.5t32 -1.5q24 -14 132 -97q-1 0 -8 -16q-2 -4 -6 -2q-76 30 -148 64zM168 594q-22 0 -37.5 15.5t-15.5 37.5t15.5 37.5t37.5 15.5q21 0 36.5 -15.5t15.5 -37.5t-15.5 -37.5t-36.5 -15.5zM365 594q-22 0 -37.5 15.5t-15.5 37.5t15.5 37.5
t37.5 15.5q21 0 36.5 -15.5t15.5 -37.5t-15.5 -37.5t-36.5 -15.5zM556 37q5 0 5 -5v-27q0 -5 -5 -5h-148q-5 0 -5 5v70q-77 -86 -168 -86q-74 0 -114.5 42.5t-40.5 124.5v324l-76 7q-5 0 -5 5v26q0 5 5 5h162q5 0 5 -5v-339q0 -73 23.5 -109.5t86.5 -30.5q33 3 67.5 28
t54.5 55v358l-75 7q-5 0 -5 5v26q0 5 5 5h161q5 0 5 -5v-476z" />
    <glyph glyph-name="AEacute" unicode="&#x1fc;" horiz-adv-x="1020" 
d="M573 751l-3.5 7t-3.5 8q-2 5 2 7q93 71 128 94q16 11 31.5 1.5t15.5 -25.5t-17 -27q-72 -34 -148 -64q-2 -1 -5 -1zM892 656h-271v-270h209l8 61q2 5 6 5h29q5 0 5 -5v-174q0 -5 -5 -5h-27q-5 0 -6 5l-12 66h-207v-295h271l12 79q2 5 6 5h31q5 0 5 -5v-118q0 -5 -5 -5
h-510q-5 0 -5 5v27q0 5 5 5l78 5l1 197h-216l-133 -194l64 -7q5 0 5 -5v-28q0 -5 -5 -5h-201q-5 0 -5 5v28q0 5 5 5l84 7l416 604v7l-67 8q-5 2 -5 6v25q0 5 5 5h484q5 0 5 -5v-118q0 -5 -5 -5h-33q-4 0 -6 5zM511 287l6 281l-192 -281h186z" />
    <glyph glyph-name="aeacute" unicode="&#x1fd;" horiz-adv-x="871" 
d="M345 631q-3 4 1 7q5 5 33.5 34.5t51.5 52.5t27 26q16 11 33.5 0t17.5 -31q0 -33 -156 -93q-4 -1 -5 0q-2 2 -3 4zM413 260q8 -99 58 -160.5t133 -61.5q36 0 78 12.5t70 31.5q4 3 7 -1l1 -1q1 -2 2 -3q1 -2 6 -7l6 -7q3 -4 -1 -7q-87 -67 -195 -67q-65 0 -121 29t-94 82
h-13q-92 -109 -230 -109q-53 0 -83 30t-30 87q0 42 22 78t61.5 63t75 44.5t81.5 34.5l15 6q36 14 48 24q4 2 5 2q-3 130 -105 130q-101 0 -136 -56l-3 -3q4 -29 12 -61l2 -6q0 -6 -5 -6h-48q-5 0 -5 5v104q0 5 3 6q32 25 83 39t97 14q124 0 169 -68h12q73 68 174 68
q110 0 164 -69t57 -192q0 -5 -5 -5h-368zM565 487q-73 0 -112 -51t-41 -140h294q-4 191 -141 191zM148 55q10 -2 21 -2q65 0 141 62q4 2 6 2v209h-11q-9 -3 -25 -11l-11 -5q-38 -17 -59.5 -28t-52 -33t-45.5 -50t-15 -63q0 -61 35 -76z" />
    <glyph glyph-name="Scommaaccent" unicode="&#x218;" horiz-adv-x="585" 
d="M434 534q-4 0 -6 5q-9 60 -60.5 95.5t-112.5 33.5q-130 -4 -130 -98q0 -49 39.5 -88t96 -68t113 -60t96 -79.5t39.5 -110.5q0 -50 -23 -87t-60.5 -56t-79 -27.5t-85.5 -6.5q-55 3 -103 14t-68 21l-20 10q-4 3 -7.5 -1.5t-6.5 -14.5t-5 -13q-1 -3 -6 -3h-29q-5 0 -5 5v156
q0 5 5 5h41q4 0 5 -4q18 -54 74 -88.5t127 -37.5q136 -5 136 93q0 47 -37.5 86t-90.5 68.5t-106 61t-90.5 78t-37.5 105.5q0 90 62.5 137t151.5 46q57 0 101.5 -9.5t60.5 -19.5l16 -9q2 -1 3.5 2.5t3 10.5t2.5 10q1 4 6 4h32q5 0 5 -5v-156q0 -5 -5 -5h-42zM232 -201
q-2 5 1 7q29 26 29 60h-7q-17 1 -28 13.5t-11 31.5q0 20 14.5 31.5t31.5 11.5q18 0 31 -12t13 -35q0 -82 -63 -116q-5 -2 -7 2z" />
    <glyph glyph-name="scommaaccent" unicode="&#x219;" horiz-adv-x="453" 
d="M343 379q-4 0 -5 4q-32 109 -135 109q-33 0 -68.5 -18t-35.5 -55q0 -22 17 -42.5t34.5 -31.5t45.5 -25q50 -26 80 -43.5t62 -42t47.5 -49t16.5 -52.5q3 -77 -49.5 -110.5t-133.5 -33.5q-39 0 -78.5 8.5t-60.5 17.5l-20 9q-2 1 -3.5 -2.5t-2.5 -9.5t-2 -8q-1 -4 -5 -4h-29
q-5 0 -5 5v138q0 5 5 5h27q5 0 6 -4q13 -50 63 -81t100 -32q92 -2 92 65q0 29 -35.5 57t-115.5 75q-32 19 -47.5 29t-39 30t-33.5 43.5t-10 52.5q0 72 49.5 107t121.5 35q65 0 128 -21q6 -2 6 4l1 10q0 5 6 5h33q5 0 5 -5v-134q0 -5 -5 -5h-27zM189 -201q-1 5 1 7
q29 26 29 60h-7q-17 1 -28 13.5t-11 31.5q0 20 14.5 31.5t31.5 11.5q18 0 31 -12t13 -35q0 -82 -63 -116q-5 -2 -7 2z" />
    <glyph glyph-name="uni021A" unicode="&#x21a;" horiz-adv-x="635" 
d="M13 572q-5 0 -5 5v118q0 5 5 5h558q5 0 5 -5v-118q0 -5 -5 -5h-33q-4 0 -6 5l-10 79h-182v-613l77 -5q5 0 5 -5v-28q0 -5 -5 -5h-250q-5 0 -5 5v28q0 5 5 5l75 5v613h-180l-11 -79q-2 -5 -6 -5h-32zM255 -201q-1 5 1 7q29 26 29 60h-7q-17 1 -28 13.5t-11 31.5
q0 20 14.5 31.5t31.5 11.5q18 0 31 -12t13 -35q0 -82 -63 -116q-5 -2 -7 2z" />
    <glyph glyph-name="uni021B" unicode="&#x21b;" horiz-adv-x="357" 
d="M-19 518q0 5 5 5h95v137q0 5 5 5h80q5 0 5 -5v-137h127q5 0 5 -5v-27q0 -5 -5 -5h-127v-334q0 -116 48 -116q33 0 58 27q3 3 6 0q7 -7 12 -13q3 -4 0 -8q-42 -50 -109 -50q-52 0 -78.5 31.5t-26.5 90.5v372h-95q-5 0 -5 5v27zM144 -201q-2 5 1 7q29 26 29 60h-7
q-17 1 -28 13.5t-11 31.5q0 20 14.5 31.5t31.5 11.5q18 0 31 -12t13 -35q0 -82 -63 -116q-5 -2 -7 2z" />
    <glyph glyph-name="circumflex" unicode="&#x2c6;" horiz-adv-x="264" 
d="M155 736l78 -104h-34l-67 64l-67 -64h-34l78 104h46z" />
    <glyph glyph-name="caron" unicode="&#x2c7;" horiz-adv-x="264" 
d="M199 736h34l-78 -104h-46l-78 104h34l67 -64z" />
    <glyph glyph-name="breve" unicode="&#x2d8;" horiz-adv-x="265" 
d="M193 736h40q0 -41 -27 -74t-74 -33t-74 33t-27 74h40q0 -24 16.5 -45.5t44.5 -21.5t44.5 21.5t16.5 45.5z" />
    <glyph glyph-name="dotaccent" unicode="&#x2d9;" horiz-adv-x="247" 
d="M113 647q-22 0 -37.5 15.5t-15.5 37.5t15.5 37.5t37.5 15.5q21 0 36.5 -15.5t15.5 -37.5t-15.5 -37.5t-36.5 -15.5z" />
    <glyph glyph-name="ring" unicode="&#x2da;" horiz-adv-x="160" 
d="M82 563q-28 0 -48 19.5t-20 48.5t20 48.5t48 19.5t48 -19.5t20 -48.5t-20 -48.5t-48 -19.5zM82 591q17 0 28.5 12t11.5 29q0 16 -12 28t-28 12t-28 -12t-12 -28q0 -17 11.5 -29t28.5 -12z" />
    <glyph glyph-name="ogonek" unicode="&#x2db;" horiz-adv-x="240" 
d="M174 21q3 1 7 -1l16 -14q5 -5 -2 -6q-21 -5 -56 -22t-47 -32q-20 -23 0 -43q30 -29 98 -5q11 4 23 10q5 2 7 -2l10 -16q4 -4 -2 -6q-31 -17 -70.5 -24t-75.5 5q-40 19 -45.5 51t31 62.5t106.5 42.5z" />
    <glyph glyph-name="tilde" unicode="&#x2dc;" horiz-adv-x="270" 
d="M216 706q1 4 6 2l18 -8q5 -2 3 -7q-29 -48 -68 -48q-26 0 -50 18q-23 19 -45 15q-16 -3 -33 -26q-1 -4 -6 -2l-18 8q-5 2 -3 7q29 48 68 48q26 0 50 -18q23 -19 45 -15q16 3 33 26z" />
    <glyph glyph-name="hungarumlaut" unicode="&#x2dd;" horiz-adv-x="400" 
d="M43 608q-3 4 0 7q11 11 58 61.5t51 54.5q15 14 31.5 7t19 -22.5t-11.5 -29.5q-78 -54 -133 -89q-4 -3 -5 -2zM180 608q-3 4 0 7q11 11 58 61.5t51 54.5q15 14 31.5 7t19 -22.5t-11.5 -29.5q-78 -54 -133 -89q-4 -3 -5 -2z" />
    <glyph glyph-name="gravecomb" unicode="&#x300;" 
d="M-155 739q24 -14 132 -97q-1 0 -8 -16q-2 -4 -6 -2q-76 30 -148 64q-18 9 -17 27t15 25.5t32 -1.5z" />
    <glyph glyph-name="acutecomb" unicode="&#x301;" 
d="M-193 638q-2 5 2 7q93 71 128 94q16 11 31.5 1.5t15.5 -25.5t-17 -27q-72 -34 -148 -64q-2 -1 -5 -1q0 1 -3 7z" />
    <glyph glyph-name="uni0302" unicode="&#x302;" 
d="M-109 736l78 -104h-34l-67 64l-67 -64h-34l78 104h46z" />
    <glyph glyph-name="tildecomb" unicode="&#x303;" 
d="M-54 706q1 4 6 2l18 -8q5 -2 3 -7q-29 -48 -68 -48q-26 0 -50 18q-22 19 -45 15q-16 -3 -33 -26q-1 -4 -6 -2l-18 8q-5 2 -3 7q29 48 68 48q26 0 50 -18q22 -19 45 -15q16 3 33 26z" />
    <glyph glyph-name="uni0304" unicode="&#x304;" 
d="M-35 696q5 0 5 -5v-16q0 -5 -5 -5h-362q-5 0 -5 5v16q0 5 5 5h362z" />
    <glyph glyph-name="uni0306" unicode="&#x306;" 
d="M-62 736h40q0 -41 -27 -74t-74 -33t-74 33t-27 74h40q0 -24 16.5 -45.5t44.5 -21.5t44.5 21.5t16.5 45.5z" />
    <glyph glyph-name="uni0307" unicode="&#x307;" 
d="M-134 647q-22 0 -37.5 15.5t-15.5 37.5t15.5 37.5t37.5 15.5q21 0 36.5 -15.5t15.5 -37.5t-15.5 -37.5t-36.5 -15.5z" />
    <glyph glyph-name="uni0308" unicode="&#x308;" 
d="M-252 594q-22 0 -37.5 15.5t-15.5 37.5t15.5 37.5t37.5 15.5q21 0 36.5 -15.5t15.5 -37.5t-15.5 -37.5t-36.5 -15.5zM-55 594q-22 0 -37.5 15.5t-15.5 37.5t15.5 37.5t37.5 15.5q21 0 36.5 -15.5t15.5 -37.5t-15.5 -37.5t-36.5 -15.5z" />
    <glyph glyph-name="uni030A" unicode="&#x30a;" 
d="M-78 563q-28 0 -48 19.5t-20 48.5t20 48.5t48 19.5t48 -19.5t20 -48.5t-20 -48.5t-48 -19.5zM-78 591q17 0 28.5 12t11.5 29q0 16 -12 28t-28 12t-28 -12t-12 -28q0 -17 11.5 -29t28.5 -12z" />
    <glyph glyph-name="uni030B" unicode="&#x30b;" 
d="M-317 608q-3 4 0 7q11 11 58 61.5t51 54.5q15 14 31.5 7t19 -22.5t-11.5 -29.5q-78 -54 -133 -89q-4 -3 -5 -2zM-180 608q-3 4 0 7q11 11 58 61.5t51 54.5q15 14 31.5 7t19 -22.5t-11.5 -29.5q-78 -54 -133 -89q-4 -3 -5 -2z" />
    <glyph glyph-name="uni030C" unicode="&#x30c;" 
d="M-51 736h34l-78 -104h-46l-78 104h34l67 -64z" />
    <glyph glyph-name="uni0312" unicode="&#x312;" 
d="M-57 738q1 -4 -1 -7q-29 -26 -29 -60h7q17 -1 28 -13.5t11 -31.5q0 -20 -14.5 -31.5t-31.5 -11.5q-18 0 -31 12t-13 35q0 82 63 116q5 2 7 -2z" />
    <glyph glyph-name="uni0326" unicode="&#x326;" 
d="M-123 -201q-1 5 1 7q29 26 29 60h-7q-17 1 -28 13.5t-11 31.5q0 20 14.5 31.5t31.5 11.5q18 0 31 -12t13 -35q0 -82 -63 -116q-5 -2 -7 2z" />
    <glyph glyph-name="uni0327" unicode="&#x327;" 
d="M-159 7q2 5 6 5h32q6 0 4 -5l-7 -45q6 4 26 5t40 -6q26 -11 24 -47t-36 -49q-43 -16 -104 -5q-5 2 -4 6l3 23q1 4 6 4q15 -4 36 -3q27 0 36.5 10.5t0.5 26.5q-10 15 -67 1q-6 0 -5 5z" />
    <glyph glyph-name="uni0328" unicode="&#x328;" 
d="M-76 21q3 1 7 -1l16 -14q5 -5 -2 -6q-21 -5 -56 -22t-47 -32q-20 -23 0 -43q30 -29 98 -5q11 4 23 10q5 2 7 -2l10 -16q4 -4 -2 -6q-31 -17 -70.5 -24t-75.5 5q-40 19 -45.5 51t31 62.5t106.5 42.5z" />
    <glyph glyph-name="uni0335" unicode="&#x335;" 
d="M-74 296q5 0 5 -5v-36q0 -5 -5 -5h-311q-5 0 -5 5v36q0 5 5 5h311z" />
    <glyph glyph-name="uni0336" unicode="&#x336;" 
d="M-65 296q5 0 5 -5v-36q0 -5 -5 -5h-311q-5 0 -5 5v36q0 5 5 5h311z" />
    <glyph glyph-name="Wgrave" unicode="&#x1e80;" horiz-adv-x="1002" 
d="M409 816q-18 9 -17 27t15 25.5t32 -1.5q24 -14 132 -97q-1 0 -8 -16q-2 -4 -6 -2q-76 30 -148 64zM949 700q5 0 5 -5v-27q0 -4 -5 -6l-65 -9l-198 -649q-1 -4 -5 -4h-49q-4 0 -5 4l-151 521l-169 -521q-1 -4 -5 -4h-39q-4 0 -5 4l-189 652l-64 7q-5 0 -5 5v27q0 5 5 5
h236q5 0 5 -5v-27q0 -5 -5 -5l-68 -7l134 -482l174 522q1 4 5 4h43q4 0 5 -4l155 -514l144 471l-63 9q-5 2 -5 6v27q0 5 5 5h179z" />
    <glyph glyph-name="wgrave" unicode="&#x1e81;" horiz-adv-x="861" 
d="M334 688q-18 9 -17 27t15 25.5t32 -1.5q24 -14 132 -97q-1 0 -8 -16q-2 -4 -6 -2q-76 30 -148 64zM827 523q5 0 5 -5v-28q0 -4 -5 -6l-81 -12l-146 -468q-1 -4 -5 -4h-43q-4 0 -5 4l-127 447l-154 -447q-1 -4 -5 -4h-43q-4 0 -5 4l-137 476l-67 7q-5 2 -5 6v25q0 5 5 5
h226q5 0 5 -5v-28q0 -5 -5 -5l-73 -6l99 -355l139 395q1 4 5 4h76q4 0 5 -4l109 -395l113 351l-68 9q-5 2 -5 6v28q0 5 5 5h187z" />
    <glyph glyph-name="Wacute" unicode="&#x1e82;" horiz-adv-x="1002" 
d="M440 766q-2 5 2 7q93 71 128 94q16 11 31.5 1.5t15.5 -25.5t-17 -27q-72 -34 -148 -64q-2 -1 -5 -1l-3.5 7t-3.5 8zM246 668q0 -5 -5 -5l-68 -7l134 -482l174 522q1 4 5 4h43q4 0 5 -4l155 -514l144 471l-63 9q-5 2 -5 6v27q0 5 5 5h179q5 0 5 -5v-27q0 -4 -5 -6l-65 -9
l-198 -649q-1 -4 -5 -4h-49q-4 0 -5 4l-151 521l-169 -521q-1 -4 -5 -4h-39q-4 0 -5 4l-189 652l-64 7q-5 0 -5 5v27q0 5 5 5h236q5 0 5 -5v-27z" />
    <glyph glyph-name="wacute" unicode="&#x1e83;" horiz-adv-x="861" 
d="M371 638q-2 5 2 7q93 71 128 94q16 11 31.5 1.5t15.5 -25.5t-17 -27q-72 -34 -148 -64q-2 -1 -5 -1q0 2 -3 7t-4 8zM832 490q0 -4 -5 -6l-81 -12l-146 -468q-1 -4 -5 -4h-43q-4 0 -5 4l-127 447l-154 -447q-1 -4 -5 -4h-43q-4 0 -5 4l-137 476l-67 7q-5 2 -5 6v25
q0 5 5 5h226q5 0 5 -5v-28q0 -5 -5 -5l-73 -6l99 -355l139 395q1 4 5 4h76q4 0 5 -4l109 -395l113 351l-68 9q-5 2 -5 6v28q0 5 5 5h187q5 0 5 -5v-28z" />
    <glyph glyph-name="Wdieresis" unicode="&#x1e84;" horiz-adv-x="1002" 
d="M409 751q-22 0 -37.5 15.5t-15.5 37.5t15.5 37.5t37.5 15.5q21 0 36.5 -15.5t15.5 -37.5t-15.5 -37.5t-36.5 -15.5zM606 751q-22 0 -37.5 15.5t-15.5 37.5t15.5 37.5t37.5 15.5q21 0 36.5 -15.5t15.5 -37.5t-15.5 -37.5t-36.5 -15.5zM246 668q0 -5 -5 -5l-68 -7l134 -482
l174 522q1 4 5 4h43q4 0 5 -4l155 -514l144 471l-63 9q-5 2 -5 6v27q0 5 5 5h179q5 0 5 -5v-27q0 -4 -5 -6l-65 -9l-198 -649q-1 -4 -5 -4h-49q-4 0 -5 4l-151 521l-169 -521q-1 -4 -5 -4h-39q-4 0 -5 4l-189 652l-64 7q-5 0 -5 5v27q0 5 5 5h236q5 0 5 -5v-27z" />
    <glyph glyph-name="wdieresis" unicode="&#x1e85;" horiz-adv-x="861" 
d="M338 594q-22 0 -37.5 15.5t-15.5 37.5t15.5 37.5t37.5 15.5q21 0 36.5 -15.5t15.5 -37.5t-15.5 -37.5t-36.5 -15.5zM535 594q-22 0 -37.5 15.5t-15.5 37.5t15.5 37.5t37.5 15.5q21 0 36.5 -15.5t15.5 -37.5t-15.5 -37.5t-36.5 -15.5zM832 490q0 -4 -5 -6l-81 -12
l-146 -468q-1 -4 -5 -4h-43q-4 0 -5 4l-127 447l-154 -447q-1 -4 -5 -4h-43q-4 0 -5 4l-137 476l-67 7q-5 2 -5 6v25q0 5 5 5h226q5 0 5 -5v-28q0 -5 -5 -5l-73 -6l99 -355l139 395q1 4 5 4h76q4 0 5 -4l109 -395l113 351l-68 9q-5 2 -5 6v28q0 5 5 5h187q5 0 5 -5v-28z" />
    <glyph glyph-name="uni1EAE" unicode="&#x1eae;" horiz-adv-x="714" 
d="M263 874l-3.5 7t-3.5 8q-2 5 2 7q93 71 128 94q16 11 31.5 1.5t15.5 -25.5t-17 -27q-72 -34 -148 -64q-2 -1 -5 -1zM324 750q-47 0 -74 33t-27 74h40q0 -24 16.5 -45.5t44.5 -21.5t44.5 21.5t16.5 45.5h40q0 -41 -27 -74t-74 -33zM655 37q5 0 5 -5v-27q0 -5 -5 -5h-230
q-5 0 -5 5v27q0 5 5 5l63 5l-67 197h-216l-66 -194l66 -7q5 0 5 -5v-28q0 -5 -5 -5h-191q-5 0 -5 5v28q0 5 5 5l72 7l210 610l-69 7q-5 2 -5 6v27q0 5 5 5h138q4 0 5 -4l228 -654zM220 287h186l-91 281z" />
    <glyph glyph-name="uni1EAF" unicode="&#x1eaf;" horiz-adv-x="534" 
d="M136 767q0 2 -3 7.5t-4 7.5q-2 5 2 7q93 71 128 94q16 11 31.5 1.5t15.5 -25.5t-17 -27q-72 -34 -148 -64q-2 -1 -5 -1zM202 629q-47 0 -74 33t-27 74h40q0 -24 16.5 -45.5t44.5 -21.5t44.5 21.5t16.5 45.5h40q0 -41 -27 -74t-74 -33zM471 38q5 0 5 -5v-28q0 -5 -5 -5
h-130q-5 0 -6 4l-25 62q-53 -44 -96 -63t-102 -12q-112 13 -112 117q0 35 16 66.5t38 53t59 44t65 35t70 31t61 27.5q-3 128 -107 128q-81 0 -122 -52l18 -88q2 -5 -5 -5h-71q-5 0 -5 5v108q0 3 3 6q25 24 73.5 41t108.5 18q94 2 146 -44t52 -154v-284zM309 113v207
q-1 -1 -22 -9.5t-27 -11.5t-26.5 -13t-29 -15t-26.5 -16t-26.5 -19.5t-21.5 -21t-19.5 -24t-11.5 -25.5t-6 -29q-4 -70 49 -80q77 -13 167 57z" />
    <glyph glyph-name="uni1EB0" unicode="&#x1eb0;" horiz-adv-x="714" 
d="M223 936q-18 9 -17 27t15 25.5t32 -1.5q24 -14 132 -97q-1 0 -8 -16q-2 -4 -6 -2q-76 30 -148 64zM324 790q28 0 44.5 21.5t16.5 45.5h40q0 -41 -27 -74t-74 -33t-74 33t-27 74h40q0 -24 16.5 -45.5t44.5 -21.5zM655 37q5 0 5 -5v-27q0 -5 -5 -5h-230q-5 0 -5 5v27
q0 5 5 5l63 5l-67 197h-216l-66 -194l66 -7q5 0 5 -5v-28q0 -5 -5 -5h-191q-5 0 -5 5v28q0 5 5 5l72 7l210 610l-69 7q-5 2 -5 6v27q0 5 5 5h138q4 0 5 -4l228 -654zM220 287h186l-91 281z" />
    <glyph glyph-name="uni1EB1" unicode="&#x1eb1;" horiz-adv-x="534" 
d="M132 838q-18 9 -17 27t15 25.5t32 -1.5q24 -14 132 -97q-1 0 -8 -16q-2 -4 -6 -2q-76 30 -148 64zM202 629q-47 0 -74 33t-27 74h40q0 -24 16.5 -45.5t44.5 -21.5t44.5 21.5t16.5 45.5h40q0 -41 -27 -74t-74 -33zM471 38q5 0 5 -5v-28q0 -5 -5 -5h-130q-5 0 -6 4l-25 62
q-53 -44 -96 -63t-102 -12q-112 13 -112 117q0 35 16 66.5t38 53t59 44t65 35t70 31t61 27.5q-3 128 -107 128q-81 0 -122 -52l18 -88q2 -5 -5 -5h-71q-5 0 -5 5v108q0 3 3 6q25 24 73.5 41t108.5 18q94 2 146 -44t52 -154v-284zM309 113v207q-1 -1 -22 -9.5t-27 -11.5
t-26.5 -13t-29 -15t-26.5 -16t-26.5 -19.5t-21.5 -21t-19.5 -24t-11.5 -25.5t-6 -29q-4 -70 49 -80q77 -13 167 57z" />
    <glyph glyph-name="uni1EB4" unicode="&#x1eb4;" horiz-adv-x="714" 
d="M210 891q-5 2 -3 7q29 48 68 48q26 0 50 -18q23 -19 45 -15q16 3 33 26q1 4 6 2l18 -8q5 -2 3 -7q-29 -48 -68 -48q-26 0 -50 18q-22 19 -45 15q-16 -3 -33 -26q-1 -4 -6 -2zM324 790q28 0 44.5 21.5t16.5 45.5h40q0 -41 -27 -74t-74 -33t-74 33t-27 74h40
q0 -24 16.5 -45.5t44.5 -21.5zM655 37q5 0 5 -5v-27q0 -5 -5 -5h-230q-5 0 -5 5v27q0 5 5 5l63 5l-67 197h-216l-66 -194l66 -7q5 0 5 -5v-28q0 -5 -5 -5h-191q-5 0 -5 5v28q0 5 5 5l72 7l210 610l-69 7q-5 2 -5 6v27q0 5 5 5h138q4 0 5 -4l228 -654zM220 287h186l-91 281z
" />
    <glyph glyph-name="uni1EB5" unicode="&#x1eb5;" horiz-adv-x="534" 
d="M101 787q-5 2 -3 7q29 48 68 48q26 0 50 -18q22 -19 45 -15q16 3 33 26q1 4 6 2l18 -8q5 -2 3 -7q-29 -48 -68 -48q-26 0 -50 18q-23 19 -45 15q-16 -3 -33 -26q-1 -4 -6 -2zM202 669q28 0 44.5 21.5t16.5 45.5h40q0 -41 -27 -74t-74 -33t-74 33t-27 74h40
q0 -24 16.5 -45.5t44.5 -21.5zM471 38q5 0 5 -5v-28q0 -5 -5 -5h-130q-5 0 -6 4l-25 62q-53 -44 -96 -63t-102 -12q-112 13 -112 117q0 35 16 66.5t38 53t59 44t65 35t70 31t61 27.5q-3 128 -107 128q-81 0 -122 -52l18 -88q2 -5 -5 -5h-71q-5 0 -5 5v108q0 3 3 6
q25 24 73.5 41t108.5 18q94 2 146 -44t52 -154v-284zM309 113v207q-1 -1 -22 -9.5t-27 -11.5t-26.5 -13t-29 -15t-26.5 -16t-26.5 -19.5t-21.5 -21t-19.5 -24t-11.5 -25.5t-6 -29q-4 -70 49 -80q77 -13 167 57z" />
    <glyph glyph-name="Ygrave" unicode="&#x1ef2;" horiz-adv-x="741" 
d="M226 816q-18 9 -17 27t15 25.5t32 -1.5q24 -14 132 -97q-1 0 -8 -16q-2 -4 -6 -2q-76 30 -148 64zM638 700q5 0 5 -5v-27q0 -4 -5 -6l-60 -8l-206 -351v-260l72 -5q5 0 5 -5v-28q0 -5 -5 -5h-240q-5 0 -5 5v28q0 5 5 5l72 5v260l-206 353l-64 7q-5 0 -5 5v27q0 5 5 5h230
q5 0 5 -5v-27q0 -5 -5 -5l-64 -7l180 -301l177 300l-69 7q-5 2 -5 6v27q0 5 5 5h178z" />
    <glyph glyph-name="ygrave" unicode="&#x1ef3;" horiz-adv-x="623" 
d="M185 688q-18 9 -17 27t15 25.5t32 -1.5q24 -14 132 -97q-1 0 -8 -16q-2 -4 -6 -2q-76 30 -148 64zM593 523q5 0 5 -5v-27q0 -5 -4 -6l-75 -15l-236 -574q-29 -65 -74 -109t-101 -44h-63q-5 0 -5 5v29q0 5 5 5h63q41 0 77.5 45t59.5 104l23 57l-195 491l-64 7q-5 0 -5 5
v27q0 5 5 5h225q5 0 5 -5v-27q0 -4 -5 -6l-65 -10l153 -358l143 355l-73 13q-5 2 -5 6v27q0 5 5 5h201z" />
    <glyph glyph-name="uni1EF8" unicode="&#x1ef8;" horiz-adv-x="741" 
d="M427 811q1 4 6 2l18 -8q5 -2 3 -7q-29 -48 -68 -48q-26 0 -50 18q-22 19 -45 15q-16 -3 -33 -26q-1 -4 -6 -2l-18 8q-5 2 -3 7q29 48 68 48q26 0 50 -18q23 -19 45 -15q16 3 33 26zM199 33q0 5 5 5l72 5v260l-206 353l-64 7q-5 0 -5 5v27q0 5 5 5h230q5 0 5 -5v-27
q0 -5 -5 -5l-64 -7l180 -301l177 300l-69 7q-5 2 -5 6v27q0 5 5 5h178q5 0 5 -5v-27q0 -4 -5 -6l-60 -8l-206 -351v-260l72 -5q5 0 5 -5v-28q0 -5 -5 -5h-240q-5 0 -5 5v28z" />
    <glyph glyph-name="uni1EF9" unicode="&#x1ef9;" horiz-adv-x="623" 
d="M386 706q1 4 6 2l18 -8q5 -2 3 -7q-29 -48 -68 -48q-26 0 -50 18q-23 19 -45 15q-16 -3 -33 -26q-1 -4 -6 -2l-18 8q-5 2 -3 7q29 48 68 48q26 0 50 -18q22 -19 45 -15q16 3 33 26zM108 -218q41 0 77.5 45t59.5 104l23 57l-195 491l-64 7q-5 0 -5 5v27q0 5 5 5h225
q5 0 5 -5v-27q0 -4 -5 -6l-65 -10l153 -358l143 355l-73 13q-5 2 -5 6v27q0 5 5 5h201q5 0 5 -5v-27q0 -5 -4 -6l-75 -15l-236 -574q-29 -65 -74 -109t-101 -44h-63q-5 0 -5 5v29q0 5 5 5h63z" />
    <glyph glyph-name="endash" unicode="&#x2013;" horiz-adv-x="480" 
d="M402 288q5 0 5 -5v-20q0 -5 -5 -5h-368q-5 0 -5 5v20q0 5 5 5h368z" />
    <glyph glyph-name="emdash" unicode="&#x2014;" horiz-adv-x="657" 
d="M591 288q5 0 5 -5v-20q0 -5 -5 -5h-559q-5 0 -5 5v20q0 5 5 5h559z" />
    <glyph glyph-name="quoteleft" unicode="&#x2018;" horiz-adv-x="189" 
d="M123 746q2 -5 -2 -7q-48 -32 -48 -68q4 4 21 4q22 0 34.5 -15.5t12.5 -39.5t-17 -38t-39 -14q-27 0 -43 17t-16 46t10 53.5t26 39.5t27.5 23t21.5 12q5 2 6 -2z" />
    <glyph glyph-name="quoteright" unicode="&#x2019;" horiz-adv-x="189" 
d="M44 583q-2 5 2 7q48 32 48 68q-4 -4 -21 -4q-22 0 -34.5 15.5t-12.5 39.5t17 38t39 14q27 0 43 -17t16 -46t-10 -53.5t-26 -39.5t-27.5 -23t-21.5 -12q-5 -2 -6 2z" />
    <glyph glyph-name="quotesinglbase" unicode="&#x201a;" horiz-adv-x="140" 
d="M33 -93q-3 4 1 7q37 34 35 74h-8q-20 1 -33.5 16t-13.5 38q0 24 17.5 38.5t37.5 14.5q22 0 38 -14.5t16 -42.5q0 -43 -17 -77t-31.5 -45.5t-28.5 -19.5q-5 -2 -7 2z" />
    <glyph glyph-name="quotedblleft" unicode="&#x201c;" horiz-adv-x="320" 
d="M94 675q22 0 34.5 -15.5t12.5 -39.5t-17 -38t-39 -14q-27 0 -43 17t-16 46t10 53.5t26 39.5t27.5 23t21.5 12q5 2 6 -2l6 -11q2 -5 -2 -7q-48 -32 -48 -68q4 4 21 4zM238 675q22 0 34.5 -15.5t12.5 -39.5t-17 -38t-39 -14q-27 0 -43 17t-16 46t10 53.5t26 39.5t27.5 23
t21.5 12q5 2 6 -2l6 -11q2 -5 -2 -7q-48 -32 -48 -68q4 4 21 4z" />
    <glyph glyph-name="quotedblright" unicode="&#x201d;" horiz-adv-x="320" 
d="M82 761q27 0 43 -17t16 -46t-10 -53.5t-26 -39.5t-27.5 -23t-21.5 -12q-5 -2 -6 2l-6 11q-2 5 2 7q48 32 48 68q-4 -4 -21 -4q-22 0 -34.5 15.5t-12.5 39.5t17 38t39 14zM226 761q27 0 43 -17t16 -46t-10 -53.5t-26 -39.5t-27.5 -23t-21.5 -12q-5 -2 -6 2l-6 11q-2 5 2 7
q48 32 48 68q-4 -4 -21 -4q-22 0 -34.5 15.5t-12.5 39.5t17 38t39 14z" />
    <glyph glyph-name="quotedblbase" unicode="&#x201e;" horiz-adv-x="320" 
d="M69 95q22 0 38 -14.5t16 -42.5q0 -43 -17 -77t-31.5 -45.5t-28.5 -19.5q-5 -2 -7 2l-6 9q-3 4 1 7q37 34 35 74h-8q-20 1 -33.5 16t-13.5 38q0 24 17.5 38.5t37.5 14.5zM213 95q22 0 38 -14.5t16 -42.5q0 -43 -17 -77t-31.5 -45.5t-28.5 -19.5q-5 -2 -7 2l-6 9q-3 4 1 7
q37 34 35 74h-8q-20 1 -33.5 16t-13.5 38q0 24 17.5 38.5t37.5 14.5z" />
    <glyph glyph-name="bullet" unicode="&#x2022;" horiz-adv-x="303" 
d="M21 336q0 45 29 76.5t70 31.5t70 -31.5t29 -76.5q0 -46 -29 -78t-70 -32t-70 32t-29 78z" />
    <glyph glyph-name="ellipsis" unicode="&#x2026;" horiz-adv-x="600" 
d="M63 96q23 0 38.5 -16t15.5 -38t-15.5 -38t-38.5 -16t-38.5 16t-15.5 38t15.5 38t38.5 16zM221 96q23 0 38.5 -16t15.5 -38t-15.5 -38t-38.5 -16t-38.5 16t-15.5 38t15.5 38t38.5 16zM379 96q23 0 38.5 -16t15.5 -38t-15.5 -38t-38.5 -16t-38.5 16t-15.5 38t15.5 38
t38.5 16z" />
    <glyph glyph-name="guilsinglleft" unicode="&#x2039;" horiz-adv-x="250" 
d="M184 387q9 0 3 -6l-109 -113l109 -113q6 -6 -3 -6h-39q-5 0 -6 3l-106 112q-3 4 0 8l105 112q3 3 7 3h39z" />
    <glyph glyph-name="guilsinglright" unicode="&#x203a;" horiz-adv-x="250" 
d="M36 381q-6 6 3 6h39q4 0 6 -3l106 -112q3 -4 0 -8l-105 -112q-3 -3 -7 -3h-39q-9 0 -3 6l109 113z" />
    <glyph glyph-name="Euro" unicode="&#x20ac;" horiz-adv-x="632" 
d="M565 86q4 -3 0 -7q-50 -51 -89.5 -71t-101.5 -20q-110 0 -188 70t-101 193h-66q-5 0 -5 5v27q0 5 5 5h60q-3 27 -3 56q0 4 2 5q-2 1 -2 5q0 28 3 55h-60q-5 0 -5 5v27q0 5 5 5h66q22 124 100 194t189 70q62 0 101.5 -20t89.5 -71q4 -4 0 -7l-30 -27q-4 -3 -7 1
q-34 40 -64.5 57.5t-89.5 17.5q-153 0 -176 -215h138q5 0 5 -5v-27q0 -5 -5 -5h-141q-2 -20 -2 -60q0 -41 2 -61h141q5 0 5 -5v-27q0 -5 -5 -5h-138q23 -214 176 -214q59 0 89.5 17.5t64.5 57.5q3 4 7 1z" />
    <glyph glyph-name="trademark" unicode="&#x2122;" horiz-adv-x="530" 
d="M8 656q-5 0 -5 5v34q0 5 5 5h187q5 0 5 -5v-34q0 -5 -5 -5h-5q-4 0 -6 5l-3 17h-63v-206l24 -2q5 0 5 -5v-3q0 -5 -5 -5h-81q-5 0 -5 5v3q0 5 5 5l23 2v206h-62l-4 -18q-1 -4 -5 -4h-5zM510 462q0 -5 -5 -5h-73q-5 0 -5 5v3q0 5 5 5l19 2v207l-75 -218q-1 -4 -5 -4h-20
q-4 0 -5 4l-76 216v-204l20 -2q5 -2 5 -6v-3q0 -5 -5 -5h-65q-5 0 -5 5v3q0 5 5 5l24 3v212l-24 2q-5 0 -5 5v3q0 5 5 5h73q4 0 5 -4l66 -195l67 195q1 4 5 4h64q5 0 5 -5v-3q0 -5 -5 -5l-21 -2v-213q20 -2 21 -2q5 0 5 -5v-3z" />
    <glyph glyph-name="arrowleft" unicode="&#x2190;" horiz-adv-x="450" 
d="M379 279q5 0 5 -5v-29q0 -5 -5 -5h-249v-39q0 -9 -6 -3l-66 57q-3 3 0 8l66 56q6 6 6 -3v-37h249z" />
    <glyph glyph-name="arrowup" unicode="&#x2191;" horiz-adv-x="200" 
d="M158 354q6 -6 -3 -6h-39v-249q0 -5 -5 -5h-29q-5 0 -5 5v249h-37q-9 0 -3 6l56 66q5 3 8 0z" />
    <glyph glyph-name="arrowright" unicode="&#x2192;" horiz-adv-x="450" 
d="M380 263q3 -5 0 -8l-66 -57q-6 -6 -6 3v39h-249q-5 0 -5 5v29q0 5 5 5h249v37q0 9 6 3z" />
    <glyph glyph-name="arrowdown" unicode="&#x2193;" horiz-adv-x="200" 
d="M155 170q9 0 3 -6l-57 -66q-3 -3 -8 0l-56 66q-6 6 3 6h37v249q0 5 5 5h29q5 0 5 -5v-249h39z" />
    <glyph glyph-name="arrowboth" unicode="&#x2194;" horiz-adv-x="500" 
d="M460 263q3 -5 0 -8l-66 -57q-6 -6 -6 3v39h-278v-39q0 -9 -6 -3l-66 57q-3 3 0 8l66 56q6 6 6 -3v-37h278v37q0 9 6 3z" />
    <glyph glyph-name="arrowupdn" unicode="&#x2195;" horiz-adv-x="200" 
d="M155 120q9 0 3 -6l-57 -66q-3 -3 -8 0l-56 66q-6 6 3 6h37v278h-37q-9 0 -3 6l56 66q5 3 8 0l57 -66q6 -6 -3 -6h-39v-278h39z" />
    <glyph glyph-name="uni2196" unicode="&#x2196;" horiz-adv-x="450" 
d="M321 160q4 -4 0 -8l-19 -19q-4 -4 -8 0l-176 176l-27 -28q-5 -5 -7 2l-6 88q0 5 5 5l86 -7q7 -2 2 -7l-26 -26z" />
    <glyph glyph-name="uni2197" unicode="&#x2197;" horiz-adv-x="400" 
d="M320 376q5 0 5 -5l-6 -88q-2 -7 -7 -2l-27 28l-176 -176q-4 -4 -8 0l-19 19q-4 4 0 8l176 176l-26 26q-5 5 2 7z" />
    <glyph glyph-name="uni2198" unicode="&#x2198;" horiz-adv-x="450" 
d="M319 222l6 -88q0 -5 -5 -5l-86 7q-7 2 -2 7l26 26l-176 176q-4 4 0 8l19 19q4 4 8 0l176 -176l27 28q5 5 7 -2z" />
    <glyph glyph-name="uni2199" unicode="&#x2199;" horiz-adv-x="450" 
d="M321 353q4 -4 0 -8l-176 -176l26 -26q5 -5 -2 -7l-86 -7q-5 0 -5 5l6 88q2 7 7 2l27 -28l176 176q4 4 8 0z" />
    <glyph glyph-name="minus" unicode="&#x2212;" horiz-adv-x="500" 
d="M458 296q5 0 5 -5v-37q0 -5 -5 -5h-435q-5 0 -5 5v37q0 5 5 5h435z" />
    <glyph glyph-name="uniF6CB" unicode="&#xf6cb;" horiz-adv-x="313" 
d="M11 885q0 22 14 37.5t34 15.5t34.5 -15.5t14.5 -37.5q0 -23 -14.5 -38.5t-34.5 -15.5t-34 15.5t-14 38.5zM221 885q0 23 14 38t35 15q19 0 33.5 -15.5t14.5 -37.5q0 -23 -14.5 -38.5t-33.5 -15.5q-21 0 -35 15.5t-14 38.5z" />
    <glyph glyph-name="i.loclTRK" horiz-adv-x="300" 
d="M113 647q-22 0 -37.5 15.5t-15.5 37.5t15.5 37.5t37.5 15.5q21 0 36.5 -15.5t15.5 -37.5t-15.5 -37.5t-36.5 -15.5zM242 5q0 -5 -5 -5h-246q-5 0 -5 5v27q0 5 5 5l77 5v438l-76 6q-5 0 -5 5v27q0 5 5 5h162q5 0 5 -5v-475l78 -6q5 0 5 -5v-27z" />
    <glyph glyph-name="f_b" horiz-adv-x="919" 
d="M688 527q100 -9 150.5 -84.5t50.5 -188.5q0 -121 -57 -192.5t-159 -71.5q-46 0 -91 18t-73 53q-3 -5 -29 -57q-1 -4 -6 -4h-55q-5 0 -5 5v704h-123q-105 0 -105 -141v-45h130q5 0 5 -5v-27q0 -5 -5 -5h-130v-441l88 -7q5 0 5 -5v-28q0 -5 -5 -5h-263q-5 0 -5 5v28
q0 5 5 5l85 6v442h-95q-5 0 -5 5v27q0 5 5 5h95v52q0 88 53 137.5t137 46.5h215q5 0 5 -5v-300q74 82 182 73zM666 37q31 0 53.5 14.5t34 35t17.5 52.5t7.5 55.5t1.5 56.5q0 37 -6.5 73.5t-21 71t-42.5 56t-66 21.5q-35 0 -73.5 -24t-64.5 -57v-233q22 -51 65.5 -86.5
t94.5 -35.5z" />
    <glyph glyph-name="f_h" horiz-adv-x="954" 
d="M916 38q5 0 5 -5v-28q0 -5 -5 -5h-222q-5 0 -5 5v28q0 5 5 5l62 4v274q0 64 -24.5 109.5t-80.5 45.5q-35 0 -75 -24t-60 -55l-1 -349l65 -5q5 0 5 -5v-28q0 -5 -5 -5h-233q-5 0 -5 5v28q0 5 5 5l76 4v667h-132q-105 0 -105 -141v-45h130q5 0 5 -5v-27q0 -5 -5 -5h-130
v-441l88 -7q5 0 5 -5v-28q0 -5 -5 -5h-263q-5 0 -5 5v28q0 5 5 5l85 6v442h-95q-5 0 -5 5v27q0 5 5 5h95v52q0 81 45 129.5t119 53.5q0 1 2 1h248q5 0 5 -5v-300q19 29 71.5 53t100.5 20q160 -15 160 -191v-293z" />
    <glyph glyph-name="f_j" horiz-adv-x="621" 
d="M499 523q5 0 5 -5v-577q0 -99 -49.5 -148.5t-139.5 -49.5h-45q-5 0 -5 5v28q0 5 5 5h45q99 0 99 157v548h-228v-441l88 -7q5 0 5 -5v-28q0 -5 -5 -5h-263q-5 0 -5 5v28q0 5 5 5l85 6v442h-95q-5 0 -5 5v27q0 5 5 5h95v52q0 103 71.5 152t175.5 24q4 -1 4 -5v-98
q0 -5 -5 -5h-31q-4 0 -5 4l-15 62q-12 8 -30 2t-34.5 -18.5t-28.5 -45.5t-12 -79v-45h313zM457 655q-23 0 -38.5 15.5t-15.5 38.5t15.5 38.5t38.5 15.5t38.5 -15.5t15.5 -38.5t-15.5 -38.5t-38.5 -15.5z" />
    <glyph glyph-name="f_k" horiz-adv-x="941" 
d="M921 39q5 0 5 -5v-29q0 -5 -5 -5h-238q-5 0 -5 5v28q0 5 5 5l67 5l-208 219l-37 -32v-186l76 -6q5 0 5 -5v-28q0 -5 -5 -5h-244q-5 0 -5 5v28q0 5 5 5l76 5v666h-122q-105 0 -105 -141v-45h130q5 0 5 -5v-27q0 -5 -5 -5h-130v-441l88 -7q5 0 5 -5v-28q0 -5 -5 -5h-263
q-5 0 -5 5v28q0 5 5 5l85 6v442h-95q-5 0 -5 5v27q0 5 5 5h95v52q0 88 53 137.5t137 46.5h214q5 0 5 -5v-463l209 178l-68 15q-4 1 -4 6v28q0 5 5 5h213q5 0 5 -5v-27q0 -5 -4 -6l-77 -16l-183 -157l250 -267z" />
    <glyph glyph-name="f_t" horiz-adv-x="711" 
d="M652 523q5 0 5 -5v-27q0 -5 -5 -5h-127v-334q0 -113 48 -113q36 0 58 24q4 4 6 0q7 -7 12 -13q3 -4 0 -8q-42 -50 -109 -50q-52 0 -78.5 31.5t-26.5 90.5v372h-249v-441l88 -7q5 0 5 -5v-28q0 -5 -5 -5h-263q-5 0 -5 5v28q0 5 5 5l85 6v442h-95q-5 0 -5 5v27q0 5 5 5h95
v52q0 103 71.5 152t175.5 24q4 -1 4 -5v-98q0 -5 -5 -5h-31q-4 0 -5 4l-15 62q-12 8 -30 2t-34.5 -18.5t-28.5 -45.5t-12 -79v-45h249v137q0 5 5 5h80q5 0 5 -5v-137h127z" />
    <glyph glyph-name="f_u" horiz-adv-x="907" 
d="M869 37q5 0 5 -5v-27q0 -5 -5 -5h-148q-5 0 -5 5v70q-77 -86 -168 -86q-74 0 -114.5 42.5t-40.5 124.5v330h-207v-441l88 -7q5 0 5 -5v-28q0 -5 -5 -5h-263q-5 0 -5 5v28q0 5 5 5l85 6v442h-95q-5 0 -5 5v27q0 5 5 5h95v52q0 103 71.5 152t175.5 24q4 -1 4 -5v-98
q0 -5 -5 -5h-31q-4 0 -5 4l-15 62q-12 8 -30 2t-34.5 -18.5t-28.5 -45.5t-12 -79v-45h293q5 0 5 -5v-319q0 -74 23.5 -113t86.5 -39q33 0 67.5 24t54.5 54v355l-75 7q-5 0 -5 5v26q0 5 5 5h161q5 0 5 -5v-476z" />
    <glyph glyph-name="t_i" horiz-adv-x="620" 
d="M437 655q-23 0 -38.5 15.5t-15.5 38.5t15.5 38.5t38.5 15.5t38.5 -15.5t15.5 -38.5t-15.5 -38.5t-38.5 -15.5zM564 33l1 -28q0 -5 -5 -5h-164q-5 0 -5 5v481h-220v-334q0 -113 48 -113q36 0 58 24q4 4 6 0q7 -7 12 -13q3 -4 0 -8q-42 -50 -109 -50q-52 0 -78.5 31.5
t-26.5 90.5v372h-95q-5 0 -5 5v27q0 5 5 5h95v137q0 5 5 5h80q5 0 5 -5v-137h306q5 0 5 -5v-474l77 -6q5 0 5 -5z" />
    <glyph glyph-name="t_r" horiz-adv-x="707" 
d="M678 515q4 -1 2 -6l-29 -67q-2 -5 -7 -3q-48 20 -96 2.5t-64 -57.5l-1 -341l80 -4q5 0 5 -5v-29q0 -5 -5 -5h-165q-5 0 -5 5v480h-222v-333q0 -113 48 -113q36 0 58 24q4 4 6 0q7 -7 12 -13q3 -4 0 -8q-42 -50 -109 -50q-52 0 -78.5 31.5t-26.5 90.5v371h-95q-5 0 -5 5
v28q0 5 5 5h95v137q0 5 5 5h80q5 0 5 -5v-137h307q5 0 5 -5v-70q23 39 61.5 59.5t72.5 19.5t61 -12z" />
    <glyph glyph-name="t_y" horiz-adv-x="883" 
d="M853 523q5 0 5 -5v-27q0 -5 -4 -6l-75 -15l-236 -574q-29 -65 -74 -109t-101 -44h-63q-5 0 -5 5v29q0 5 5 5h63q41 0 77.5 45t59.5 104l23 57l-197 497l-160 1v-334q0 -113 48 -113q36 0 58 24q4 4 6 0q7 -7 12 -13q3 -4 0 -8q-42 -50 -109 -50q-52 0 -78.5 31.5
t-26.5 90.5v372h-95q-5 0 -5 5v27q0 5 5 5h95v137q0 5 5 5h80q5 0 5 -5v-137h323q5 0 5 -5v-27q0 -4 -5 -6l-65 -10l153 -358l143 355l-73 13q-5 2 -5 6v27q0 5 5 5h201z" />
    </font>
</defs>
</svg>
